<?xml version="1.0" encoding="UTF-8" standalone="no"?>
<!-- Created with Inkscape (http://www.inkscape.org/) -->

<svg
   xmlns:dc="http://purl.org/dc/elements/1.1/"
   xmlns:cc="http://creativecommons.org/ns#"
   xmlns:rdf="http://www.w3.org/1999/02/22-rdf-syntax-ns#"
   xmlns:svg="http://www.w3.org/2000/svg"
   xmlns="http://www.w3.org/2000/svg"
   xmlns:sodipodi="http://sodipodi.sourceforge.net/DTD/sodipodi-0.dtd"
   xmlns:inkscape="http://www.inkscape.org/namespaces/inkscape"
   sodipodi:docname="chess.svg"
   xml:space="preserve"
   height="850.39368"
   width="992.12598"
   inkscape:version="0.47 r22583"
   version="1.1"
   id="svg2816"><metadata
     id="metadata2822"><rdf:RDF><cc:Work
         rdf:about=""><dc:format>image/svg+xml</dc:format><dc:type
           rdf:resource="http://purl.org/dc/dcmitype/StillImage" /><dc:title></dc:title></cc:Work></rdf:RDF></metadata><defs
     id="defs2820"><inkscape:perspective
       sodipodi:type="inkscape:persp3d"
       inkscape:vp_x="0 : 0.5 : 1"
       inkscape:vp_y="0 : 1000 : 0"
       inkscape:vp_z="1 : 0.5 : 1"
       inkscape:persp3d-origin="0.5 : 0.33333333 : 1"
       id="perspective2824" /><clipPath
       clipPathUnits="userSpaceOnUse"
       id="clipPath2832"><path
         d="m 0,637.795 850.394,0 L 850.394,0 0,0 0,637.795 z"
         id="path2834" /></clipPath><inkscape:perspective
       id="perspective3893"
       inkscape:persp3d-origin="0.5 : 0.33333333 : 1"
       inkscape:vp_z="1 : 0.5 : 1"
       inkscape:vp_y="0 : 1000 : 0"
       inkscape:vp_x="0 : 0.5 : 1"
       sodipodi:type="inkscape:persp3d" /><inkscape:perspective
       id="perspective3917"
       inkscape:persp3d-origin="0.5 : 0.33333333 : 1"
       inkscape:vp_z="1 : 0.5 : 1"
       inkscape:vp_y="0 : 1000 : 0"
       inkscape:vp_x="0 : 0.5 : 1"
       sodipodi:type="inkscape:persp3d" /><inkscape:perspective
       id="perspective3939"
       inkscape:persp3d-origin="0.5 : 0.33333333 : 1"
       inkscape:vp_z="1 : 0.5 : 1"
       inkscape:vp_y="0 : 1000 : 0"
       inkscape:vp_x="0 : 0.5 : 1"
       sodipodi:type="inkscape:persp3d" /><inkscape:perspective
       id="perspective3983"
       inkscape:persp3d-origin="0.5 : 0.33333333 : 1"
       inkscape:vp_z="1 : 0.5 : 1"
       inkscape:vp_y="0 : 1000 : 0"
       inkscape:vp_x="0 : 0.5 : 1"
       sodipodi:type="inkscape:persp3d" /><inkscape:perspective
       id="perspective3997"
       inkscape:persp3d-origin="0.5 : 0.33333333 : 1"
       inkscape:vp_z="1 : 0.5 : 1"
       inkscape:vp_y="0 : 1000 : 0"
       inkscape:vp_x="0 : 0.5 : 1"
       sodipodi:type="inkscape:persp3d" /><inkscape:perspective
       id="perspective4019"
       inkscape:persp3d-origin="0.5 : 0.33333333 : 1"
       inkscape:vp_z="1 : 0.5 : 1"
       inkscape:vp_y="0 : 1000 : 0"
       inkscape:vp_x="0 : 0.5 : 1"
       sodipodi:type="inkscape:persp3d" /><inkscape:perspective
       id="perspective4042"
       inkscape:persp3d-origin="0.5 : 0.33333333 : 1"
       inkscape:vp_z="1 : 0.5 : 1"
       inkscape:vp_y="0 : 1000 : 0"
       inkscape:vp_x="0 : 0.5 : 1"
       sodipodi:type="inkscape:persp3d" /><inkscape:perspective
       id="perspective4064"
       inkscape:persp3d-origin="0.5 : 0.33333333 : 1"
       inkscape:vp_z="1 : 0.5 : 1"
       inkscape:vp_y="0 : 1000 : 0"
       inkscape:vp_x="0 : 0.5 : 1"
       sodipodi:type="inkscape:persp3d" /><inkscape:perspective
       id="perspective4078"
       inkscape:persp3d-origin="0.5 : 0.33333333 : 1"
       inkscape:vp_z="1 : 0.5 : 1"
       inkscape:vp_y="0 : 1000 : 0"
       inkscape:vp_x="0 : 0.5 : 1"
       sodipodi:type="inkscape:persp3d" /><inkscape:perspective
       id="perspective4092"
       inkscape:persp3d-origin="0.5 : 0.33333333 : 1"
       inkscape:vp_z="1 : 0.5 : 1"
       inkscape:vp_y="0 : 1000 : 0"
       inkscape:vp_x="0 : 0.5 : 1"
       sodipodi:type="inkscape:persp3d" /><inkscape:perspective
       id="perspective4114"
       inkscape:persp3d-origin="0.5 : 0.33333333 : 1"
       inkscape:vp_z="1 : 0.5 : 1"
       inkscape:vp_y="0 : 1000 : 0"
       inkscape:vp_x="0 : 0.5 : 1"
       sodipodi:type="inkscape:persp3d" /><inkscape:perspective
       id="perspective4158"
       inkscape:persp3d-origin="0.5 : 0.33333333 : 1"
       inkscape:vp_z="1 : 0.5 : 1"
       inkscape:vp_y="0 : 1000 : 0"
       inkscape:vp_x="0 : 0.5 : 1"
       sodipodi:type="inkscape:persp3d" /><inkscape:perspective
       id="perspective4183"
       inkscape:persp3d-origin="0.5 : 0.33333333 : 1"
       inkscape:vp_z="1 : 0.5 : 1"
       inkscape:vp_y="0 : 1000 : 0"
       inkscape:vp_x="0 : 0.5 : 1"
       sodipodi:type="inkscape:persp3d" /><inkscape:perspective
       id="perspective4212"
       inkscape:persp3d-origin="0.5 : 0.33333333 : 1"
       inkscape:vp_z="1 : 0.5 : 1"
       inkscape:vp_y="0 : 1000 : 0"
       inkscape:vp_x="0 : 0.5 : 1"
       sodipodi:type="inkscape:persp3d" /><inkscape:perspective
       id="perspective4235"
       inkscape:persp3d-origin="0.5 : 0.33333333 : 1"
       inkscape:vp_z="1 : 0.5 : 1"
       inkscape:vp_y="0 : 1000 : 0"
       inkscape:vp_x="0 : 0.5 : 1"
       sodipodi:type="inkscape:persp3d" /><inkscape:perspective
       id="perspective4249"
       inkscape:persp3d-origin="0.5 : 0.33333333 : 1"
       inkscape:vp_z="1 : 0.5 : 1"
       inkscape:vp_y="0 : 1000 : 0"
       inkscape:vp_x="0 : 0.5 : 1"
       sodipodi:type="inkscape:persp3d" /><inkscape:perspective
       id="perspective4274"
       inkscape:persp3d-origin="0.5 : 0.33333333 : 1"
       inkscape:vp_z="1 : 0.5 : 1"
       inkscape:vp_y="0 : 1000 : 0"
       inkscape:vp_x="0 : 0.5 : 1"
       sodipodi:type="inkscape:persp3d" /><inkscape:perspective
       id="perspective4297"
       inkscape:persp3d-origin="0.5 : 0.33333333 : 1"
       inkscape:vp_z="1 : 0.5 : 1"
       inkscape:vp_y="0 : 1000 : 0"
       inkscape:vp_x="0 : 0.5 : 1"
       sodipodi:type="inkscape:persp3d" /><inkscape:perspective
       id="perspective4319"
       inkscape:persp3d-origin="0.5 : 0.33333333 : 1"
       inkscape:vp_z="1 : 0.5 : 1"
       inkscape:vp_y="0 : 1000 : 0"
       inkscape:vp_x="0 : 0.5 : 1"
       sodipodi:type="inkscape:persp3d" /><inkscape:perspective
       id="perspective4341"
       inkscape:persp3d-origin="0.5 : 0.33333333 : 1"
       inkscape:vp_z="1 : 0.5 : 1"
       inkscape:vp_y="0 : 1000 : 0"
       inkscape:vp_x="0 : 0.5 : 1"
       sodipodi:type="inkscape:persp3d" /><inkscape:perspective
       id="perspective4364"
       inkscape:persp3d-origin="0.5 : 0.33333333 : 1"
       inkscape:vp_z="1 : 0.5 : 1"
       inkscape:vp_y="0 : 1000 : 0"
       inkscape:vp_x="0 : 0.5 : 1"
       sodipodi:type="inkscape:persp3d" /><inkscape:perspective
       id="perspective4408"
       inkscape:persp3d-origin="0.5 : 0.33333333 : 1"
       inkscape:vp_z="1 : 0.5 : 1"
       inkscape:vp_y="0 : 1000 : 0"
       inkscape:vp_x="0 : 0.5 : 1"
       sodipodi:type="inkscape:persp3d" /><inkscape:perspective
       id="perspective4430"
       inkscape:persp3d-origin="0.5 : 0.33333333 : 1"
       inkscape:vp_z="1 : 0.5 : 1"
       inkscape:vp_y="0 : 1000 : 0"
       inkscape:vp_x="0 : 0.5 : 1"
       sodipodi:type="inkscape:persp3d" /><inkscape:perspective
       id="perspective4453"
       inkscape:persp3d-origin="0.5 : 0.33333333 : 1"
       inkscape:vp_z="1 : 0.5 : 1"
       inkscape:vp_y="0 : 1000 : 0"
       inkscape:vp_x="0 : 0.5 : 1"
       sodipodi:type="inkscape:persp3d" /><inkscape:perspective
       id="perspective4475"
       inkscape:persp3d-origin="0.5 : 0.33333333 : 1"
       inkscape:vp_z="1 : 0.5 : 1"
       inkscape:vp_y="0 : 1000 : 0"
       inkscape:vp_x="0 : 0.5 : 1"
       sodipodi:type="inkscape:persp3d" /><inkscape:perspective
       id="perspective4500"
       inkscape:persp3d-origin="0.5 : 0.33333333 : 1"
       inkscape:vp_z="1 : 0.5 : 1"
       inkscape:vp_y="0 : 1000 : 0"
       inkscape:vp_x="0 : 0.5 : 1"
       sodipodi:type="inkscape:persp3d" /><inkscape:perspective
       id="perspective4531"
       inkscape:persp3d-origin="0.5 : 0.33333333 : 1"
       inkscape:vp_z="1 : 0.5 : 1"
       inkscape:vp_y="0 : 1000 : 0"
       inkscape:vp_x="0 : 0.5 : 1"
       sodipodi:type="inkscape:persp3d" /><inkscape:perspective
       id="perspective4566"
       inkscape:persp3d-origin="0.5 : 0.33333333 : 1"
       inkscape:vp_z="1 : 0.5 : 1"
       inkscape:vp_y="0 : 1000 : 0"
       inkscape:vp_x="0 : 0.5 : 1"
       sodipodi:type="inkscape:persp3d" /><inkscape:perspective
       id="perspective4588"
       inkscape:persp3d-origin="0.5 : 0.33333333 : 1"
       inkscape:vp_z="1 : 0.5 : 1"
       inkscape:vp_y="0 : 1000 : 0"
       inkscape:vp_x="0 : 0.5 : 1"
       sodipodi:type="inkscape:persp3d" /><inkscape:perspective
       id="perspective4623"
       inkscape:persp3d-origin="0.5 : 0.33333333 : 1"
       inkscape:vp_z="1 : 0.5 : 1"
       inkscape:vp_y="0 : 1000 : 0"
       inkscape:vp_x="0 : 0.5 : 1"
       sodipodi:type="inkscape:persp3d" /><inkscape:perspective
       id="perspective4623-2"
       inkscape:persp3d-origin="0.5 : 0.33333333 : 1"
       inkscape:vp_z="1 : 0.5 : 1"
       inkscape:vp_y="0 : 1000 : 0"
       inkscape:vp_x="0 : 0.5 : 1"
       sodipodi:type="inkscape:persp3d" /><inkscape:perspective
       id="perspective4672"
       inkscape:persp3d-origin="0.5 : 0.33333333 : 1"
       inkscape:vp_z="1 : 0.5 : 1"
       inkscape:vp_y="0 : 1000 : 0"
       inkscape:vp_x="0 : 0.5 : 1"
       sodipodi:type="inkscape:persp3d" /><inkscape:perspective
       id="perspective4694"
       inkscape:persp3d-origin="0.5 : 0.33333333 : 1"
       inkscape:vp_z="1 : 0.5 : 1"
       inkscape:vp_y="0 : 1000 : 0"
       inkscape:vp_x="0 : 0.5 : 1"
       sodipodi:type="inkscape:persp3d" /><inkscape:perspective
       id="perspective4716"
       inkscape:persp3d-origin="0.5 : 0.33333333 : 1"
       inkscape:vp_z="1 : 0.5 : 1"
       inkscape:vp_y="0 : 1000 : 0"
       inkscape:vp_x="0 : 0.5 : 1"
       sodipodi:type="inkscape:persp3d" /><inkscape:perspective
       id="perspective4716-6"
       inkscape:persp3d-origin="0.5 : 0.33333333 : 1"
       inkscape:vp_z="1 : 0.5 : 1"
       inkscape:vp_y="0 : 1000 : 0"
       inkscape:vp_x="0 : 0.5 : 1"
       sodipodi:type="inkscape:persp3d" /><inkscape:perspective
       id="perspective4752"
       inkscape:persp3d-origin="0.5 : 0.33333333 : 1"
       inkscape:vp_z="1 : 0.5 : 1"
       inkscape:vp_y="0 : 1000 : 0"
       inkscape:vp_x="0 : 0.5 : 1"
       sodipodi:type="inkscape:persp3d" /><inkscape:perspective
       id="perspective4752-2"
       inkscape:persp3d-origin="0.5 : 0.33333333 : 1"
       inkscape:vp_z="1 : 0.5 : 1"
       inkscape:vp_y="0 : 1000 : 0"
       inkscape:vp_x="0 : 0.5 : 1"
       sodipodi:type="inkscape:persp3d" /><inkscape:perspective
       id="perspective4752-4"
       inkscape:persp3d-origin="0.5 : 0.33333333 : 1"
       inkscape:vp_z="1 : 0.5 : 1"
       inkscape:vp_y="0 : 1000 : 0"
       inkscape:vp_x="0 : 0.5 : 1"
       sodipodi:type="inkscape:persp3d" /><inkscape:perspective
       id="perspective4752-5"
       inkscape:persp3d-origin="0.5 : 0.33333333 : 1"
       inkscape:vp_z="1 : 0.5 : 1"
       inkscape:vp_y="0 : 1000 : 0"
       inkscape:vp_x="0 : 0.5 : 1"
       sodipodi:type="inkscape:persp3d" /><inkscape:perspective
       id="perspective4752-7"
       inkscape:persp3d-origin="0.5 : 0.33333333 : 1"
       inkscape:vp_z="1 : 0.5 : 1"
       inkscape:vp_y="0 : 1000 : 0"
       inkscape:vp_x="0 : 0.5 : 1"
       sodipodi:type="inkscape:persp3d" /><inkscape:perspective
       id="perspective4752-3"
       inkscape:persp3d-origin="0.5 : 0.33333333 : 1"
       inkscape:vp_z="1 : 0.5 : 1"
       inkscape:vp_y="0 : 1000 : 0"
       inkscape:vp_x="0 : 0.5 : 1"
       sodipodi:type="inkscape:persp3d" /><inkscape:perspective
       id="perspective4819"
       inkscape:persp3d-origin="0.5 : 0.33333333 : 1"
       inkscape:vp_z="1 : 0.5 : 1"
       inkscape:vp_y="0 : 1000 : 0"
       inkscape:vp_x="0 : 0.5 : 1"
       sodipodi:type="inkscape:persp3d" /><inkscape:perspective
       id="perspective4850"
       inkscape:persp3d-origin="0.5 : 0.33333333 : 1"
       inkscape:vp_z="1 : 0.5 : 1"
       inkscape:vp_y="0 : 1000 : 0"
       inkscape:vp_x="0 : 0.5 : 1"
       sodipodi:type="inkscape:persp3d" /></defs><sodipodi:namedview
     pagecolor="#ffffff"
     bordercolor="#666666"
     borderopacity="1"
     objecttolerance="10"
     gridtolerance="10"
     guidetolerance="10"
     inkscape:pageopacity="0"
     inkscape:pageshadow="2"
     inkscape:window-width="1366"
     inkscape:window-height="716"
     id="namedview2818"
     showgrid="true"
     inkscape:zoom="0.59203974"
     inkscape:cx="512.14021"
     inkscape:cy="438.49934"
     inkscape:window-x="0"
     inkscape:window-y="0"
     inkscape:window-maximized="1"
     inkscape:current-layer="g2826"
     inkscape:document-units="mm"
     units="mm"
     inkscape:snap-global="true"
     showguides="true"
     inkscape:guide-bbox="true"><inkscape:grid
       type="xygrid"
       id="grid2879"
       empspacing="5"
       visible="true"
       enabled="true"
       snapvisiblegridlinesonly="true"
       units="mm"
       spacingx="0.5mm"
       spacingy="1mm" /></sodipodi:namedview><g
     id="g2826"
     inkscape:groupmode="layer"
     inkscape:label="layout-3mm-pieces"
     transform="matrix(1.25,0,0,-1.25,0,850.39372)"><path
       id="path2860"
       style="fill:none;stroke:#ff003f;stroke-width:0.82771653999999983;stroke-linecap:butt;stroke-linejoin:miter;stroke-miterlimit:4;stroke-opacity:1;stroke-dasharray:none"
       d="m 76.535463,379.84256 c 0.009,0.002 -9.92513,2.83464 -9.92513,2.83464 l -9.375,0 0,-4.575 c 0,7.7e-4 12.725,-2.825 12.725,-2.825 l 0.006,-12.44252 c 0,0 -17.52578,-8e-4 -17.525,0 l 0,-5.675 11.35,0 -0.0177,-90.70295 9.925,0 0,-8.5 2.825,0 0.0118,68.02756 8.503928,0 -0.0153,-68.02756 2.85,0 0,8.5 9.9,0 0.0176,90.70295 11.350009,0 0,5.675 c 7.9e-4,-8e-4 -17.525009,0 -17.525009,0 l -0.006,12.44252 c 0,0 12.724999,2.82577 12.724999,2.825 l 0,4.575 -9.374999,0 c 0,0 -9.92126,-2.83464 -9.92126,-2.83464 l -8.503938,0 z"
       sodipodi:nodetypes="ccccccccccccccccccccccccccccc" /><path
       d="m 99.362771,504.44572 c 0,-7.843 -6.447,-14.2 -14.4,-14.2 l -56.239,0 c -7.953,0 -14.4,6.357 -14.4,14.2 l 0,56.639 c 0,7.842 6.447,14.2 14.4,14.2 l 56.239,0 c 7.953,0 14.4,-6.358 14.4,-14.2 l 0,-56.639 z"
       style="fill:none;stroke:#ff003f;stroke-width:0.82771653999999983;stroke-linecap:butt;stroke-linejoin:miter;stroke-miterlimit:4;stroke-opacity:1;stroke-dasharray:none"
       id="path2898" /><path
       d="m 194.60677,504.44572 c 0,-7.843 -6.447,-14.2 -14.4,-14.2 l -56.239,0 c -7.953,0 -14.4,6.357 -14.4,14.2 l 0,56.639 c 0,7.842 6.447,14.2 14.4,14.2 l 56.239,0 c 7.953,0 14.4,-6.358 14.4,-14.2 l 0,-56.639 z"
       style="fill:none;stroke:#ff003f;stroke-width:0.82771653999999983;stroke-linecap:butt;stroke-linejoin:miter;stroke-miterlimit:4;stroke-opacity:1;stroke-dasharray:none"
       id="path2900" /><path
       d="m 289.85077,504.44572 c 0,-7.843 -6.446,-14.2 -14.399,-14.2 l -56.24,0 c -7.953,0 -14.4,6.357 -14.4,14.2 l 0,56.639 c 0,7.842 6.447,14.2 14.4,14.2 l 56.24,0 c 7.953,0 14.399,-6.358 14.399,-14.2 l 0,-56.639 z"
       style="fill:none;stroke:#ff003f;stroke-width:0.82771653999999983;stroke-linecap:butt;stroke-linejoin:miter;stroke-miterlimit:4;stroke-opacity:1;stroke-dasharray:none"
       id="path2902" /><path
       d="m 385.09577,504.44572 c 0,-7.843 -6.447,-14.2 -14.4,-14.2 l -56.24,0 c -7.953,0 -14.4,6.357 -14.4,14.2 l 0,56.639 c 0,7.842 6.447,14.2 14.4,14.2 l 56.24,0 c 7.953,0 14.4,-6.358 14.4,-14.2 l 0,-56.639 z"
       style="fill:none;stroke:#ff003f;stroke-width:0.82771653999999983;stroke-linecap:butt;stroke-linejoin:miter;stroke-miterlimit:4;stroke-opacity:1;stroke-dasharray:none"
       id="path2904" /><path
       d="m 99.362771,409.48472 c 0,-7.842 -6.447,-14.2 -14.4,-14.2 l -56.24,0 c -7.953,0 -14.4,6.358 -14.4,14.2 l 0,56.639 c 0,7.842 6.447,14.2 14.4,14.2 l 56.24,0 c 7.953,0 14.4,-6.358 14.4,-14.2 l 0,-56.639 z"
       style="fill:none;stroke:#ff003f;stroke-width:0.82771653999999983;stroke-linecap:butt;stroke-linejoin:miter;stroke-miterlimit:4;stroke-opacity:1;stroke-dasharray:none"
       id="path2906" /><path
       d="m 194.60677,409.48472 c 0,-7.842 -6.447,-14.2 -14.4,-14.2 l -56.239,0 c -7.953,0 -14.401,6.358 -14.401,14.2 l 0,56.639 c 0,7.842 6.448,14.2 14.401,14.2 l 56.239,0 c 7.953,0 14.4,-6.358 14.4,-14.2 l 0,-56.639 z"
       style="fill:none;stroke:#ff003f;stroke-width:0.82771653999999983;stroke-linecap:butt;stroke-linejoin:miter;stroke-miterlimit:4;stroke-opacity:1;stroke-dasharray:none"
       id="path2908" /><path
       d="m 289.85077,409.48472 c 0,-7.842 -6.447,-14.2 -14.4,-14.2 l -56.239,0 c -7.953,0 -14.401,6.358 -14.401,14.2 l 0,56.639 c 0,7.842 6.448,14.2 14.401,14.2 l 56.239,0 c 7.953,0 14.4,-6.358 14.4,-14.2 l 0,-56.639 z"
       style="fill:none;stroke:#ff003f;stroke-width:0.82771653999999983;stroke-linecap:butt;stroke-linejoin:miter;stroke-miterlimit:4;stroke-opacity:1;stroke-dasharray:none"
       id="path2910" /><path
       d="m 385.09577,409.48472 c 0,-7.842 -6.448,-14.2 -14.401,-14.2 l -56.239,0 c -7.953,0 -14.4,6.358 -14.4,14.2 l 0,56.639 c 0,7.842 6.447,14.2 14.4,14.2 l 56.239,0 c 7.953,0 14.401,-6.358 14.401,-14.2 l 0,-56.639 z"
       style="fill:none;stroke:#ff003f;stroke-width:0.82771653999999983;stroke-linecap:butt;stroke-linejoin:miter;stroke-miterlimit:4;stroke-opacity:1;stroke-dasharray:none"
       id="path2912" /><path
       d="m 481.47477,504.44572 c 0,-7.843 -6.447,-14.2 -14.4,-14.2 l -56.24,0 c -7.953,0 -14.401,6.357 -14.401,14.2 l 0,56.639 c 0,7.842 6.448,14.2 14.401,14.2 l 56.24,0 c 7.953,0 14.4,-6.358 14.4,-14.2 l 0,-56.639 z"
       style="fill:none;stroke:#ff003f;stroke-width:0.82771653999999983;stroke-linecap:butt;stroke-linejoin:miter;stroke-miterlimit:4;stroke-opacity:1;stroke-dasharray:none"
       id="path2914" /><path
       d="m 576.71977,504.44572 c 0,-7.843 -6.446,-14.2 -14.399,-14.2 l -56.24,0 c -7.953,0 -14.4,6.357 -14.4,14.2 l 0,56.639 c 0,7.842 6.447,14.2 14.4,14.2 l 56.24,0 c 7.953,0 14.399,-6.358 14.399,-14.2 l 0,-56.639 z"
       style="fill:none;stroke:#ff003f;stroke-width:0.82771653999999983;stroke-linecap:butt;stroke-linejoin:miter;stroke-miterlimit:4;stroke-opacity:1;stroke-dasharray:none"
       id="path2916" /><path
       d="m 671.96577,504.44572 c 0,-7.843 -6.448,-14.2 -14.401,-14.2 l -56.24,0 c -7.953,0 -14.4,6.357 -14.4,14.2 l 0,56.639 c 0,7.842 6.447,14.2 14.4,14.2 l 56.24,0 c 7.953,0 14.401,-6.358 14.401,-14.2 l 0,-56.639 z"
       style="fill:none;stroke:#ff003f;stroke-width:0.82771653999999983;stroke-linecap:butt;stroke-linejoin:miter;stroke-miterlimit:4;stroke-opacity:1;stroke-dasharray:none"
       id="path2918" /><path
       d="m 767.20977,504.44572 c 0,-7.843 -6.447,-14.2 -14.401,-14.2 l -56.238,0 c -7.953,0 -14.4,6.357 -14.4,14.2 l 0,56.639 c 0,7.842 6.447,14.2 14.4,14.2 l 56.238,0 c 7.954,0 14.401,-6.358 14.401,-14.2 l 0,-56.639 z"
       style="fill:none;stroke:#ff003f;stroke-width:0.82771653999999983;stroke-linecap:butt;stroke-linejoin:miter;stroke-miterlimit:4;stroke-opacity:1;stroke-dasharray:none"
       id="path2920" /><path
       d="m 481.47477,409.48472 c 0,-7.842 -6.447,-14.2 -14.4,-14.2 l -56.24,0 c -7.953,0 -14.401,6.358 -14.401,14.2 l 0,56.639 c 0,7.842 6.448,14.2 14.401,14.2 l 56.24,0 c 7.953,0 14.4,-6.358 14.4,-14.2 l 0,-56.639 z"
       style="fill:none;stroke:#ff003f;stroke-width:0.82771653999999983;stroke-linecap:butt;stroke-linejoin:miter;stroke-miterlimit:4;stroke-opacity:1;stroke-dasharray:none"
       id="path2922" /><path
       d="m 576.71977,409.48472 c 0,-7.842 -6.448,-14.2 -14.401,-14.2 l -56.238,0 c -7.955,0 -14.402,6.358 -14.402,14.2 l 0,56.639 c 0,7.842 6.447,14.2 14.402,14.2 l 56.238,0 c 7.953,0 14.401,-6.358 14.401,-14.2 l 0,-56.639 z"
       style="fill:none;stroke:#ff003f;stroke-width:0.82771653999999983;stroke-linecap:butt;stroke-linejoin:miter;stroke-miterlimit:4;stroke-opacity:1;stroke-dasharray:none"
       id="path2924" /><path
       d="m 671.96577,409.48472 c 0,-7.842 -6.448,-14.2 -14.401,-14.2 l -56.24,0 c -7.953,0 -14.4,6.358 -14.4,14.2 l 0,56.639 c 0,7.842 6.447,14.2 14.4,14.2 l 56.24,0 c 7.953,0 14.401,-6.358 14.401,-14.2 l 0,-56.639 z"
       style="fill:none;stroke:#ff003f;stroke-width:0.82771653999999983;stroke-linecap:butt;stroke-linejoin:miter;stroke-miterlimit:4;stroke-opacity:1;stroke-dasharray:none"
       id="path2926" /><path
       d="m 767.20977,409.48472 c 0,-7.842 -6.447,-14.2 -14.401,-14.2 l -56.24,0 c -7.953,0 -14.4,6.358 -14.4,14.2 l 0,56.639 c 0,7.842 6.447,14.2 14.4,14.2 l 56.24,0 c 7.954,0 14.401,-6.358 14.401,-14.2 l 0,-56.639 z"
       style="fill:none;stroke:#ff003f;stroke-width:0.82771653999999983;stroke-linecap:butt;stroke-linejoin:miter;stroke-miterlimit:4;stroke-opacity:1;stroke-dasharray:none"
       id="path2928" /><path
       d="m 482.03977,315.94172 c 0,-7.842 -6.447,-14.199 -14.4,-14.199 l -56.24,0 c -7.954,0 -14.399,6.357 -14.399,14.199 l 0,56.641 c 0,7.841 6.445,14.199 14.399,14.199 l 56.24,0 c 7.953,0 14.4,-6.358 14.4,-14.199 l 0,-56.641 z"
       style="fill:none;stroke:#ff003f;stroke-width:0.82771653999999983;stroke-linecap:butt;stroke-linejoin:miter;stroke-miterlimit:4;stroke-opacity:1;stroke-dasharray:none"
       id="path2930" /><path
       d="m 577.28377,315.94172 c 0,-7.842 -6.447,-14.199 -14.4,-14.199 l -56.239,0 c -7.953,0 -14.4,6.357 -14.4,14.199 l 0,56.641 c 0,7.841 6.447,14.199 14.4,14.199 l 56.239,0 c 7.953,0 14.4,-6.358 14.4,-14.199 l 0,-56.641 z"
       style="fill:none;stroke:#ff003f;stroke-width:0.82771653999999983;stroke-linecap:butt;stroke-linejoin:miter;stroke-miterlimit:4;stroke-opacity:1;stroke-dasharray:none"
       id="path2932" /><path
       d="m 672.52777,315.94172 c 0,-7.842 -6.447,-14.199 -14.4,-14.199 l -56.238,0 c -7.954,0 -14.401,6.357 -14.401,14.199 l 0,56.641 c 0,7.841 6.447,14.199 14.401,14.199 l 56.238,0 c 7.953,0 14.4,-6.358 14.4,-14.199 l 0,-56.641 z"
       style="fill:none;stroke:#ff003f;stroke-width:0.82771653999999983;stroke-linecap:butt;stroke-linejoin:miter;stroke-miterlimit:4;stroke-opacity:1;stroke-dasharray:none"
       id="path2934" /><path
       d="m 767.77177,315.94172 c 0,-7.842 -6.447,-14.199 -14.4,-14.199 l -56.238,0 c -7.953,0 -14.401,6.357 -14.401,14.199 l 0,56.641 c 0,7.841 6.448,14.199 14.401,14.199 l 56.238,0 c 7.953,0 14.4,-6.358 14.4,-14.199 l 0,-56.641 z"
       style="fill:none;stroke:#ff003f;stroke-width:0.82771653999999983;stroke-linecap:butt;stroke-linejoin:miter;stroke-miterlimit:4;stroke-opacity:1;stroke-dasharray:none"
       id="path2936" /><path
       d="m 482.03977,220.98072 c 0,-7.844 -6.447,-14.201 -14.4,-14.201 l -56.24,0 c -7.954,0 -14.401,6.357 -14.401,14.201 l 0,56.639 c 0,7.841 6.447,14.199 14.401,14.199 l 56.24,0 c 7.953,0 14.4,-6.358 14.4,-14.199 l 0,-56.639 z"
       style="fill:none;stroke:#ff003f;stroke-width:0.82771653999999983;stroke-linecap:butt;stroke-linejoin:miter;stroke-miterlimit:4;stroke-opacity:1;stroke-dasharray:none"
       id="path2938" /><path
       d="m 577.28377,220.98072 c 0,-7.844 -6.447,-14.201 -14.4,-14.201 l -56.241,0 c -7.953,0 -14.4,6.357 -14.4,14.201 l 0,56.639 c 0,7.841 6.447,14.199 14.4,14.199 l 56.241,0 c 7.953,0 14.4,-6.358 14.4,-14.199 l 0,-56.639 z"
       style="fill:none;stroke:#ff003f;stroke-width:0.82771653999999983;stroke-linecap:butt;stroke-linejoin:miter;stroke-miterlimit:4;stroke-opacity:1;stroke-dasharray:none"
       id="path2940" /><path
       d="m 672.52777,220.98072 c 0,-7.844 -6.447,-14.201 -14.4,-14.201 l -56.24,0 c -7.954,0 -14.401,6.357 -14.401,14.201 l 0,56.639 c 0,7.841 6.447,14.199 14.401,14.199 l 56.24,0 c 7.953,0 14.4,-6.358 14.4,-14.199 l 0,-56.639 z"
       style="fill:none;stroke:#ff003f;stroke-width:0.82771653999999983;stroke-linecap:butt;stroke-linejoin:miter;stroke-miterlimit:4;stroke-opacity:1;stroke-dasharray:none"
       id="path2942" /><path
       d="m 100.49277,597.98772 c 0,-7.842 -6.446999,-14.199 -14.399999,-14.199 l -56.239,0 c -7.953,0 -14.401,6.357 -14.401,14.199 l 0,56.64 c 0,7.842 6.448,14.199 14.401,14.199 l 56.239,0 c 7.953,0 14.399999,-6.357 14.399999,-14.199 l 0,-56.64 z"
       style="fill:none;stroke:#ff003f;stroke-width:0.82771653999999983;stroke-linecap:butt;stroke-linejoin:miter;stroke-miterlimit:4;stroke-opacity:1;stroke-dasharray:none"
       id="path2944" /><path
       d="m 195.73677,597.98772 c 0,-7.842 -6.447,-14.199 -14.4,-14.199 l -56.239,0 c -7.953,0 -14.4,6.357 -14.4,14.199 l 0,56.64 c 0,7.842 6.447,14.199 14.4,14.199 l 56.239,0 c 7.953,0 14.4,-6.357 14.4,-14.199 l 0,-56.64 z"
       style="fill:none;stroke:#ff003f;stroke-width:0.82771653999999983;stroke-linecap:butt;stroke-linejoin:miter;stroke-miterlimit:4;stroke-opacity:1;stroke-dasharray:none"
       id="path2946" /><path
       d="m 290.98077,597.98772 c 0,-7.842 -6.446,-14.199 -14.4,-14.199 l -56.239,0 c -7.953,0 -14.4,6.357 -14.4,14.199 l 0,56.64 c 0,7.842 6.447,14.199 14.4,14.199 l 56.239,0 c 7.954,0 14.4,-6.357 14.4,-14.199 l 0,-56.64 z"
       style="fill:none;stroke:#ff003f;stroke-width:0.82771653999999983;stroke-linecap:butt;stroke-linejoin:miter;stroke-miterlimit:4;stroke-opacity:1;stroke-dasharray:none"
       id="path2948" /><path
       d="m 386.22477,597.98772 c 0,-7.842 -6.446,-14.199 -14.399,-14.199 l -56.24,0 c -7.953,0 -14.401,6.357 -14.401,14.199 l 0,56.64 c 0,7.842 6.448,14.199 14.401,14.199 l 56.24,0 c 7.953,0 14.399,-6.357 14.399,-14.199 l 0,-56.64 z"
       style="fill:none;stroke:#ff003f;stroke-width:0.82771653999999983;stroke-linecap:butt;stroke-linejoin:miter;stroke-miterlimit:4;stroke-opacity:1;stroke-dasharray:none"
       id="path2950" /><path
       d="m 482.60377,597.98772 c 0,-7.842 -6.447,-14.199 -14.4,-14.199 l -56.24,0 c -7.953,0 -14.401,6.357 -14.401,14.199 l 0,56.64 c 0,7.842 6.448,14.199 14.401,14.199 l 56.24,0 c 7.953,0 14.4,-6.357 14.4,-14.199 l 0,-56.64 z"
       style="fill:none;stroke:#ff003f;stroke-width:0.82771653999999983;stroke-linecap:butt;stroke-linejoin:miter;stroke-miterlimit:4;stroke-opacity:1;stroke-dasharray:none"
       id="path2952" /><path
       d="m 577.84777,597.98772 c 0,-7.842 -6.445,-14.199 -14.398,-14.199 l -56.24,0 c -7.953,0 -14.401,6.357 -14.401,14.199 l 0,56.64 c 0,7.842 6.448,14.199 14.401,14.199 l 56.24,0 c 7.953,0 14.398,-6.357 14.398,-14.199 l 0,-56.64 z"
       style="fill:none;stroke:#ff003f;stroke-width:0.82771653999999983;stroke-linecap:butt;stroke-linejoin:miter;stroke-miterlimit:4;stroke-opacity:1;stroke-dasharray:none"
       id="path2954" /><path
       d="m 673.09477,597.98772 c 0,-7.842 -6.448,-14.199 -14.401,-14.199 l -56.24,0 c -7.953,0 -14.4,6.357 -14.4,14.199 l 0,56.64 c 0,7.842 6.447,14.199 14.4,14.199 l 56.24,0 c 7.953,0 14.401,-6.357 14.401,-14.199 l 0,-56.64 z"
       style="fill:none;stroke:#ff003f;stroke-width:0.82771653999999983;stroke-linecap:butt;stroke-linejoin:miter;stroke-miterlimit:4;stroke-opacity:1;stroke-dasharray:none"
       id="path2956" /><path
       d="m 768.33877,597.98772 c 0,-7.842 -6.448,-14.199 -14.401,-14.199 l -56.238,0 c -7.953,0 -14.4,6.357 -14.4,14.199 l 0,56.64 c 0,7.842 6.447,14.199 14.4,14.199 l 56.238,0 c 7.953,0 14.401,-6.357 14.401,-14.199 l 0,-56.64 z"
       style="fill:none;stroke:#ff003f;stroke-width:0.82771653999999983;stroke-linecap:butt;stroke-linejoin:miter;stroke-miterlimit:4;stroke-opacity:1;stroke-dasharray:none"
       id="path2958" /><path
       d="m 768.33877,220.98072 c 0,-7.844 -6.448,-14.201 -14.401,-14.201 l -56.24,0 c -7.953,0 -14.4,6.357 -14.4,14.201 l 0,56.639 c 0,7.841 6.447,14.199 14.4,14.199 l 56.24,0 c 7.953,0 14.401,-6.358 14.401,-14.199 l 0,-56.639 z"
       style="fill:none;stroke:#ff003f;stroke-width:0.82771653999999983;stroke-linecap:butt;stroke-linejoin:miter;stroke-miterlimit:4;stroke-opacity:1;stroke-dasharray:none"
       id="path2960" /><path
       id="path2860-3"
       style="fill:none;stroke:#ff003f;stroke-width:0.82771653999999983;stroke-linecap:butt;stroke-linejoin:miter;stroke-miterlimit:4;stroke-opacity:1;stroke-dasharray:none"
       d="m 32.598425,269.29137 c 0,0 -10e-6,-53.85827 -10e-6,-53.85827 0,0 -9.92548,-2.83464 -9.92548,-2.83464 l -9.375,0 0,4.575 c 0,-7.7e-4 12.725,2.825 12.725,2.825 l 0.006,12.44252 c 0,0 -11.85649,-0.005 -11.85571,-0.006 l 0,5.675 5.68071,0.006 -0.0174,90.70295 9.925,0 0,8.5 5.66634,-0.007 0,42.51969 2.83464,-8.50394 0,-34.01575 5.67445,0.007 0,-8.5 9.9,0 0.0173,-90.70295 5.67329,-0.006 0,-5.675 c 7.9e-4,8e-4 -11.84829,0.006 -11.84829,0.006 l -0.006,-12.44252 c 0,0 12.725,-2.82577 12.725,-2.825 l 0,-4.575 -9.375,0 c 0,0 -9.92091,2.83464 -9.92091,2.83464 -0.005,-0.005 -2.4e-4,53.85827 -2.4e-4,53.85827 0,0 -8.50369,0 -8.50369,0 z"
       sodipodi:nodetypes="ccccccccccccccccccccccccccccccc" /><path
       id="path2860-3-4-7"
       style="fill:none;stroke:#ff003f;stroke-width:0.82771653999999983;stroke-linecap:butt;stroke-linejoin:miter;stroke-miterlimit:4;stroke-opacity:1;stroke-dasharray:none"
       d="m 459.21261,41.64439 c 0,0 11.33857,0.87534 11.33857,0.87534 0,0 2.03877,-2.03877 2.83465,-2.83465 2.0044,-2.0044 5.66929,-0.54199 5.66929,-0.54199 l 8.50394,-5.6693 8.50394,-14.173221 2.83464,1.41731 -2.83464,18.425191 c 0,0 3.00709,8.45664 2.83464,12.7559 -0.11975,2.985579 0,2.834669 -2.83464,8.503929 -0.7484,1.5302 -2.83465,4.28377 -2.83465,4.25197 -2.83464,2.126 -22.69921,-3.87004 -22.67717,-3.70995 0.022,0.16009 -4.31974,3.76625 -5.66929,0 -1.5236,-4.25197 5.66929,-2.30141 5.66929,-2.83464 0,-0.53323 0,-6.211329 0,-6.211329 0,0 -5.66929,5e-5 -11.33858,5e-5 0,0 -4.37019,2.701879 -5.66929,4.251969 -22.67717,14.17323 -67.89597,7.20031 -87.87401,13.29789 l 0,-8.49972 c 0,0 2.83464,-9.925469 2.83464,-9.925469 0,0 36.85039,-1e-5 36.85039,-1e-5 0,0 0,-8.50393 0,-8.50393 0,0 -36.85039,0 -36.85039,0 0,0 -2.83464,-9.92548 -2.83464,-9.92548 l 0,-8.499721 c 19.97804,6.09758 65.19684,-0.87534 87.87401,13.297891 1.29911,1.55009 5.6693,4.25197 5.6693,4.25197 z"
       sodipodi:nodetypes="ccscccccsccsssccccccccccccc" /><path
       id="path2860-3-4-7-6"
       style="fill:none;stroke:#ff003f;stroke-width:0.82771653999999983;stroke-linecap:butt;stroke-linejoin:miter;stroke-miterlimit:4;stroke-opacity:1;stroke-dasharray:none"
       d="m 729.92125,42.519722 c -10e-6,0 -42.51968,0 -42.51968,0 0,0 0,8.503945 0,8.503945 0,0 42.51967,0 42.51968,0 -19.84252,19.842509 -62.36218,12.755909 -82.2047,18.425179 0,1e-5 0,-8.49971 0,-8.49971 0,0 2.83463,-9.925469 2.83463,-9.925469 0,0 0,-8.503945 0,-8.503945 0,0 -2.83463,-9.92548 -2.83463,-9.92548 0,0 0,-8.499721 0,-8.499721 19.84252,5.66929 62.36218,-1.41732 82.2047,18.425201 z"
       sodipodi:nodetypes="ccccccccccc" /><path
       id="path4128-5"
       style="fill:none;stroke:#ff003f;stroke-width:0.82771653999999983;stroke-miterlimit:4;stroke-opacity:1;stroke-dasharray:none;stroke-dashoffset:0"
       d="m 172.91337,249.44885 c 0,6.26212 -3.41595,11.33858 -8.50393,11.33858 -5.08798,0 -8.50394,-5.07646 -8.50394,-11.33858 0,-6.26213 3.41596,-11.33859 8.50394,-11.33859 5.08798,0 8.50393,5.07646 8.50393,11.33859 z m -4.25196,19.84252 c 7.08661,0 14.17322,-8.50394 14.17322,-19.84252 0,-10.95872 -7.14919,-19.8425 -17.71653,-19.8425 -10.56734,0 -19.13386,8.88379 -19.13386,19.84251 0,11.33858 7.08662,19.84251 14.17323,19.84251 0,0 0,31.18113 0,31.18112 -19.84252,19.84252 -12.75591,62.36218 -18.42519,82.20471 -1e-5,0 8.49972,0 8.49972,0 0,0 9.92548,-2.83465 9.92548,-2.83465 0,0 -1e-5,-36.85039 -1e-5,-36.85039 0,0 8.50393,0 8.50393,0 0,0 1e-5,36.85039 1e-5,36.85039 0,0 9.92548,2.83465 9.92548,2.83465 0,0 8.49972,0 8.49972,0 -5.66929,-19.84253 1.41732,-62.36219 -18.4252,-82.20471 0,1e-5 0,-31.18112 0,-31.18112 z"
       sodipodi:nodetypes="csccscssccssccccccccc" /><path
       id="path4201-4"
       style="fill:none;stroke:#ff003f;stroke-width:0.82771653999999983;stroke-linecap:butt;stroke-linejoin:miter;stroke-miterlimit:4;stroke-opacity:1;stroke-dasharray:none"
       d="m 126.14173,252.2835 -8.50394,0 c 0,0 0,45.35433 3e-5,56.69291 0,0 -4.25196,2.7459 -4.25196,5.6693 0,2.83465 4.25196,5.66929 4.25196,5.66929 0,0 -0.044,12.30795 -0.044,12.30795 0,0 -7.7779,2.49028 -8.36049,7.40501 -0.11618,0.30051 7.30959,0.20971 8.12162,6.21066 -3.26776,2.38735 -9.25351,3.50131 -13.85454,-2.14984 -1.76571,-1.99759 -5.732909,-6.92727 6.04756,-18.71063 -4.32588,-2.64689 -9.13288,-17.41439 1.19435,-25.14454 -7.80991,-9.07672 -0.93283,-15.5022 -0.19114,-16.76901 -12.755909,-17.00787 -8.50394,-60.94487 -11.338579,-70.86614 -1e-5,0 8.499719,0 8.499719,0 0,0 9.91948,1.72284 9.91948,1.72284 0,0 8.51593,-1e-5 8.51593,-1e-5 0,0 9.91948,-1.72283 9.91948,-1.72283 0,0 8.49973,0 8.49972,0 -2.83464,9.92126 1.41733,53.85826 -11.33858,70.86614 0.74169,1.26681 7.61877,7.69228 -0.19114,16.769 10.32723,7.73014 5.52023,22.49765 1.19435,25.14453 11.78046,11.78336 7.81326,16.71304 6.04756,18.71064 -4.60103,5.65115 -10.58678,4.53719 -13.85454,2.14984 0.81203,-6.00096 8.2378,-5.91016 8.12162,-6.21066 -0.58259,-4.91474 -8.3605,-7.40502 -8.3605,-7.40502 0,0 -0.044,-12.30795 -0.044,-12.30795 0,0 4.25197,-2.83464 4.25197,-5.66929 0,-2.9234 -4.25197,-5.66929 -4.25197,-5.66929 l 3e-5,-56.6929 z m 7.32955,93.29821 c 0.13637,-0.42824 -0.57017,-1.2178 -1.01521,-1.07492 -0.44504,0.14288 -0.5012,1.01108 -0.17915,1.31379 0.29583,0.27807 1.05799,0.18937 1.19436,-0.23887 z m -23.16303,1e-5 c -0.13637,-0.42824 0.57017,-1.2178 1.01521,-1.07492 0.44504,0.14288 0.5012,1.01108 0.17915,1.3138 -0.29583,0.27807 -1.05799,0.18936 -1.19436,-0.23888 z"
       sodipodi:nodetypes="cccsccccccccsccccsccccccccscccssccssc" /><path
       id="path2860-3-4-7-0-9-38-0"
       style="fill:none;stroke:#ff003f;stroke-width:0.82771653999999983;stroke-linecap:butt;stroke-linejoin:miter;stroke-miterlimit:4;stroke-opacity:1;stroke-dasharray:none"
       d="m 334.34702,309.14175 c 0.0388,0.85261 -30.92914,0.85262 -30.89038,10e-6 0.0388,-0.85261 -1.5105,-1.5639 -1.44406,-3.02552 0.0664,-1.46161 -0.36278,-1.13993 -0.27974,-2.96695 0.083,-1.82702 2.90717,-0.72798 2.99576,-2.6768 0.0886,-1.94881 -2.8962,-1.03373 -2.81315,-2.86075 0.083,-1.82702 2.74672,-1.34693 2.81315,-2.80854 0.0664,-1.46162 -2.8734,-1.98206 -2.83465,-2.83467 0.0387,-0.85261 2.89437,-2.80674 2.89437,-2.80674 0,0 -0.0597,-2.86255 -0.0597,-2.86255 -7.08662,-2.83465 -11.33859,-14.17323 -11.33859,-19.84252 0,0 -0.73317,-36.09681 0,-51.02362 0,-2.83465 2.12599,-2.83464 2.83466,-2.83464 l 8.49972,0 c 0,0 9.92547,2.83464 9.92547,2.83464 0,0 1e-5,36.8504 1e-5,36.8504 0,0 8.50393,-1e-5 8.50393,-1e-5 0,0 1e-5,-36.8504 1e-5,-36.8504 0,0 9.92547,-2.83464 9.92547,-2.83464 l 8.49972,0 c 0.70866,0 2.83465,-1e-5 2.83465,2.83464 0.73318,14.92681 0,51.02362 0,51.02362 0,5.66929 -4.25197,17.00787 -11.33858,19.84252 0,0 -0.0597,2.86255 -0.0597,2.86255 0,0 2.85561,1.95413 2.89436,2.80674 0.0388,0.85261 -2.90113,1.37306 -2.83469,2.83468 0.0664,1.46161 2.73015,0.98151 2.8132,2.80853 0.0831,1.82702 -2.90178,0.91195 -2.8132,2.86076 0.0886,1.94882 2.91276,0.84977 2.9958,2.67679 0.0831,1.82702 -0.34617,1.50534 -0.27973,2.96695 0.0664,1.46162 -1.48283,2.17291 -1.44407,3.02552 l -4e-5,0 z"
       sodipodi:nodetypes="ccssssssccccccccccccccccsssssscc" /><path
       id="path2860-3-4-7-0-9-38-0-5"
       style="fill:none;stroke:#ff003f;stroke-width:0.82771653999999983;stroke-linecap:butt;stroke-linejoin:miter;stroke-miterlimit:4;stroke-opacity:1;stroke-dasharray:none"
       d="m 212.59442,388.3465 c -12.75591,0 -21.25985,-22.67717 -21.25985,-28.34646 0,0 -0.72896,-13.41965 0.004,-28.34646 0,-2.83465 2.12599,-2.83464 2.83466,-2.83464 l 8.49972,0 c 0,0 9.92547,2.83464 9.92547,2.83464 0,0 8.50395,-10e-6 8.50395,-10e-6 0,0 9.92546,-2.83464 9.92546,-2.83464 l 8.49973,0 c 0.70866,0 2.83465,0 2.83465,2.83464 0.73317,14.92681 -0.004,28.34647 -0.004,28.34647 0,5.66929 -8.50396,28.34646 -21.25984,28.34646 l 7.1e-4,0.0677 -7.4e-4,-19.91018 0,0 -8.50393,0 c 0,0 0,0 0,19.84252 z"
       sodipodi:nodetypes="cccccccccccc" /><path
       id="path2860-3-4-7-0-9-8"
       style="fill:none;stroke:#ff003f;stroke-width:0.82771653999999983;stroke-linecap:butt;stroke-linejoin:miter;stroke-miterlimit:4;stroke-opacity:1;stroke-dasharray:none"
       d="m 229.6063,323.14963 c 0,0 -31.1811,10e-6 -31.1811,10e-6 0,0 2.83464,-2.83465 2.83464,-2.83465 0,0 0,-22.67716 0,-22.67716 -17.54388,-71.40965 -24.09449,-82.20474 -9.92126,-85.03937 l 8.49972,0 c 0,0 9.92547,2.83464 9.92547,2.83464 0,0 1e-5,36.85041 1e-5,36.85041 0,0 8.50394,-1e-5 8.50394,-1e-5 0,0 1e-5,-36.85041 1e-5,-36.85041 0,0 9.92547,-2.83464 9.92547,-2.83464 l 8.49972,0 c 14.17323,2.83464 7.62262,13.62972 -9.92126,85.03937 0,0 0,22.67716 0,22.67716 0,0 2.83464,2.83465 2.83464,2.83465 z"
       sodipodi:nodetypes="ccccccccccccccc" /><path
       id="path2860-3-4-7-0-9-3-3"
       style="fill:none;stroke:#ff003f;stroke-width:0.82771653999999983;stroke-linecap:butt;stroke-linejoin:miter;stroke-miterlimit:4;stroke-opacity:1;stroke-dasharray:none"
       d="m 282.05146,212.59847 c 0,0 -11.3428,-1e-5 -11.3428,-1e-5 0,0 0,70.86613 0,70.86613 0,0 -8.50394,0 -8.50394,0 0,0 0,-70.86613 0,-70.86613 0,0 -11.33435,0 -11.33435,0 0,0 2.83464,2.83465 2.83464,2.83465 0,0 0,22.67716 0,22.67716 -17.54388,71.40964 -24.0945,82.20473 -9.92127,85.03936 l 8.49972,0 c 0,0 9.92547,-2.83464 9.92547,-2.83464 0,0 8.50396,10e-6 8.50396,10e-6 0,0 9.92547,2.83464 9.92547,2.83464 l 8.49972,0 c 14.17324,-2.83464 7.62262,-13.62972 -9.92126,-85.03936 0,0 0,-22.67716 0,-22.67716 0,0 2.83464,-2.83465 2.83464,-2.83465 z"
       sodipodi:nodetypes="ccccccccccccccccc" /><path
       id="path2860-3-4-7-0-9-38-0-5-8"
       style="fill:none;stroke:#ff003f;stroke-width:0.82771653999999983;stroke-linecap:butt;stroke-linejoin:miter;stroke-miterlimit:4;stroke-opacity:1;stroke-dasharray:none"
       d="m 272.12619,388.3465 c -12.75591,0 -21.25985,-22.67717 -21.25985,-28.34646 0,0 -0.72896,-13.41965 0.004,-28.34646 0,-2.83465 2.12599,-2.83464 2.83466,-2.83464 l 8.49972,0 c 0,0 9.92547,2.83464 9.92547,2.83464 0,0 8.50395,-10e-6 8.50395,-10e-6 0,0 9.92546,-2.83464 9.92546,-2.83464 l 8.49973,0 c 0.70866,0 2.83465,0 2.83465,2.83464 0.73317,14.92681 -0.004,28.34647 -0.004,28.34647 0,5.66929 -8.50396,28.34646 -21.25984,28.34646 l 7.1e-4,0.0677 -7.4e-4,-19.91018 0,0 -8.50393,0 c 0,0 0,0 0,19.84252 z"
       sodipodi:nodetypes="cccccccccccc" /><path
       id="path2860-3-4-7-0-9-38-0-0"
       style="fill:none;stroke:#ff003f;stroke-width:0.82771653999999983;stroke-linecap:butt;stroke-linejoin:miter;stroke-miterlimit:4;stroke-opacity:1;stroke-dasharray:none"
       d="m 376.8667,288.96856 c 0.0388,-0.85261 -30.92914,-0.85262 -30.89038,-1e-5 0.0388,0.85261 -1.5105,1.5639 -1.44406,3.02552 0.0664,1.46161 -0.36278,1.13993 -0.27974,2.96695 0.083,1.82702 2.90717,0.72798 2.99576,2.6768 0.0886,1.94881 -2.8962,1.03373 -2.81314,2.86075 0.083,1.82702 2.74671,1.34693 2.81314,2.80854 0.0664,1.46162 -2.8734,1.98206 -2.83464,2.83467 0.0387,0.85261 2.89436,2.80674 2.89436,2.80674 0,0 -0.0597,2.86255 -0.0597,2.86255 -7.08662,2.83465 -11.33859,14.17323 -11.33859,19.84252 0,0 -0.73317,36.09681 0,51.02362 0,2.83465 2.12599,2.83464 2.83466,2.83464 l 8.49972,0 c 0,0 9.92547,-2.83464 9.92547,-2.83464 0,0 1e-5,-36.8504 1e-5,-36.8504 0,0 8.50393,10e-6 8.50393,10e-6 0,0 1e-5,36.8504 1e-5,36.8504 0,0 9.92547,2.83464 9.92547,2.83464 l 8.49972,0 c 0.70866,0 2.83465,10e-6 2.83465,-2.83464 0.73318,-14.92681 0,-51.02362 0,-51.02362 0,-5.66929 -4.25197,-17.00787 -11.33858,-19.84252 0,0 -0.0597,-2.86255 -0.0597,-2.86255 0,0 2.85561,-1.95413 2.89436,-2.80674 0.0388,-0.85261 -2.90113,-1.37306 -2.83469,-2.83468 0.0664,-1.46161 2.73015,-0.98151 2.8132,-2.80853 0.0831,-1.82702 -2.90178,-0.91195 -2.8132,-2.86076 0.0886,-1.94882 2.91276,-0.84977 2.9958,-2.67679 0.0831,-1.82702 -0.34617,-1.50534 -0.27973,-2.96695 0.0664,-1.46162 -1.48283,-2.17291 -1.44407,-3.02552 l -4e-5,0 z"
       sodipodi:nodetypes="ccssssssccccccccccccccccsssssscc" /><path
       id="path2860-3-4-7-0-9-8-9"
       style="fill:none;stroke:#ff003f;stroke-width:0.82771653999999983;stroke-linecap:butt;stroke-linejoin:miter;stroke-miterlimit:4;stroke-opacity:1;stroke-dasharray:none"
       d="m 59.527562,209.76381 c 0,0 -31.1811,1e-5 -31.1811,1e-5 0,0 2.83464,-2.83465 2.83464,-2.83465 0,0 0,-22.67716 0,-22.67716 -17.54388,-71.40965 -24.0944894,-82.20474 -9.92126,-85.039369 l 8.49972,0 c 0,0 9.92547,2.834639 9.92547,2.834639 0,0 1e-5,36.85041 1e-5,36.85041 0,0 8.50394,-1e-5 8.50394,-1e-5 0,0 10e-6,-36.85041 10e-6,-36.85041 0,0 9.92547,-2.834639 9.92547,-2.834639 l 8.49972,0 c 14.173235,2.834639 7.62262,13.629719 -9.92126,85.039369 0,0 0,22.67716 0,22.67716 0,0 2.83464,2.83465 2.83464,2.83465 z"
       sodipodi:nodetypes="ccccccccccccccc" /><path
       id="path2860-3-4-7-0-9-3-3-1"
       style="fill:none;stroke:#ff003f;stroke-width:0.82771653999999983;stroke-linecap:butt;stroke-linejoin:miter;stroke-miterlimit:4;stroke-opacity:1;stroke-dasharray:none"
       d="m 111.97272,99.212653 c 0,0 -11.3428,-1e-5 -11.3428,-1e-5 0,0 0,70.866127 0,70.866127 0,0 -8.503939,0 -8.503939,0 0,0 0,-70.866127 0,-70.866127 0,0 -11.334347,0 -11.334347,0 0,0 2.83464,2.834647 2.83464,2.834647 0,0 0,22.67716 0,22.67716 -17.54388,71.40964 -24.0945,82.20473 -9.92127,85.03936 l 8.49972,0 c 0,0 9.925467,-2.83464 9.925467,-2.83464 0,0 8.503959,1e-5 8.503959,1e-5 0,0 9.92547,2.83464 9.92547,2.83464 l 8.49972,0 c 14.17324,-2.83464 7.62262,-13.62972 -9.92126,-85.03936 0,0 0,-22.67716 0,-22.67716 0,0 2.83464,-2.834647 2.83464,-2.834647 z"
       sodipodi:nodetypes="ccccccccccccccccc" /><path
       id="path2860-3-4-7-0-9-0-2-9"
       style="fill:none;stroke:#ff003f;stroke-width:0.82771653999999983;stroke-linecap:butt;stroke-linejoin:miter;stroke-miterlimit:4;stroke-opacity:1;stroke-dasharray:none"
       d="m 238.11867,144.56697 c 0,0 -8.50394,0 -8.50394,0 0,0 -0.0127,-42.51969 -0.0127,-42.51969 0,0 -9.92547,-2.834644 -9.92547,-2.834644 l -14.16478,0 c 0,0 0.009,107.716544 0.009,107.716544 0,0 56.6929,0 56.6929,0 0,0 -0.009,-107.716544 -0.009,-107.716544 l -14.17323,0 c 0,0 -9.92546,2.834644 -9.92546,2.834644 0,0 0.0127,42.51969 0.0127,42.51969 l -2e-5,0 z"
       sodipodi:nodetypes="cccccccccccc" /><path
       id="path2860-3-4-7-0-9-0-2-2-6"
       style="fill:none;stroke:#ff003f;stroke-width:0.82771653999999983;stroke-linecap:butt;stroke-linejoin:miter;stroke-miterlimit:4;stroke-opacity:1;stroke-dasharray:none"
       d="m 165.82254,102.04728 c 0,0 -9.92547,-2.834644 -9.92547,-2.834644 l -14.16478,0 c 0,0 0.008,107.716544 0.008,107.716544 0,0 24.09448,0 24.09448,0 0,0 0,-62.36221 0,-62.36221 0,0 8.50394,0 8.50394,0 0,0 0,62.36221 0,62.36221 0,0 24.09449,0 24.09449,0 0,0 -0.008,-107.716544 -0.008,-107.716544 l -14.17323,0 c 0,0 -9.92547,2.834644 -9.92547,2.834644 0,0 -8.50396,0 -8.50396,0 z"
       sodipodi:nodetypes="ccccccccccccc" /><path
       id="path2860-3-4-7-0-9-0-2-5"
       style="fill:none;stroke:#ff003f;stroke-width:0.82771653999999983;stroke-linecap:butt;stroke-linejoin:miter;stroke-miterlimit:4;stroke-opacity:1;stroke-dasharray:none"
       d="m 365.66928,144.56697 c 0,0 -8.50394,0 -8.50394,0 0,0 -0.004,-42.51969 -0.004,-42.51969 0,0 -9.92547,-2.834644 -9.92547,-2.834644 l -14.16478,0 c 0,0 2.2e-4,107.716544 2.2e-4,107.716544 0,0 56.69291,0 56.69291,0 0,0 -2.2e-4,-107.716544 -2.2e-4,-107.716544 l -14.17323,0 c 0,0 -9.92547,2.834644 -9.92547,2.834644 0,0 0.004,42.51969 0.004,42.51969 l -2e-5,0 z"
       sodipodi:nodetypes="cccccccccccc" /><path
       id="path2860-3-4-7-0-9-0-2-2-4"
       style="fill:none;stroke:#ff003f;stroke-width:0.82771653999999983;stroke-linecap:butt;stroke-linejoin:miter;stroke-miterlimit:4;stroke-opacity:1;stroke-dasharray:none"
       d="m 293.38159,102.04728 c 0,0 -9.92547,-2.834644 -9.92547,-2.834644 l -14.16478,0 c 0,0 0,107.716544 0,107.716544 0,0 24.09448,0 24.09448,0 0,0 0,-62.36221 0,-62.36221 0,0 8.50394,0 8.50394,0 0,0 0,62.36221 0,62.36221 0,0 24.09449,0 24.09449,0 0,0 0,-107.716544 0,-107.716544 l -14.17323,0 c 0,0 -9.92547,2.834644 -9.92547,2.834644 0,0 -8.50396,0 -8.50396,0 z"
       sodipodi:nodetypes="ccccccccccccc" /><path
       id="path2860-3-4-7-0-9-38-0-4"
       style="fill:none;stroke:#ff003f;stroke-width:0.82771653999999983;stroke-linecap:butt;stroke-linejoin:miter;stroke-miterlimit:4;stroke-opacity:1;stroke-dasharray:none"
       d="m 440.64623,181.5827 c 0.0388,0.85261 -30.92914,0.85262 -30.89038,1e-5 0.0388,-0.85261 -1.5105,-1.5639 -1.44406,-3.02552 0.0664,-1.46161 -0.36278,-1.13993 -0.27974,-2.96695 0.083,-1.82702 2.90717,-0.72798 2.99576,-2.6768 0.0886,-1.94881 -2.8962,-1.03373 -2.81315,-2.86075 0.083,-1.82702 2.74672,-1.34693 2.81315,-2.80854 0.0664,-1.46162 -2.8734,-1.98206 -2.83465,-2.83467 0.0387,-0.85261 2.89437,-2.80674 2.89437,-2.80674 0,0 -0.0597,-2.86255 -0.0597,-2.86255 -7.08662,-2.83465 -11.33859,-14.17324 -11.33859,-19.84252 0,0 -0.73317,-36.09681 0,-51.023617 0,-2.83465 2.12599,-2.83464 2.83466,-2.83464 l 8.49972,0 c 0,0 9.92547,2.83464 9.92547,2.83464 0,0 10e-6,36.850397 10e-6,36.850397 0,0 8.50393,-1e-5 8.50393,-1e-5 0,0 10e-6,-36.850397 10e-6,-36.850397 0,0 9.92547,-2.83464 9.92547,-2.83464 l 8.49972,0 c 0.70866,0 2.83465,-10e-6 2.83465,2.83464 0.73318,14.926807 0,51.023617 0,51.023617 0,5.66928 -4.25197,17.00787 -11.33858,19.84252 0,0 -0.0597,2.86255 -0.0597,2.86255 0,0 2.85561,1.95413 2.89436,2.80674 0.0388,0.85261 -2.90113,1.37306 -2.83469,2.83468 0.0664,1.46161 2.73015,0.98151 2.8132,2.80853 0.0831,1.82702 -2.90178,0.91195 -2.8132,2.86076 0.0886,1.94882 2.91276,0.84977 2.9958,2.67679 0.0831,1.82702 -0.34617,1.50534 -0.27973,2.96695 0.0664,1.46162 -1.48283,2.17291 -1.44407,3.02552 l -4e-5,0 z"
       sodipodi:nodetypes="ccssssssccccccccccccccccsssssscc" /><path
       id="path2860-3-4-7-0-9-38-0-0-9"
       style="fill:none;stroke:#ff003f;stroke-width:0.82771653999999983;stroke-linecap:butt;stroke-linejoin:miter;stroke-miterlimit:4;stroke-opacity:1;stroke-dasharray:none"
       d="m 497.33914,101.88195 c 0.0388,-0.85261 -30.92914,-0.85262 -30.89038,-1e-5 0.0388,0.85261 -1.5105,1.5639 -1.44406,3.02552 0.0664,1.46161 -0.36278,1.13993 -0.27974,2.96695 0.083,1.82702 2.90717,0.72798 2.99576,2.6768 0.0886,1.94881 -2.8962,1.03373 -2.81314,2.86075 0.083,1.82702 2.74671,1.34693 2.81314,2.80854 0.0664,1.46162 -2.8734,1.98206 -2.83464,2.83467 0.0387,0.85261 2.89436,2.80674 2.89436,2.80674 0,0 -0.0597,2.86255 -0.0597,2.86255 -7.08662,2.83465 -11.33859,14.17323 -11.33859,19.84252 0,0 -0.73317,36.09681 0,51.02362 0,2.83465 2.12599,2.83464 2.83466,2.83464 l 8.49972,0 c 0,0 9.92547,-2.83464 9.92547,-2.83464 0,0 1e-5,-36.8504 1e-5,-36.8504 0,0 8.50393,1e-5 8.50393,1e-5 0,0 1e-5,36.8504 1e-5,36.8504 0,0 9.92547,2.83464 9.92547,2.83464 l 8.49972,0 c 0.70866,0 2.83465,1e-5 2.83465,-2.83464 0.73318,-14.92681 0,-51.02362 0,-51.02362 0,-5.66929 -4.25197,-17.00787 -11.33858,-19.84252 0,0 -0.0597,-2.86255 -0.0597,-2.86255 0,0 2.85561,-1.95413 2.89436,-2.80674 0.0388,-0.85261 -2.90113,-1.37306 -2.83469,-2.83468 0.0664,-1.46161 2.73015,-0.98151 2.8132,-2.80853 0.0831,-1.82702 -2.90178,-0.91195 -2.8132,-2.86076 0.0886,-1.94882 2.91276,-0.84977 2.9958,-2.67679 0.0831,-1.82702 -0.34617,-1.50534 -0.27973,-2.96695 0.0664,-1.46162 -1.48283,-2.17291 -1.44407,-3.02552 l -4e-5,0 z"
       sodipodi:nodetypes="ccssssssccccccccccccccccsssssscc" /><path
       id="path2860-3-4-7-0-9-38-0-4-9"
       style="fill:none;stroke:#ff003f;stroke-width:0.82771653999999983;stroke-linecap:butt;stroke-linejoin:miter;stroke-miterlimit:4;stroke-opacity:1;stroke-dasharray:none"
       d="m 554.03206,181.5827 c 0.0388,0.85261 -30.92914,0.85262 -30.89038,1e-5 0.0388,-0.85261 -1.5105,-1.5639 -1.44406,-3.02552 0.0664,-1.46161 -0.36278,-1.13993 -0.27974,-2.96695 0.083,-1.82702 2.90717,-0.72798 2.99576,-2.6768 0.0886,-1.94881 -2.8962,-1.03373 -2.81315,-2.86075 0.083,-1.82702 2.74672,-1.34693 2.81315,-2.80854 0.0664,-1.46162 -2.8734,-1.98206 -2.83465,-2.83467 0.0387,-0.85261 2.89437,-2.80674 2.89437,-2.80674 0,0 -0.0597,-2.86255 -0.0597,-2.86255 -7.08662,-2.83465 -11.33859,-14.17324 -11.33859,-19.84252 0,0 -0.73317,-36.09681 0,-51.023617 0,-2.83465 2.12599,-2.83464 2.83466,-2.83464 l 8.49972,0 c 0,0 9.92547,2.83464 9.92547,2.83464 0,0 10e-6,36.850397 10e-6,36.850397 0,0 8.50393,-1e-5 8.50393,-1e-5 0,0 1e-5,-36.850397 1e-5,-36.850397 0,0 9.92547,-2.83464 9.92547,-2.83464 l 8.49972,0 c 0.70866,0 2.83465,-10e-6 2.83465,2.83464 0.73318,14.926807 0,51.023617 0,51.023617 0,5.66928 -4.25197,17.00787 -11.33858,19.84252 0,0 -0.0597,2.86255 -0.0597,2.86255 0,0 2.85561,1.95413 2.89436,2.80674 0.0388,0.85261 -2.90113,1.37306 -2.83469,2.83468 0.0664,1.46161 2.73015,0.98151 2.8132,2.80853 0.0831,1.82702 -2.90178,0.91195 -2.8132,2.86076 0.0886,1.94882 2.91276,0.84977 2.9958,2.67679 0.0831,1.82702 -0.34617,1.50534 -0.27973,2.96695 0.0664,1.46162 -1.48283,2.17291 -1.44407,3.02552 l -4e-5,0 z"
       sodipodi:nodetypes="ccssssssccccccccccccccccsssssscc" /><path
       id="path2860-3-4-7-0-9-38-0-0-9-3"
       style="fill:none;stroke:#ff003f;stroke-width:0.82771653999999983;stroke-linecap:butt;stroke-linejoin:miter;stroke-miterlimit:4;stroke-opacity:1;stroke-dasharray:none"
       d="m 610.72497,101.88195 c 0.0388,-0.85261 -30.92914,-0.85262 -30.89038,-1e-5 0.0388,0.85261 -1.5105,1.5639 -1.44406,3.02552 0.0664,1.46161 -0.36278,1.13993 -0.27974,2.96695 0.083,1.82702 2.90717,0.72798 2.99576,2.6768 0.0886,1.94881 -2.8962,1.03373 -2.81314,2.86075 0.083,1.82702 2.74671,1.34693 2.81314,2.80854 0.0664,1.46162 -2.8734,1.98206 -2.83464,2.83467 0.0387,0.85261 2.89436,2.80674 2.89436,2.80674 0,0 -0.0597,2.86255 -0.0597,2.86255 -7.08662,2.83465 -11.33859,14.17323 -11.33859,19.84252 0,0 -0.73317,36.09681 0,51.02362 0,2.83465 2.12599,2.83464 2.83466,2.83464 l 8.49972,0 c 0,0 9.92547,-2.83464 9.92547,-2.83464 0,0 10e-6,-36.8504 10e-6,-36.8504 0,0 8.50392,1e-5 8.50392,1e-5 0,0 1e-5,36.8504 1e-5,36.8504 0,0 9.92547,2.83464 9.92547,2.83464 l 8.49973,0 c 0.70865,0 2.83465,1e-5 2.83465,-2.83464 0.73318,-14.92681 0,-51.02362 0,-51.02362 0,-5.66929 -4.25197,-17.00787 -11.33858,-19.84252 0,0 -0.0597,-2.86255 -0.0597,-2.86255 0,0 2.8556,-1.95413 2.89436,-2.80674 0.0388,-0.85261 -2.90113,-1.37306 -2.83469,-2.83468 0.0664,-1.46161 2.73015,-0.98151 2.8132,-2.80853 0.0831,-1.82702 -2.90179,-0.91195 -2.8132,-2.86076 0.0886,-1.94882 2.91276,-0.84977 2.9958,-2.67679 0.0831,-1.82702 -0.34617,-1.50534 -0.27973,-2.96695 0.0664,-1.46162 -1.48283,-2.17291 -1.44407,-3.02552 l -4e-5,0 z"
       sodipodi:nodetypes="ccssssssccccccccccccccccsssssscc" /><path
       id="path2860-3-4-7-0-9-38-0-4-0"
       style="fill:none;stroke:#ff003f;stroke-width:0.82771653999999983;stroke-linecap:butt;stroke-linejoin:miter;stroke-miterlimit:4;stroke-opacity:1;stroke-dasharray:none"
       d="m 667.41788,181.58269 c 0.0388,0.85261 -30.92914,0.85262 -30.89038,10e-6 0.0388,-0.85261 -1.5105,-1.5639 -1.44406,-3.02552 0.0664,-1.46161 -0.36278,-1.13993 -0.27974,-2.96695 0.083,-1.82702 2.90717,-0.72798 2.99576,-2.6768 0.0886,-1.94881 -2.8962,-1.03373 -2.81315,-2.86075 0.083,-1.82702 2.74672,-1.34693 2.81315,-2.80854 0.0664,-1.46162 -2.8734,-1.98206 -2.83465,-2.83467 0.0387,-0.85261 2.89437,-2.80674 2.89437,-2.80674 0,0 -0.0597,-2.86255 -0.0597,-2.86255 -7.08662,-2.83465 -11.33859,-14.17324 -11.33859,-19.84251 0,0 -0.73317,-36.09681 0,-51.023617 0,-2.83465 2.12599,-2.83464 2.83466,-2.83464 l 8.49972,0 c 0,0 9.92547,2.83464 9.92547,2.83464 0,0 10e-6,36.850397 10e-6,36.850397 0,0 8.50393,-1e-5 8.50393,-1e-5 0,0 10e-6,-36.850397 10e-6,-36.850397 0,0 9.92547,-2.83464 9.92547,-2.83464 l 8.49972,0 c 0.70866,0 2.83465,-10e-6 2.83465,2.83464 0.73318,14.926807 0,51.023617 0,51.023617 0,5.66927 -4.25197,17.00786 -11.33858,19.84251 0,0 -0.0597,2.86255 -0.0597,2.86255 0,0 2.85561,1.95413 2.89436,2.80674 0.0388,0.85261 -2.90113,1.37306 -2.83469,2.83468 0.0664,1.46161 2.73015,0.98151 2.8132,2.80853 0.0831,1.82702 -2.90178,0.91195 -2.8132,2.86076 0.0886,1.94882 2.91276,0.84977 2.9958,2.67679 0.0831,1.82702 -0.34617,1.50534 -0.27973,2.96695 0.0664,1.46162 -1.48283,2.17291 -1.44407,3.02552 l -4e-5,0 z"
       sodipodi:nodetypes="ccssssssccccccccccccccccsssssscc" /><path
       id="path2860-3-4-7-0-9-38-0-0-9-5"
       style="fill:none;stroke:#ff003f;stroke-width:0.82771653999999983;stroke-linecap:butt;stroke-linejoin:miter;stroke-miterlimit:4;stroke-opacity:1;stroke-dasharray:none"
       d="m 724.11079,101.88195 c 0.0388,-0.85261 -30.92914,-0.85262 -30.89038,-1e-5 0.0388,0.85261 -1.5105,1.5639 -1.44406,3.02552 0.0664,1.46161 -0.36278,1.13993 -0.27974,2.96695 0.083,1.82702 2.90717,0.72798 2.99576,2.6768 0.0886,1.94881 -2.8962,1.03373 -2.81314,2.86075 0.083,1.82702 2.74671,1.34693 2.81314,2.80854 0.0664,1.46162 -2.8734,1.98206 -2.83464,2.83467 0.0387,0.85261 2.89436,2.80674 2.89436,2.80674 0,0 -0.0597,2.86255 -0.0597,2.86255 -7.08662,2.83465 -11.33859,14.17323 -11.33859,19.84251 0,0 -0.73317,36.09681 0,51.02362 0,2.83465 2.12599,2.83464 2.83466,2.83464 l 8.49972,0 c 0,0 9.92547,-2.83464 9.92547,-2.83464 0,0 1e-5,-36.8504 1e-5,-36.8504 0,0 8.50393,10e-6 8.50393,10e-6 0,0 0,36.8504 0,36.8504 0,0 9.92548,2.83464 9.92548,2.83464 l 8.49972,0 c 0.70865,0 2.83465,1e-5 2.83465,-2.83464 0.73318,-14.92681 0,-51.02362 0,-51.02362 0,-5.66928 -4.25197,-17.00786 -11.33858,-19.84251 0,0 -0.0597,-2.86255 -0.0597,-2.86255 0,0 2.85561,-1.95413 2.89436,-2.80674 0.0388,-0.85261 -2.90113,-1.37306 -2.83469,-2.83468 0.0664,-1.46161 2.73015,-0.98151 2.8132,-2.80853 0.0831,-1.82702 -2.90178,-0.91195 -2.8132,-2.86076 0.0886,-1.94882 2.91276,-0.84977 2.9958,-2.67679 0.0831,-1.82702 -0.34617,-1.50534 -0.27973,-2.96695 0.0664,-1.46162 -1.48283,-2.17291 -1.44407,-3.02552 l -4e-5,0 z"
       sodipodi:nodetypes="ccssssssccccccccccccccccsssssscc" /><path
       id="path2860-3-4-7-0-9-38-0-5-8-0"
       style="fill:none;stroke:#ff003f;stroke-width:0.82771653999999983;stroke-linecap:butt;stroke-linejoin:miter;stroke-miterlimit:4;stroke-opacity:1;stroke-dasharray:none"
       d="m 38.259503,73.700843 c -12.75591,0 -21.25985,-22.67717 -21.25985,-28.34646 0,0 -0.72896,-13.41965 0.004,-28.34646 0,-2.83465 2.12599,-2.83464 2.83466,-2.83464 l 8.49972,0 c 0,0 9.92547,2.83464 9.92547,2.83464 0,0 8.50395,-1e-5 8.50395,-1e-5 0,0 9.92546,-2.83464 9.92546,-2.83464 l 8.49973,0 c 0.70866,0 2.83465,0 2.83465,2.83464 0.73317,14.92681 -0.004,28.34647 -0.004,28.34647 0,5.66929 -8.50396,28.34646 -21.25984,28.34646 l 7.1e-4,0.0677 -7.4e-4,-19.91018 0,0 -8.50393,0 c 0,0 0,0 0,19.84252 z"
       sodipodi:nodetypes="cccccccccccc" /><path
       id="path2860-3-4-7-0-9-38-0-5-8-9"
       style="fill:none;stroke:#ff003f;stroke-width:0.82771653999999983;stroke-linecap:butt;stroke-linejoin:miter;stroke-miterlimit:4;stroke-opacity:1;stroke-dasharray:none"
       d="m 94.960841,73.700833 c -12.755912,0 -21.259849,-22.67717 -21.259849,-28.34646 0,0 -0.72896,-13.41965 0.004,-28.34646 0,-2.83465 2.12599,-2.83464 2.83466,-2.83464 l 8.499717,0 c 0,0 9.925472,2.83464 9.925472,2.83464 0,0 8.503949,-10e-6 8.503949,-10e-6 0,0 9.92546,-2.83464 9.92546,-2.83464 l 8.49973,0 c 0.70866,0 2.83465,0 2.83465,2.83464 0.73317,14.92681 -0.004,28.34647 -0.004,28.34647 0,5.66929 -8.50396,28.34646 -21.25984,28.34646 l 7.1e-4,0.0677 -7.4e-4,-19.91018 0,0 -8.503929,0 c 0,0 0,0 0,19.84252 z"
       sodipodi:nodetypes="cccccccccccc" /><path
       id="path2860-3-4-7-0-9-38-0-5-8-3"
       style="fill:none;stroke:#ff003f;stroke-width:0.82771653999999983;stroke-linecap:butt;stroke-linejoin:miter;stroke-miterlimit:4;stroke-opacity:1;stroke-dasharray:none"
       d="m 151.65375,73.700833 c -12.75591,0 -21.25985,-22.67717 -21.25985,-28.34646 0,0 -0.72896,-13.41965 0.004,-28.34646 0,-2.83465 2.12599,-2.83464 2.83466,-2.83464 l 8.49972,0 c 0,0 9.92547,2.83464 9.92547,2.83464 0,0 8.50395,-10e-6 8.50395,-10e-6 0,0 9.92546,-2.83464 9.92546,-2.83464 l 8.49973,0 c 0.70866,0 2.83465,0 2.83465,2.83464 0.73317,14.92681 -0.004,28.34647 -0.004,28.34647 0,5.66929 -8.50396,28.34646 -21.25984,28.34646 l 7.1e-4,0.0677 -7.4e-4,-19.91018 0,0 -8.50393,0 c 0,0 0,0 0,19.84252 z"
       sodipodi:nodetypes="cccccccccccc" /><path
       id="path2860-3-4-7-0-9-38-0-5-8-1"
       style="fill:none;stroke:#ff003f;stroke-width:0.82771653999999983;stroke-linecap:butt;stroke-linejoin:miter;stroke-miterlimit:4;stroke-opacity:1;stroke-dasharray:none"
       d="m 208.34667,73.700833 c -12.75591,0 -21.25985,-22.67717 -21.25985,-28.34646 0,0 -0.72896,-13.41965 0.004,-28.34646 0,-2.83465 2.12599,-2.83464 2.83466,-2.83464 l 8.49972,0 c 0,0 9.92547,2.83464 9.92547,2.83464 0,0 8.50395,-10e-6 8.50395,-10e-6 0,0 9.92546,-2.83464 9.92546,-2.83464 l 8.49973,0 c 0.70866,0 2.83465,0 2.83465,2.83464 0.73317,14.92681 -0.004,28.34647 -0.004,28.34647 0,5.66929 -8.50396,28.34646 -21.25984,28.34646 l 7.1e-4,0.0677 -7.4e-4,-19.91018 0,0 -8.50393,0 c 0,0 0,0 0,19.84252 z"
       sodipodi:nodetypes="cccccccccccc" /><path
       id="path2860-3-4-7-0-9-38-0-5-8-4"
       style="fill:none;stroke:#ff003f;stroke-width:0.82771653999999983;stroke-linecap:butt;stroke-linejoin:miter;stroke-miterlimit:4;stroke-opacity:1;stroke-dasharray:none"
       d="m 265.03958,73.700833 c -12.75591,0 -21.25985,-22.67717 -21.25985,-28.34646 0,0 -0.72896,-13.41965 0.004,-28.34646 0,-2.83465 2.12599,-2.83464 2.83466,-2.83464 l 8.49972,0 c 0,0 9.92547,2.83464 9.92547,2.83464 0,0 8.50395,-10e-6 8.50395,-10e-6 0,0 9.92546,-2.83464 9.92546,-2.83464 l 8.49973,0 c 0.70866,0 2.83465,0 2.83465,2.83464 0.73317,14.92681 -0.004,28.34647 -0.004,28.34647 0,5.66929 -8.50396,28.34646 -21.25984,28.34646 l 7.1e-4,0.0677 -7.4e-4,-19.91018 0,0 -8.50393,0 c 0,0 0,0 0,19.84252 z"
       sodipodi:nodetypes="cccccccccccc" /><path
       id="path2860-3-4-7-0-9-38-0-5-8-14"
       style="fill:none;stroke:#ff003f;stroke-width:0.82771653999999983;stroke-linecap:butt;stroke-linejoin:miter;stroke-miterlimit:4;stroke-opacity:1;stroke-dasharray:none"
       d="m 321.73249,73.700833 c -12.75591,0 -21.25985,-22.67717 -21.25985,-28.34646 0,0 -0.72896,-13.41965 0.004,-28.34646 0,-2.83465 2.12599,-2.83464 2.83466,-2.83464 l 8.49972,0 c 0,0 9.92547,2.83464 9.92547,2.83464 0,0 8.50395,-10e-6 8.50395,-10e-6 0,0 9.92546,-2.83464 9.92546,-2.83464 l 8.49973,0 c 0.70866,0 2.83465,0 2.83465,2.83464 0.73317,14.92681 -0.004,28.34647 -0.004,28.34647 0,5.66929 -8.50396,28.34646 -21.25984,28.34646 l 7.1e-4,0.0677 -7.4e-4,-19.91018 0,0 -8.50393,0 c 0,0 0,0 0,19.84252 z"
       sodipodi:nodetypes="cccccccccccc" /><path
       id="path2860-3-4-7-69"
       style="fill:none;stroke:#ff003f;stroke-width:0.82771653999999983;stroke-linecap:butt;stroke-linejoin:miter;stroke-miterlimit:4;stroke-opacity:1;stroke-dasharray:none"
       d="m 600.94489,41.644387 c 0,0 11.33857,0.87534 11.33857,0.87534 0,0 2.03877,-2.03877 2.83465,-2.83465 2.0044,-2.0044 5.66929,-0.54199 5.66929,-0.54199 l 8.50394,-5.6693 8.50394,-14.173221 2.83464,1.41731 -2.83464,18.425191 c 0,0 3.00709,8.45664 2.83464,12.7559 -0.11975,2.985579 0,2.834669 -2.83464,8.503929 -0.7484,1.5302 -2.83465,4.28377 -2.83465,4.25197 -2.83464,2.126 -22.69921,-3.87004 -22.67717,-3.70995 0.022,0.16009 -4.31975,3.76625 -5.66929,0 -1.5236,-4.25197 5.66929,-2.30141 5.66929,-2.83464 0,-0.53323 0,-6.211329 0,-6.211329 0,0 -5.66929,5e-5 -11.33859,5e-5 0,0 -4.37018,2.701879 -5.66928,4.251969 -22.67718,14.17323 -67.89597,7.20031 -87.87401,13.29789 l 0,-8.49972 c 0,0 2.83464,-9.925469 2.83464,-9.925469 0,0 36.85038,-1e-5 36.85038,-1e-5 0,0 0,-8.50393 0,-8.50393 0,0 -36.85038,0 -36.85038,0 0,0 -2.83464,-9.92548 -2.83464,-9.92548 l 0,-8.499721 c 19.97804,6.097581 65.19683,-0.87534 87.87401,13.297891 1.2991,1.55009 5.6693,4.25197 5.6693,4.25197 z"
       sodipodi:nodetypes="ccscccccsccsssccccccccccccc" /><path
       id="path2860-3-4-7-6-2"
       style="fill:none;stroke:#ff003f;stroke-width:0.82771653999999983;stroke-linecap:butt;stroke-linejoin:miter;stroke-miterlimit:4;stroke-opacity:1;stroke-dasharray:none"
       d="m 755.43728,138.89766 c 0,-1e-5 0,-42.519679 0,-42.519679 0,0 -8.50394,0 -8.50394,0 0,0 0,42.519669 0,42.519679 -19.84251,-19.84252 -12.75591,-62.362179 -18.42518,-82.204702 -10e-6,0 8.49971,0 8.49971,0 0,0 9.92547,2.834631 9.92547,2.834631 0,0 8.50394,0 8.50394,0 0,0 9.92548,-2.834631 9.92548,-2.834631 0,0 8.49972,0 8.49972,0 -5.66929,19.842523 1.41732,62.362182 -18.4252,82.204702 z"
       sodipodi:nodetypes="ccccccccccc" /></g></svg>