<?xml version="1.0" encoding="UTF-8" standalone="no"?>
<!-- Created with Inkscape (http://www.inkscape.org/) -->

<svg
   xmlns:dc="http://purl.org/dc/elements/1.1/"
   xmlns:cc="http://creativecommons.org/ns#"
   xmlns:rdf="http://www.w3.org/1999/02/22-rdf-syntax-ns#"
   xmlns:svg="http://www.w3.org/2000/svg"
   xmlns="http://www.w3.org/2000/svg"
   xmlns:sodipodi="http://sodipodi.sourceforge.net/DTD/sodipodi-0.dtd"
   xmlns:inkscape="http://www.inkscape.org/namespaces/inkscape"
   sodipodi:docname="white.svg"
   xml:space="preserve"
   height="1594.4882"
   width="1062.9921"
   inkscape:version="0.47 r22583"
   version="1.1"
   id="svg2816"><metadata
     id="metadata2822"><rdf:RDF><cc:Work
         rdf:about=""><dc:format>image/svg+xml</dc:format><dc:type
           rdf:resource="http://purl.org/dc/dcmitype/StillImage" /><dc:title></dc:title></cc:Work></rdf:RDF></metadata><defs
     id="defs2820"><inkscape:perspective
       sodipodi:type="inkscape:persp3d"
       inkscape:vp_x="0 : 0.5 : 1"
       inkscape:vp_y="0 : 1000 : 0"
       inkscape:vp_z="1 : 0.5 : 1"
       inkscape:persp3d-origin="0.5 : 0.33333333 : 1"
       id="perspective2824" /><clipPath
       clipPathUnits="userSpaceOnUse"
       id="clipPath2832"><path
         d="m 0,637.795 850.394,0 L 850.394,0 0,0 0,637.795 z"
         id="path2834" /></clipPath><inkscape:perspective
       id="perspective3893"
       inkscape:persp3d-origin="0.5 : 0.33333333 : 1"
       inkscape:vp_z="1 : 0.5 : 1"
       inkscape:vp_y="0 : 1000 : 0"
       inkscape:vp_x="0 : 0.5 : 1"
       sodipodi:type="inkscape:persp3d" /><inkscape:perspective
       id="perspective3917"
       inkscape:persp3d-origin="0.5 : 0.33333333 : 1"
       inkscape:vp_z="1 : 0.5 : 1"
       inkscape:vp_y="0 : 1000 : 0"
       inkscape:vp_x="0 : 0.5 : 1"
       sodipodi:type="inkscape:persp3d" /><inkscape:perspective
       id="perspective3939"
       inkscape:persp3d-origin="0.5 : 0.33333333 : 1"
       inkscape:vp_z="1 : 0.5 : 1"
       inkscape:vp_y="0 : 1000 : 0"
       inkscape:vp_x="0 : 0.5 : 1"
       sodipodi:type="inkscape:persp3d" /><inkscape:perspective
       id="perspective3983"
       inkscape:persp3d-origin="0.5 : 0.33333333 : 1"
       inkscape:vp_z="1 : 0.5 : 1"
       inkscape:vp_y="0 : 1000 : 0"
       inkscape:vp_x="0 : 0.5 : 1"
       sodipodi:type="inkscape:persp3d" /><inkscape:perspective
       id="perspective3997"
       inkscape:persp3d-origin="0.5 : 0.33333333 : 1"
       inkscape:vp_z="1 : 0.5 : 1"
       inkscape:vp_y="0 : 1000 : 0"
       inkscape:vp_x="0 : 0.5 : 1"
       sodipodi:type="inkscape:persp3d" /><inkscape:perspective
       id="perspective4019"
       inkscape:persp3d-origin="0.5 : 0.33333333 : 1"
       inkscape:vp_z="1 : 0.5 : 1"
       inkscape:vp_y="0 : 1000 : 0"
       inkscape:vp_x="0 : 0.5 : 1"
       sodipodi:type="inkscape:persp3d" /><inkscape:perspective
       id="perspective4042"
       inkscape:persp3d-origin="0.5 : 0.33333333 : 1"
       inkscape:vp_z="1 : 0.5 : 1"
       inkscape:vp_y="0 : 1000 : 0"
       inkscape:vp_x="0 : 0.5 : 1"
       sodipodi:type="inkscape:persp3d" /><inkscape:perspective
       id="perspective4064"
       inkscape:persp3d-origin="0.5 : 0.33333333 : 1"
       inkscape:vp_z="1 : 0.5 : 1"
       inkscape:vp_y="0 : 1000 : 0"
       inkscape:vp_x="0 : 0.5 : 1"
       sodipodi:type="inkscape:persp3d" /><inkscape:perspective
       id="perspective4078"
       inkscape:persp3d-origin="0.5 : 0.33333333 : 1"
       inkscape:vp_z="1 : 0.5 : 1"
       inkscape:vp_y="0 : 1000 : 0"
       inkscape:vp_x="0 : 0.5 : 1"
       sodipodi:type="inkscape:persp3d" /><inkscape:perspective
       id="perspective4092"
       inkscape:persp3d-origin="0.5 : 0.33333333 : 1"
       inkscape:vp_z="1 : 0.5 : 1"
       inkscape:vp_y="0 : 1000 : 0"
       inkscape:vp_x="0 : 0.5 : 1"
       sodipodi:type="inkscape:persp3d" /><inkscape:perspective
       id="perspective4114"
       inkscape:persp3d-origin="0.5 : 0.33333333 : 1"
       inkscape:vp_z="1 : 0.5 : 1"
       inkscape:vp_y="0 : 1000 : 0"
       inkscape:vp_x="0 : 0.5 : 1"
       sodipodi:type="inkscape:persp3d" /><inkscape:perspective
       id="perspective4158"
       inkscape:persp3d-origin="0.5 : 0.33333333 : 1"
       inkscape:vp_z="1 : 0.5 : 1"
       inkscape:vp_y="0 : 1000 : 0"
       inkscape:vp_x="0 : 0.5 : 1"
       sodipodi:type="inkscape:persp3d" /><inkscape:perspective
       id="perspective4183"
       inkscape:persp3d-origin="0.5 : 0.33333333 : 1"
       inkscape:vp_z="1 : 0.5 : 1"
       inkscape:vp_y="0 : 1000 : 0"
       inkscape:vp_x="0 : 0.5 : 1"
       sodipodi:type="inkscape:persp3d" /><inkscape:perspective
       id="perspective4212"
       inkscape:persp3d-origin="0.5 : 0.33333333 : 1"
       inkscape:vp_z="1 : 0.5 : 1"
       inkscape:vp_y="0 : 1000 : 0"
       inkscape:vp_x="0 : 0.5 : 1"
       sodipodi:type="inkscape:persp3d" /><inkscape:perspective
       id="perspective4235"
       inkscape:persp3d-origin="0.5 : 0.33333333 : 1"
       inkscape:vp_z="1 : 0.5 : 1"
       inkscape:vp_y="0 : 1000 : 0"
       inkscape:vp_x="0 : 0.5 : 1"
       sodipodi:type="inkscape:persp3d" /><inkscape:perspective
       id="perspective4249"
       inkscape:persp3d-origin="0.5 : 0.33333333 : 1"
       inkscape:vp_z="1 : 0.5 : 1"
       inkscape:vp_y="0 : 1000 : 0"
       inkscape:vp_x="0 : 0.5 : 1"
       sodipodi:type="inkscape:persp3d" /><inkscape:perspective
       id="perspective4274"
       inkscape:persp3d-origin="0.5 : 0.33333333 : 1"
       inkscape:vp_z="1 : 0.5 : 1"
       inkscape:vp_y="0 : 1000 : 0"
       inkscape:vp_x="0 : 0.5 : 1"
       sodipodi:type="inkscape:persp3d" /><inkscape:perspective
       id="perspective4297"
       inkscape:persp3d-origin="0.5 : 0.33333333 : 1"
       inkscape:vp_z="1 : 0.5 : 1"
       inkscape:vp_y="0 : 1000 : 0"
       inkscape:vp_x="0 : 0.5 : 1"
       sodipodi:type="inkscape:persp3d" /><inkscape:perspective
       id="perspective4319"
       inkscape:persp3d-origin="0.5 : 0.33333333 : 1"
       inkscape:vp_z="1 : 0.5 : 1"
       inkscape:vp_y="0 : 1000 : 0"
       inkscape:vp_x="0 : 0.5 : 1"
       sodipodi:type="inkscape:persp3d" /><inkscape:perspective
       id="perspective4341"
       inkscape:persp3d-origin="0.5 : 0.33333333 : 1"
       inkscape:vp_z="1 : 0.5 : 1"
       inkscape:vp_y="0 : 1000 : 0"
       inkscape:vp_x="0 : 0.5 : 1"
       sodipodi:type="inkscape:persp3d" /><inkscape:perspective
       id="perspective4364"
       inkscape:persp3d-origin="0.5 : 0.33333333 : 1"
       inkscape:vp_z="1 : 0.5 : 1"
       inkscape:vp_y="0 : 1000 : 0"
       inkscape:vp_x="0 : 0.5 : 1"
       sodipodi:type="inkscape:persp3d" /><inkscape:perspective
       id="perspective4408"
       inkscape:persp3d-origin="0.5 : 0.33333333 : 1"
       inkscape:vp_z="1 : 0.5 : 1"
       inkscape:vp_y="0 : 1000 : 0"
       inkscape:vp_x="0 : 0.5 : 1"
       sodipodi:type="inkscape:persp3d" /><inkscape:perspective
       id="perspective4430"
       inkscape:persp3d-origin="0.5 : 0.33333333 : 1"
       inkscape:vp_z="1 : 0.5 : 1"
       inkscape:vp_y="0 : 1000 : 0"
       inkscape:vp_x="0 : 0.5 : 1"
       sodipodi:type="inkscape:persp3d" /><inkscape:perspective
       id="perspective4453"
       inkscape:persp3d-origin="0.5 : 0.33333333 : 1"
       inkscape:vp_z="1 : 0.5 : 1"
       inkscape:vp_y="0 : 1000 : 0"
       inkscape:vp_x="0 : 0.5 : 1"
       sodipodi:type="inkscape:persp3d" /><inkscape:perspective
       id="perspective4475"
       inkscape:persp3d-origin="0.5 : 0.33333333 : 1"
       inkscape:vp_z="1 : 0.5 : 1"
       inkscape:vp_y="0 : 1000 : 0"
       inkscape:vp_x="0 : 0.5 : 1"
       sodipodi:type="inkscape:persp3d" /><inkscape:perspective
       id="perspective4500"
       inkscape:persp3d-origin="0.5 : 0.33333333 : 1"
       inkscape:vp_z="1 : 0.5 : 1"
       inkscape:vp_y="0 : 1000 : 0"
       inkscape:vp_x="0 : 0.5 : 1"
       sodipodi:type="inkscape:persp3d" /><inkscape:perspective
       id="perspective4531"
       inkscape:persp3d-origin="0.5 : 0.33333333 : 1"
       inkscape:vp_z="1 : 0.5 : 1"
       inkscape:vp_y="0 : 1000 : 0"
       inkscape:vp_x="0 : 0.5 : 1"
       sodipodi:type="inkscape:persp3d" /><inkscape:perspective
       id="perspective4566"
       inkscape:persp3d-origin="0.5 : 0.33333333 : 1"
       inkscape:vp_z="1 : 0.5 : 1"
       inkscape:vp_y="0 : 1000 : 0"
       inkscape:vp_x="0 : 0.5 : 1"
       sodipodi:type="inkscape:persp3d" /><inkscape:perspective
       id="perspective4588"
       inkscape:persp3d-origin="0.5 : 0.33333333 : 1"
       inkscape:vp_z="1 : 0.5 : 1"
       inkscape:vp_y="0 : 1000 : 0"
       inkscape:vp_x="0 : 0.5 : 1"
       sodipodi:type="inkscape:persp3d" /><inkscape:perspective
       id="perspective4623"
       inkscape:persp3d-origin="0.5 : 0.33333333 : 1"
       inkscape:vp_z="1 : 0.5 : 1"
       inkscape:vp_y="0 : 1000 : 0"
       inkscape:vp_x="0 : 0.5 : 1"
       sodipodi:type="inkscape:persp3d" /><inkscape:perspective
       id="perspective4623-2"
       inkscape:persp3d-origin="0.5 : 0.33333333 : 1"
       inkscape:vp_z="1 : 0.5 : 1"
       inkscape:vp_y="0 : 1000 : 0"
       inkscape:vp_x="0 : 0.5 : 1"
       sodipodi:type="inkscape:persp3d" /><inkscape:perspective
       id="perspective4672"
       inkscape:persp3d-origin="0.5 : 0.33333333 : 1"
       inkscape:vp_z="1 : 0.5 : 1"
       inkscape:vp_y="0 : 1000 : 0"
       inkscape:vp_x="0 : 0.5 : 1"
       sodipodi:type="inkscape:persp3d" /><inkscape:perspective
       id="perspective4694"
       inkscape:persp3d-origin="0.5 : 0.33333333 : 1"
       inkscape:vp_z="1 : 0.5 : 1"
       inkscape:vp_y="0 : 1000 : 0"
       inkscape:vp_x="0 : 0.5 : 1"
       sodipodi:type="inkscape:persp3d" /><inkscape:perspective
       id="perspective4716"
       inkscape:persp3d-origin="0.5 : 0.33333333 : 1"
       inkscape:vp_z="1 : 0.5 : 1"
       inkscape:vp_y="0 : 1000 : 0"
       inkscape:vp_x="0 : 0.5 : 1"
       sodipodi:type="inkscape:persp3d" /><inkscape:perspective
       id="perspective4716-6"
       inkscape:persp3d-origin="0.5 : 0.33333333 : 1"
       inkscape:vp_z="1 : 0.5 : 1"
       inkscape:vp_y="0 : 1000 : 0"
       inkscape:vp_x="0 : 0.5 : 1"
       sodipodi:type="inkscape:persp3d" /><inkscape:perspective
       id="perspective4752"
       inkscape:persp3d-origin="0.5 : 0.33333333 : 1"
       inkscape:vp_z="1 : 0.5 : 1"
       inkscape:vp_y="0 : 1000 : 0"
       inkscape:vp_x="0 : 0.5 : 1"
       sodipodi:type="inkscape:persp3d" /><inkscape:perspective
       id="perspective4752-2"
       inkscape:persp3d-origin="0.5 : 0.33333333 : 1"
       inkscape:vp_z="1 : 0.5 : 1"
       inkscape:vp_y="0 : 1000 : 0"
       inkscape:vp_x="0 : 0.5 : 1"
       sodipodi:type="inkscape:persp3d" /><inkscape:perspective
       id="perspective4752-4"
       inkscape:persp3d-origin="0.5 : 0.33333333 : 1"
       inkscape:vp_z="1 : 0.5 : 1"
       inkscape:vp_y="0 : 1000 : 0"
       inkscape:vp_x="0 : 0.5 : 1"
       sodipodi:type="inkscape:persp3d" /><inkscape:perspective
       id="perspective4752-5"
       inkscape:persp3d-origin="0.5 : 0.33333333 : 1"
       inkscape:vp_z="1 : 0.5 : 1"
       inkscape:vp_y="0 : 1000 : 0"
       inkscape:vp_x="0 : 0.5 : 1"
       sodipodi:type="inkscape:persp3d" /><inkscape:perspective
       id="perspective4752-7"
       inkscape:persp3d-origin="0.5 : 0.33333333 : 1"
       inkscape:vp_z="1 : 0.5 : 1"
       inkscape:vp_y="0 : 1000 : 0"
       inkscape:vp_x="0 : 0.5 : 1"
       sodipodi:type="inkscape:persp3d" /><inkscape:perspective
       id="perspective4752-3"
       inkscape:persp3d-origin="0.5 : 0.33333333 : 1"
       inkscape:vp_z="1 : 0.5 : 1"
       inkscape:vp_y="0 : 1000 : 0"
       inkscape:vp_x="0 : 0.5 : 1"
       sodipodi:type="inkscape:persp3d" /><inkscape:perspective
       id="perspective4819"
       inkscape:persp3d-origin="0.5 : 0.33333333 : 1"
       inkscape:vp_z="1 : 0.5 : 1"
       inkscape:vp_y="0 : 1000 : 0"
       inkscape:vp_x="0 : 0.5 : 1"
       sodipodi:type="inkscape:persp3d" /><inkscape:perspective
       id="perspective4850"
       inkscape:persp3d-origin="0.5 : 0.33333333 : 1"
       inkscape:vp_z="1 : 0.5 : 1"
       inkscape:vp_y="0 : 1000 : 0"
       inkscape:vp_x="0 : 0.5 : 1"
       sodipodi:type="inkscape:persp3d" /><inkscape:perspective
       id="perspective2930"
       inkscape:persp3d-origin="0.5 : 0.33333333 : 1"
       inkscape:vp_z="1 : 0.5 : 1"
       inkscape:vp_y="0 : 1000 : 0"
       inkscape:vp_x="0 : 0.5 : 1"
       sodipodi:type="inkscape:persp3d" /><inkscape:perspective
       id="perspective3005"
       inkscape:persp3d-origin="0.5 : 0.33333333 : 1"
       inkscape:vp_z="1 : 0.5 : 1"
       inkscape:vp_y="0 : 1000 : 0"
       inkscape:vp_x="0 : 0.5 : 1"
       sodipodi:type="inkscape:persp3d" /><inkscape:perspective
       id="perspective3027"
       inkscape:persp3d-origin="0.5 : 0.33333333 : 1"
       inkscape:vp_z="1 : 0.5 : 1"
       inkscape:vp_y="0 : 1000 : 0"
       inkscape:vp_x="0 : 0.5 : 1"
       sodipodi:type="inkscape:persp3d" /><inkscape:perspective
       id="perspective3052"
       inkscape:persp3d-origin="0.5 : 0.33333333 : 1"
       inkscape:vp_z="1 : 0.5 : 1"
       inkscape:vp_y="0 : 1000 : 0"
       inkscape:vp_x="0 : 0.5 : 1"
       sodipodi:type="inkscape:persp3d" /><inkscape:perspective
       id="perspective3083"
       inkscape:persp3d-origin="0.5 : 0.33333333 : 1"
       inkscape:vp_z="1 : 0.5 : 1"
       inkscape:vp_y="0 : 1000 : 0"
       inkscape:vp_x="0 : 0.5 : 1"
       sodipodi:type="inkscape:persp3d" /><inkscape:perspective
       id="perspective3083-8"
       inkscape:persp3d-origin="0.5 : 0.33333333 : 1"
       inkscape:vp_z="1 : 0.5 : 1"
       inkscape:vp_y="0 : 1000 : 0"
       inkscape:vp_x="0 : 0.5 : 1"
       sodipodi:type="inkscape:persp3d" /><inkscape:perspective
       id="perspective3083-9"
       inkscape:persp3d-origin="0.5 : 0.33333333 : 1"
       inkscape:vp_z="1 : 0.5 : 1"
       inkscape:vp_y="0 : 1000 : 0"
       inkscape:vp_x="0 : 0.5 : 1"
       sodipodi:type="inkscape:persp3d" /><inkscape:perspective
       id="perspective3172"
       inkscape:persp3d-origin="0.5 : 0.33333333 : 1"
       inkscape:vp_z="1 : 0.5 : 1"
       inkscape:vp_y="0 : 1000 : 0"
       inkscape:vp_x="0 : 0.5 : 1"
       sodipodi:type="inkscape:persp3d" /></defs><sodipodi:namedview
     pagecolor="#ffffff"
     bordercolor="#666666"
     borderopacity="1"
     objecttolerance="10"
     gridtolerance="10"
     guidetolerance="10"
     inkscape:pageopacity="0"
     inkscape:pageshadow="2"
     inkscape:window-width="1366"
     inkscape:window-height="716"
     id="namedview2818"
     showgrid="true"
     inkscape:zoom="0.32"
     inkscape:cx="188.32516"
     inkscape:cy="937.75509"
     inkscape:window-x="0"
     inkscape:window-y="0"
     inkscape:window-maximized="1"
     inkscape:current-layer="g2826"
     inkscape:document-units="mm"
     units="mm"
     inkscape:snap-global="true"
     showguides="true"
     inkscape:guide-bbox="true"><inkscape:grid
       type="xygrid"
       id="grid2879"
       empspacing="5"
       visible="true"
       enabled="true"
       snapvisiblegridlinesonly="true"
       units="mm"
       spacingx="1mm"
       spacingy="1mm" /></sodipodi:namedview><g
     id="g2826"
     inkscape:groupmode="layer"
     inkscape:label="layout-3mm-pieces"
     transform="matrix(1.25,0,0,-1.25,0,1594.4882)"><rect
       style="fill:none;stroke:#ff0000;stroke-width:0.82771653;stroke-miterlimit:4;stroke-opacity:1;stroke-dasharray:none;stroke-dashoffset:0"
       id="rect2922"
       width="793.70081"
       height="793.70081"
       x="28.346457"
       y="-1247.2441"
       transform="scale(1,-1)"
       rx="14.173228"
       ry="14.173228" /><path
       d="m 130.3937,377.00791 c 0,-7.842 -6.447,-14.199 -14.4,-14.199 l -56.238992,0 c -7.953,0 -14.401,6.357 -14.401,14.199 l 0,56.64 c 0,7.842 6.448,14.199 14.401,14.199 l 56.238992,0 c 7.953,0 14.4,-6.357 14.4,-14.199 l 0,-56.64 z"
       style="fill:none;stroke:#ff003f;stroke-width:0.82771653;stroke-linecap:butt;stroke-linejoin:miter;stroke-miterlimit:4;stroke-opacity:1;stroke-dasharray:none"
       id="path2944-8" /><path
       d="m 226.77167,377.00791 c 0,-7.842 -6.447,-14.199 -14.4,-14.199 l -56.239,0 c -7.953,0 -14.40101,6.357 -14.40101,14.199 l 0,56.64 c 0,7.842 6.44801,14.199 14.40101,14.199 l 56.239,0 c 7.953,0 14.4,-6.357 14.4,-14.199 l 0,-56.64 z"
       style="fill:none;stroke:#ff003f;stroke-width:0.82771653;stroke-linecap:butt;stroke-linejoin:miter;stroke-miterlimit:4;stroke-opacity:1;stroke-dasharray:none"
       id="path2944-4-97" /><path
       d="m 323.14962,377.00791 c 0,-7.842 -6.447,-14.199 -14.4,-14.199 l -56.23899,0 c -7.953,0 -14.401,6.357 -14.401,14.199 l 0,56.64 c 0,7.842 6.448,14.199 14.401,14.199 l 56.23899,0 c 7.953,0 14.4,-6.357 14.4,-14.199 l 0,-56.64 z"
       style="fill:none;stroke:#ff003f;stroke-width:0.82771653;stroke-linecap:butt;stroke-linejoin:miter;stroke-miterlimit:4;stroke-opacity:1;stroke-dasharray:none"
       id="path2944-6-76" /><path
       d="m 419.52759,377.00791 c 0,-7.842 -6.447,-14.199 -14.4,-14.199 l -56.239,0 c -7.953,0 -14.40101,6.357 -14.40101,14.199 l 0,56.64 c 0,7.842 6.44801,14.199 14.40101,14.199 l 56.239,0 c 7.953,0 14.4,-6.357 14.4,-14.199 l 0,-56.64 z"
       style="fill:none;stroke:#ff003f;stroke-width:0.82771653;stroke-linecap:butt;stroke-linejoin:miter;stroke-miterlimit:4;stroke-opacity:1;stroke-dasharray:none"
       id="path2944-4-3-4" /><path
       d="m 515.90551,377.00791 c 0,-7.842 -6.447,-14.199 -14.4,-14.199 l -56.239,0 c -7.953,0 -14.401,6.357 -14.401,14.199 l 0,56.64 c 0,7.842 6.448,14.199 14.401,14.199 l 56.239,0 c 7.953,0 14.4,-6.357 14.4,-14.199 l 0,-56.64 z"
       style="fill:none;stroke:#ff003f;stroke-width:0.82771653;stroke-linecap:butt;stroke-linejoin:miter;stroke-miterlimit:4;stroke-opacity:1;stroke-dasharray:none"
       id="path2944-1-3" /><path
       d="m 612.28347,377.00791 c 0,-7.842 -6.447,-14.199 -14.4,-14.199 l -56.239,0 c -7.953,0 -14.401,6.357 -14.401,14.199 l 0,56.64 c 0,7.842 6.448,14.199 14.401,14.199 l 56.239,0 c 7.953,0 14.4,-6.357 14.4,-14.199 l 0,-56.64 z"
       style="fill:none;stroke:#ff003f;stroke-width:0.82771653;stroke-linecap:butt;stroke-linejoin:miter;stroke-miterlimit:4;stroke-opacity:1;stroke-dasharray:none"
       id="path2944-4-7-0" /><path
       d="m 708.66147,377.00791 c 0,-7.842 -6.447,-14.199 -14.4,-14.199 l -56.239,0 c -7.953,0 -14.401,6.357 -14.401,14.199 l 0,56.64 c 0,7.842 6.448,14.199 14.401,14.199 l 56.239,0 c 7.953,0 14.4,-6.357 14.4,-14.199 l 0,-56.64 z"
       style="fill:none;stroke:#ff003f;stroke-width:0.82771653;stroke-linecap:butt;stroke-linejoin:miter;stroke-miterlimit:4;stroke-opacity:1;stroke-dasharray:none"
       id="path2944-6-5-30" /><path
       d="m 805.03937,377.00791 c 0,-7.842 -6.447,-14.199 -14.4,-14.199 l -56.239,0 c -7.953,0 -14.401,6.357 -14.401,14.199 l 0,56.64 c 0,7.842 6.448,14.199 14.401,14.199 l 56.239,0 c 7.953,0 14.4,-6.357 14.4,-14.199 l 0,-56.64 z"
       style="fill:none;stroke:#ff003f;stroke-width:0.82771653;stroke-linecap:butt;stroke-linejoin:miter;stroke-miterlimit:4;stroke-opacity:1;stroke-dasharray:none"
       id="path2944-4-3-9-9" /><path
       d="m 130.39372,280.62995 c 0,-7.842 -6.447,-14.199 -14.4,-14.199 l -56.238982,0 c -7.953,0 -14.401,6.357 -14.401,14.199 l 0,56.64 c 0,7.842 6.448,14.199 14.401,14.199 l 56.238982,0 c 7.953,0 14.4,-6.357 14.4,-14.199 l 0,-56.64 z"
       style="fill:none;stroke:#ff003f;stroke-width:0.82771653;stroke-linecap:butt;stroke-linejoin:miter;stroke-miterlimit:4;stroke-opacity:1;stroke-dasharray:none"
       id="path2944-62-2" /><path
       d="m 226.7717,280.62995 c 0,-7.842 -6.447,-14.199 -14.4,-14.199 l -56.239,0 c -7.953,0 -14.40102,6.357 -14.40102,14.199 l 0,56.64 c 0,7.842 6.44802,14.199 14.40102,14.199 l 56.239,0 c 7.953,0 14.4,-6.357 14.4,-14.199 l 0,-56.64 z"
       style="fill:none;stroke:#ff003f;stroke-width:0.82771653;stroke-linecap:butt;stroke-linejoin:miter;stroke-miterlimit:4;stroke-opacity:1;stroke-dasharray:none"
       id="path2944-4-1-5" /><path
       d="m 323.14964,280.62995 c 0,-7.842 -6.447,-14.199 -14.4,-14.199 l -56.23898,0 c -7.953,0 -14.401,6.357 -14.401,14.199 l 0,56.64 c 0,7.842 6.448,14.199 14.401,14.199 l 56.23898,0 c 7.953,0 14.4,-6.357 14.4,-14.199 l 0,-56.64 z"
       style="fill:none;stroke:#ff003f;stroke-width:0.82771653;stroke-linecap:butt;stroke-linejoin:miter;stroke-miterlimit:4;stroke-opacity:1;stroke-dasharray:none"
       id="path2944-6-7-4" /><path
       d="m 419.52762,280.62995 c 0,-7.842 -6.447,-14.199 -14.4,-14.199 l -56.239,0 c -7.953,0 -14.40102,6.357 -14.40102,14.199 l 0,56.64 c 0,7.842 6.44802,14.199 14.40102,14.199 l 56.239,0 c 7.953,0 14.4,-6.357 14.4,-14.199 l 0,-56.64 z"
       style="fill:none;stroke:#ff003f;stroke-width:0.82771653;stroke-linecap:butt;stroke-linejoin:miter;stroke-miterlimit:4;stroke-opacity:1;stroke-dasharray:none"
       id="path2944-4-3-8-0" /><path
       d="m 515.90554,280.62995 c 0,-7.842 -6.447,-14.199 -14.4,-14.199 l -56.239,0 c -7.953,0 -14.401,6.357 -14.401,14.199 l 0,56.64 c 0,7.842 6.448,14.199 14.401,14.199 l 56.239,0 c 7.953,0 14.4,-6.357 14.4,-14.199 l 0,-56.64 z"
       style="fill:none;stroke:#ff003f;stroke-width:0.82771653;stroke-linecap:butt;stroke-linejoin:miter;stroke-miterlimit:4;stroke-opacity:1;stroke-dasharray:none"
       id="path2944-1-5-5" /><path
       d="m 612.28347,280.62995 c 0,-7.842 -6.447,-14.199 -14.4,-14.199 l -56.23897,0 c -7.953,0 -14.401,6.357 -14.401,14.199 l 0,56.64 c 0,7.842 6.448,14.199 14.401,14.199 l 56.23897,0 c 7.953,0 14.4,-6.357 14.4,-14.199 l 0,-56.64 z"
       style="fill:none;stroke:#ff003f;stroke-width:0.82771653;stroke-linecap:butt;stroke-linejoin:miter;stroke-miterlimit:4;stroke-opacity:1;stroke-dasharray:none"
       id="path2944-4-7-7-9" /><path
       d="m 708.66147,280.62995 c 0,-7.842 -6.447,-14.199 -14.4,-14.199 l -56.239,0 c -7.953,0 -14.401,6.357 -14.401,14.199 l 0,56.64 c 0,7.842 6.448,14.199 14.401,14.199 l 56.239,0 c 7.953,0 14.4,-6.357 14.4,-14.199 l 0,-56.64 z"
       style="fill:none;stroke:#ff003f;stroke-width:0.82771653;stroke-linecap:butt;stroke-linejoin:miter;stroke-miterlimit:4;stroke-opacity:1;stroke-dasharray:none"
       id="path2944-6-5-4-4" /><path
       d="m 805.03947,280.62995 c 0,-7.842 -6.447,-14.199 -14.4,-14.199 l -56.239,0 c -7.953,0 -14.401,6.357 -14.401,14.199 l 0,56.64 c 0,7.842 6.448,14.199 14.401,14.199 l 56.239,0 c 7.953,0 14.4,-6.357 14.4,-14.199 l 0,-56.64 z"
       style="fill:none;stroke:#ff003f;stroke-width:0.82771653;stroke-linecap:butt;stroke-linejoin:miter;stroke-miterlimit:4;stroke-opacity:1;stroke-dasharray:none"
       id="path2944-4-3-9-1-6" /><path
       d="m 130.39371,184.252 c 0,-7.842 -6.44701,-14.199 -14.40001,-14.199 l -56.238972,0 c -7.953,0 -14.401,6.357 -14.401,14.199 l 0,56.64 c 0,7.842 6.448,14.199 14.401,14.199 l 56.238972,0 c 7.953,0 14.40001,-6.357 14.40001,-14.199 l 0,-56.64 z"
       style="fill:none;stroke:#ff003f;stroke-width:0.82771653;stroke-linecap:butt;stroke-linejoin:miter;stroke-miterlimit:4;stroke-opacity:1;stroke-dasharray:none"
       id="path2944-5-9" /><path
       d="m 226.77167,184.252 c 0,-7.842 -6.447,-14.199 -14.4,-14.199 l -56.239,0 c -7.953,0 -14.401,6.357 -14.401,14.199 l 0,56.64 c 0,7.842 6.448,14.199 14.401,14.199 l 56.239,0 c 7.953,0 14.4,-6.357 14.4,-14.199 l 0,-56.64 z"
       style="fill:none;stroke:#ff003f;stroke-width:0.82771653;stroke-linecap:butt;stroke-linejoin:miter;stroke-miterlimit:4;stroke-opacity:1;stroke-dasharray:none"
       id="path2944-4-9-2" /><path
       d="m 323.14963,184.252 c 0,-7.842 -6.447,-14.199 -14.4,-14.199 l -56.239,0 c -7.953,0 -14.401,6.357 -14.401,14.199 l 0,56.64 c 0,7.842 6.448,14.199 14.401,14.199 l 56.239,0 c 7.953,0 14.4,-6.357 14.4,-14.199 l 0,-56.64 z"
       style="fill:none;stroke:#ff003f;stroke-width:0.82771653;stroke-linecap:butt;stroke-linejoin:miter;stroke-miterlimit:4;stroke-opacity:1;stroke-dasharray:none"
       id="path2944-6-75-2" /><path
       d="m 419.52759,184.252 c 0,-7.842 -6.447,-14.199 -14.4,-14.199 l -56.239,0 c -7.953,0 -14.401,6.357 -14.401,14.199 l 0,56.64 c 0,7.842 6.448,14.199 14.401,14.199 l 56.239,0 c 7.953,0 14.4,-6.357 14.4,-14.199 l 0,-56.64 z"
       style="fill:none;stroke:#ff003f;stroke-width:0.82771653;stroke-linecap:butt;stroke-linejoin:miter;stroke-miterlimit:4;stroke-opacity:1;stroke-dasharray:none"
       id="path2944-4-3-3-4" /><path
       d="m 515.90551,184.252 c 0,-7.842 -6.447,-14.199 -14.4,-14.199 l -56.239,0 c -7.953,0 -14.401,6.357 -14.401,14.199 l 0,56.64 c 0,7.842 6.448,14.199 14.401,14.199 l 56.239,0 c 7.953,0 14.4,-6.357 14.4,-14.199 l 0,-56.64 z"
       style="fill:none;stroke:#ff003f;stroke-width:0.82771653;stroke-linecap:butt;stroke-linejoin:miter;stroke-miterlimit:4;stroke-opacity:1;stroke-dasharray:none"
       id="path2944-1-8-7" /><path
       d="m 612.28347,184.252 c 0,-7.842 -6.447,-14.199 -14.4,-14.199 l -56.239,0 c -7.953,0 -14.401,6.357 -14.401,14.199 l 0,56.64 c 0,7.842 6.448,14.199 14.401,14.199 l 56.239,0 c 7.953,0 14.4,-6.357 14.4,-14.199 l 0,-56.64 z"
       style="fill:none;stroke:#ff003f;stroke-width:0.82771653;stroke-linecap:butt;stroke-linejoin:miter;stroke-miterlimit:4;stroke-opacity:1;stroke-dasharray:none"
       id="path2944-4-7-8-7" /><path
       d="m 708.66147,184.252 c 0,-7.842 -6.447,-14.199 -14.4,-14.199 l -56.239,0 c -7.953,0 -14.401,6.357 -14.401,14.199 l 0,56.64 c 0,7.842 6.448,14.199 14.401,14.199 l 56.239,0 c 7.953,0 14.4,-6.357 14.4,-14.199 l 0,-56.64 z"
       style="fill:none;stroke:#ff003f;stroke-width:0.82771653;stroke-linecap:butt;stroke-linejoin:miter;stroke-miterlimit:4;stroke-opacity:1;stroke-dasharray:none"
       id="path2944-6-5-3-5" /><path
       d="m 805.03937,184.252 c 0,-7.842 -6.447,-14.199 -14.4,-14.199 l -56.239,0 c -7.953,0 -14.401,6.357 -14.401,14.199 l 0,56.64 c 0,7.842 6.448,14.199 14.401,14.199 l 56.239,0 c 7.953,0 14.4,-6.357 14.4,-14.199 l 0,-56.64 z"
       style="fill:none;stroke:#ff003f;stroke-width:0.82771653;stroke-linecap:butt;stroke-linejoin:miter;stroke-miterlimit:4;stroke-opacity:1;stroke-dasharray:none"
       id="path2944-4-3-9-18-4" /><path
       d="m 130.39372,87.874053 c 0,-7.842 -6.447,-14.199 -14.4,-14.199 l -56.238992,0 c -7.953,0 -14.401,6.357 -14.401,14.199 l 0,56.639997 c 0,7.842 6.448,14.199 14.401,14.199 l 56.238992,0 c 7.953,0 14.4,-6.357 14.4,-14.199 l 0,-56.639997 z"
       style="fill:none;stroke:#ff003f;stroke-width:0.82771653;stroke-linecap:butt;stroke-linejoin:miter;stroke-miterlimit:4;stroke-opacity:1;stroke-dasharray:none"
       id="path2944-64-8" /><path
       d="m 226.7717,87.874053 c 0,-7.842 -6.447,-14.199 -14.4,-14.199 l -56.239,0 c -7.953,0 -14.40102,6.357 -14.40102,14.199 l 0,56.639997 c 0,7.842 6.44802,14.199 14.40102,14.199 l 56.239,0 c 7.953,0 14.4,-6.357 14.4,-14.199 l 0,-56.639997 z"
       style="fill:none;stroke:#ff003f;stroke-width:0.82771653;stroke-linecap:butt;stroke-linejoin:miter;stroke-miterlimit:4;stroke-opacity:1;stroke-dasharray:none"
       id="path2944-4-33-1" /><path
       d="m 323.14964,87.874053 c 0,-7.842 -6.447,-14.199 -14.4,-14.199 l -56.23898,0 c -7.953,0 -14.401,6.357 -14.401,14.199 l 0,56.639997 c 0,7.842 6.448,14.199 14.401,14.199 l 56.23898,0 c 7.953,0 14.4,-6.357 14.4,-14.199 l 0,-56.639997 z"
       style="fill:none;stroke:#ff003f;stroke-width:0.82771653;stroke-linecap:butt;stroke-linejoin:miter;stroke-miterlimit:4;stroke-opacity:1;stroke-dasharray:none"
       id="path2944-6-3-2" /><path
       d="m 419.52762,87.874053 c 0,-7.842 -6.447,-14.199 -14.4,-14.199 l -56.239,0 c -7.953,0 -14.40102,6.357 -14.40102,14.199 l 0,56.639997 c 0,7.842 6.44802,14.199 14.40102,14.199 l 56.239,0 c 7.953,0 14.4,-6.357 14.4,-14.199 l 0,-56.639997 z"
       style="fill:none;stroke:#ff003f;stroke-width:0.82771653;stroke-linecap:butt;stroke-linejoin:miter;stroke-miterlimit:4;stroke-opacity:1;stroke-dasharray:none"
       id="path2944-4-3-86-8" /><path
       d="m 515.90554,87.874053 c 0,-7.842 -6.447,-14.199 -14.4,-14.199 l -56.239,0 c -7.953,0 -14.401,6.357 -14.401,14.199 l 0,56.639997 c 0,7.842 6.448,14.199 14.401,14.199 l 56.239,0 c 7.953,0 14.4,-6.357 14.4,-14.199 l 0,-56.639997 z"
       style="fill:none;stroke:#ff003f;stroke-width:0.82771653;stroke-linecap:butt;stroke-linejoin:miter;stroke-miterlimit:4;stroke-opacity:1;stroke-dasharray:none"
       id="path2944-1-0-9" /><path
       d="m 612.28347,87.874053 c 0,-7.842 -6.447,-14.199 -14.4,-14.199 l -56.23897,0 c -7.953,0 -14.401,6.357 -14.401,14.199 l 0,56.639997 c 0,7.842 6.448,14.199 14.401,14.199 l 56.23897,0 c 7.953,0 14.4,-6.357 14.4,-14.199 l 0,-56.639997 z"
       style="fill:none;stroke:#ff003f;stroke-width:0.82771653;stroke-linecap:butt;stroke-linejoin:miter;stroke-miterlimit:4;stroke-opacity:1;stroke-dasharray:none"
       id="path2944-4-7-4-3" /><path
       d="m 708.66147,87.874053 c 0,-7.842 -6.447,-14.199 -14.4,-14.199 l -56.239,0 c -7.953,0 -14.401,6.357 -14.401,14.199 l 0,56.639997 c 0,7.842 6.448,14.199 14.401,14.199 l 56.239,0 c 7.953,0 14.4,-6.357 14.4,-14.199 l 0,-56.639997 z"
       style="fill:none;stroke:#ff003f;stroke-width:0.82771653;stroke-linecap:butt;stroke-linejoin:miter;stroke-miterlimit:4;stroke-opacity:1;stroke-dasharray:none"
       id="path2944-6-5-8-6" /><path
       d="m 805.03937,87.874053 c 0,-7.842 -6.447,-14.199 -14.4,-14.199 l -56.239,0 c -7.953,0 -14.401,6.357 -14.401,14.199 l 0,56.639997 c 0,7.842 6.448,14.199 14.401,14.199 l 56.239,0 c 7.953,0 14.4,-6.357 14.4,-14.199 l 0,-56.639997 z"
       style="fill:none;stroke:#ff003f;stroke-width:0.82771653;stroke-linecap:butt;stroke-linejoin:miter;stroke-miterlimit:4;stroke-opacity:1;stroke-dasharray:none"
       id="path2944-4-3-9-8-8" /></g></svg>