<?xml version="1.0" encoding="UTF-8" standalone="no"?>
<!-- Created with Inkscape (http://www.inkscape.org/) -->

<svg
   xmlns:dc="http://purl.org/dc/elements/1.1/"
   xmlns:cc="http://creativecommons.org/ns#"
   xmlns:rdf="http://www.w3.org/1999/02/22-rdf-syntax-ns#"
   xmlns:svg="http://www.w3.org/2000/svg"
   xmlns="http://www.w3.org/2000/svg"
   xmlns:sodipodi="http://sodipodi.sourceforge.net/DTD/sodipodi-0.dtd"
   xmlns:inkscape="http://www.inkscape.org/namespaces/inkscape"
   sodipodi:docname="paris.svg"
   xml:space="preserve"
   height="950"
   width="992.12598"
   inkscape:version="0.47 r22583"
   version="1.1"
   id="svg2816"><metadata
     id="metadata2822"><rdf:RDF><cc:Work
         rdf:about=""><dc:format>image/svg+xml</dc:format><dc:type
           rdf:resource="http://purl.org/dc/dcmitype/StillImage" /><dc:title /></cc:Work></rdf:RDF></metadata><defs
     id="defs2820"><inkscape:perspective
       sodipodi:type="inkscape:persp3d"
       inkscape:vp_x="0 : 0.5 : 1"
       inkscape:vp_y="0 : 1000 : 0"
       inkscape:vp_z="1 : 0.5 : 1"
       inkscape:persp3d-origin="0.5 : 0.33333333 : 1"
       id="perspective2824" /><clipPath
       clipPathUnits="userSpaceOnUse"
       id="clipPath2832"><path
         d="m 0,637.795 850.394,0 L 850.394,0 0,0 0,637.795 z"
         id="path2834" /></clipPath><inkscape:perspective
       id="perspective3893"
       inkscape:persp3d-origin="0.5 : 0.33333333 : 1"
       inkscape:vp_z="1 : 0.5 : 1"
       inkscape:vp_y="0 : 1000 : 0"
       inkscape:vp_x="0 : 0.5 : 1"
       sodipodi:type="inkscape:persp3d" /><inkscape:perspective
       id="perspective3917"
       inkscape:persp3d-origin="0.5 : 0.33333333 : 1"
       inkscape:vp_z="1 : 0.5 : 1"
       inkscape:vp_y="0 : 1000 : 0"
       inkscape:vp_x="0 : 0.5 : 1"
       sodipodi:type="inkscape:persp3d" /><inkscape:perspective
       id="perspective3939"
       inkscape:persp3d-origin="0.5 : 0.33333333 : 1"
       inkscape:vp_z="1 : 0.5 : 1"
       inkscape:vp_y="0 : 1000 : 0"
       inkscape:vp_x="0 : 0.5 : 1"
       sodipodi:type="inkscape:persp3d" /><inkscape:perspective
       id="perspective3983"
       inkscape:persp3d-origin="0.5 : 0.33333333 : 1"
       inkscape:vp_z="1 : 0.5 : 1"
       inkscape:vp_y="0 : 1000 : 0"
       inkscape:vp_x="0 : 0.5 : 1"
       sodipodi:type="inkscape:persp3d" /><inkscape:perspective
       id="perspective3997"
       inkscape:persp3d-origin="0.5 : 0.33333333 : 1"
       inkscape:vp_z="1 : 0.5 : 1"
       inkscape:vp_y="0 : 1000 : 0"
       inkscape:vp_x="0 : 0.5 : 1"
       sodipodi:type="inkscape:persp3d" /><inkscape:perspective
       id="perspective4019"
       inkscape:persp3d-origin="0.5 : 0.33333333 : 1"
       inkscape:vp_z="1 : 0.5 : 1"
       inkscape:vp_y="0 : 1000 : 0"
       inkscape:vp_x="0 : 0.5 : 1"
       sodipodi:type="inkscape:persp3d" /><inkscape:perspective
       id="perspective4042"
       inkscape:persp3d-origin="0.5 : 0.33333333 : 1"
       inkscape:vp_z="1 : 0.5 : 1"
       inkscape:vp_y="0 : 1000 : 0"
       inkscape:vp_x="0 : 0.5 : 1"
       sodipodi:type="inkscape:persp3d" /><inkscape:perspective
       id="perspective4064"
       inkscape:persp3d-origin="0.5 : 0.33333333 : 1"
       inkscape:vp_z="1 : 0.5 : 1"
       inkscape:vp_y="0 : 1000 : 0"
       inkscape:vp_x="0 : 0.5 : 1"
       sodipodi:type="inkscape:persp3d" /><inkscape:perspective
       id="perspective4078"
       inkscape:persp3d-origin="0.5 : 0.33333333 : 1"
       inkscape:vp_z="1 : 0.5 : 1"
       inkscape:vp_y="0 : 1000 : 0"
       inkscape:vp_x="0 : 0.5 : 1"
       sodipodi:type="inkscape:persp3d" /><inkscape:perspective
       id="perspective4092"
       inkscape:persp3d-origin="0.5 : 0.33333333 : 1"
       inkscape:vp_z="1 : 0.5 : 1"
       inkscape:vp_y="0 : 1000 : 0"
       inkscape:vp_x="0 : 0.5 : 1"
       sodipodi:type="inkscape:persp3d" /><inkscape:perspective
       id="perspective4114"
       inkscape:persp3d-origin="0.5 : 0.33333333 : 1"
       inkscape:vp_z="1 : 0.5 : 1"
       inkscape:vp_y="0 : 1000 : 0"
       inkscape:vp_x="0 : 0.5 : 1"
       sodipodi:type="inkscape:persp3d" /><inkscape:perspective
       id="perspective4158"
       inkscape:persp3d-origin="0.5 : 0.33333333 : 1"
       inkscape:vp_z="1 : 0.5 : 1"
       inkscape:vp_y="0 : 1000 : 0"
       inkscape:vp_x="0 : 0.5 : 1"
       sodipodi:type="inkscape:persp3d" /><inkscape:perspective
       id="perspective4183"
       inkscape:persp3d-origin="0.5 : 0.33333333 : 1"
       inkscape:vp_z="1 : 0.5 : 1"
       inkscape:vp_y="0 : 1000 : 0"
       inkscape:vp_x="0 : 0.5 : 1"
       sodipodi:type="inkscape:persp3d" /><inkscape:perspective
       id="perspective4212"
       inkscape:persp3d-origin="0.5 : 0.33333333 : 1"
       inkscape:vp_z="1 : 0.5 : 1"
       inkscape:vp_y="0 : 1000 : 0"
       inkscape:vp_x="0 : 0.5 : 1"
       sodipodi:type="inkscape:persp3d" /><inkscape:perspective
       id="perspective4235"
       inkscape:persp3d-origin="0.5 : 0.33333333 : 1"
       inkscape:vp_z="1 : 0.5 : 1"
       inkscape:vp_y="0 : 1000 : 0"
       inkscape:vp_x="0 : 0.5 : 1"
       sodipodi:type="inkscape:persp3d" /><inkscape:perspective
       id="perspective4249"
       inkscape:persp3d-origin="0.5 : 0.33333333 : 1"
       inkscape:vp_z="1 : 0.5 : 1"
       inkscape:vp_y="0 : 1000 : 0"
       inkscape:vp_x="0 : 0.5 : 1"
       sodipodi:type="inkscape:persp3d" /><inkscape:perspective
       id="perspective4274"
       inkscape:persp3d-origin="0.5 : 0.33333333 : 1"
       inkscape:vp_z="1 : 0.5 : 1"
       inkscape:vp_y="0 : 1000 : 0"
       inkscape:vp_x="0 : 0.5 : 1"
       sodipodi:type="inkscape:persp3d" /><inkscape:perspective
       id="perspective4297"
       inkscape:persp3d-origin="0.5 : 0.33333333 : 1"
       inkscape:vp_z="1 : 0.5 : 1"
       inkscape:vp_y="0 : 1000 : 0"
       inkscape:vp_x="0 : 0.5 : 1"
       sodipodi:type="inkscape:persp3d" /><inkscape:perspective
       id="perspective4319"
       inkscape:persp3d-origin="0.5 : 0.33333333 : 1"
       inkscape:vp_z="1 : 0.5 : 1"
       inkscape:vp_y="0 : 1000 : 0"
       inkscape:vp_x="0 : 0.5 : 1"
       sodipodi:type="inkscape:persp3d" /><inkscape:perspective
       id="perspective4341"
       inkscape:persp3d-origin="0.5 : 0.33333333 : 1"
       inkscape:vp_z="1 : 0.5 : 1"
       inkscape:vp_y="0 : 1000 : 0"
       inkscape:vp_x="0 : 0.5 : 1"
       sodipodi:type="inkscape:persp3d" /><inkscape:perspective
       id="perspective4364"
       inkscape:persp3d-origin="0.5 : 0.33333333 : 1"
       inkscape:vp_z="1 : 0.5 : 1"
       inkscape:vp_y="0 : 1000 : 0"
       inkscape:vp_x="0 : 0.5 : 1"
       sodipodi:type="inkscape:persp3d" /><inkscape:perspective
       id="perspective4408"
       inkscape:persp3d-origin="0.5 : 0.33333333 : 1"
       inkscape:vp_z="1 : 0.5 : 1"
       inkscape:vp_y="0 : 1000 : 0"
       inkscape:vp_x="0 : 0.5 : 1"
       sodipodi:type="inkscape:persp3d" /><inkscape:perspective
       id="perspective4430"
       inkscape:persp3d-origin="0.5 : 0.33333333 : 1"
       inkscape:vp_z="1 : 0.5 : 1"
       inkscape:vp_y="0 : 1000 : 0"
       inkscape:vp_x="0 : 0.5 : 1"
       sodipodi:type="inkscape:persp3d" /><inkscape:perspective
       id="perspective4453"
       inkscape:persp3d-origin="0.5 : 0.33333333 : 1"
       inkscape:vp_z="1 : 0.5 : 1"
       inkscape:vp_y="0 : 1000 : 0"
       inkscape:vp_x="0 : 0.5 : 1"
       sodipodi:type="inkscape:persp3d" /><inkscape:perspective
       id="perspective4475"
       inkscape:persp3d-origin="0.5 : 0.33333333 : 1"
       inkscape:vp_z="1 : 0.5 : 1"
       inkscape:vp_y="0 : 1000 : 0"
       inkscape:vp_x="0 : 0.5 : 1"
       sodipodi:type="inkscape:persp3d" /><inkscape:perspective
       id="perspective4500"
       inkscape:persp3d-origin="0.5 : 0.33333333 : 1"
       inkscape:vp_z="1 : 0.5 : 1"
       inkscape:vp_y="0 : 1000 : 0"
       inkscape:vp_x="0 : 0.5 : 1"
       sodipodi:type="inkscape:persp3d" /><inkscape:perspective
       id="perspective4531"
       inkscape:persp3d-origin="0.5 : 0.33333333 : 1"
       inkscape:vp_z="1 : 0.5 : 1"
       inkscape:vp_y="0 : 1000 : 0"
       inkscape:vp_x="0 : 0.5 : 1"
       sodipodi:type="inkscape:persp3d" /><inkscape:perspective
       id="perspective4566"
       inkscape:persp3d-origin="0.5 : 0.33333333 : 1"
       inkscape:vp_z="1 : 0.5 : 1"
       inkscape:vp_y="0 : 1000 : 0"
       inkscape:vp_x="0 : 0.5 : 1"
       sodipodi:type="inkscape:persp3d" /><inkscape:perspective
       id="perspective4588"
       inkscape:persp3d-origin="0.5 : 0.33333333 : 1"
       inkscape:vp_z="1 : 0.5 : 1"
       inkscape:vp_y="0 : 1000 : 0"
       inkscape:vp_x="0 : 0.5 : 1"
       sodipodi:type="inkscape:persp3d" /><inkscape:perspective
       id="perspective4623"
       inkscape:persp3d-origin="0.5 : 0.33333333 : 1"
       inkscape:vp_z="1 : 0.5 : 1"
       inkscape:vp_y="0 : 1000 : 0"
       inkscape:vp_x="0 : 0.5 : 1"
       sodipodi:type="inkscape:persp3d" /><inkscape:perspective
       id="perspective4623-2"
       inkscape:persp3d-origin="0.5 : 0.33333333 : 1"
       inkscape:vp_z="1 : 0.5 : 1"
       inkscape:vp_y="0 : 1000 : 0"
       inkscape:vp_x="0 : 0.5 : 1"
       sodipodi:type="inkscape:persp3d" /><inkscape:perspective
       id="perspective4672"
       inkscape:persp3d-origin="0.5 : 0.33333333 : 1"
       inkscape:vp_z="1 : 0.5 : 1"
       inkscape:vp_y="0 : 1000 : 0"
       inkscape:vp_x="0 : 0.5 : 1"
       sodipodi:type="inkscape:persp3d" /><inkscape:perspective
       id="perspective4694"
       inkscape:persp3d-origin="0.5 : 0.33333333 : 1"
       inkscape:vp_z="1 : 0.5 : 1"
       inkscape:vp_y="0 : 1000 : 0"
       inkscape:vp_x="0 : 0.5 : 1"
       sodipodi:type="inkscape:persp3d" /><inkscape:perspective
       id="perspective4716"
       inkscape:persp3d-origin="0.5 : 0.33333333 : 1"
       inkscape:vp_z="1 : 0.5 : 1"
       inkscape:vp_y="0 : 1000 : 0"
       inkscape:vp_x="0 : 0.5 : 1"
       sodipodi:type="inkscape:persp3d" /><inkscape:perspective
       id="perspective4716-6"
       inkscape:persp3d-origin="0.5 : 0.33333333 : 1"
       inkscape:vp_z="1 : 0.5 : 1"
       inkscape:vp_y="0 : 1000 : 0"
       inkscape:vp_x="0 : 0.5 : 1"
       sodipodi:type="inkscape:persp3d" /><inkscape:perspective
       id="perspective4752"
       inkscape:persp3d-origin="0.5 : 0.33333333 : 1"
       inkscape:vp_z="1 : 0.5 : 1"
       inkscape:vp_y="0 : 1000 : 0"
       inkscape:vp_x="0 : 0.5 : 1"
       sodipodi:type="inkscape:persp3d" /><inkscape:perspective
       id="perspective4752-2"
       inkscape:persp3d-origin="0.5 : 0.33333333 : 1"
       inkscape:vp_z="1 : 0.5 : 1"
       inkscape:vp_y="0 : 1000 : 0"
       inkscape:vp_x="0 : 0.5 : 1"
       sodipodi:type="inkscape:persp3d" /><inkscape:perspective
       id="perspective4752-4"
       inkscape:persp3d-origin="0.5 : 0.33333333 : 1"
       inkscape:vp_z="1 : 0.5 : 1"
       inkscape:vp_y="0 : 1000 : 0"
       inkscape:vp_x="0 : 0.5 : 1"
       sodipodi:type="inkscape:persp3d" /><inkscape:perspective
       id="perspective4752-5"
       inkscape:persp3d-origin="0.5 : 0.33333333 : 1"
       inkscape:vp_z="1 : 0.5 : 1"
       inkscape:vp_y="0 : 1000 : 0"
       inkscape:vp_x="0 : 0.5 : 1"
       sodipodi:type="inkscape:persp3d" /><inkscape:perspective
       id="perspective4752-7"
       inkscape:persp3d-origin="0.5 : 0.33333333 : 1"
       inkscape:vp_z="1 : 0.5 : 1"
       inkscape:vp_y="0 : 1000 : 0"
       inkscape:vp_x="0 : 0.5 : 1"
       sodipodi:type="inkscape:persp3d" /><inkscape:perspective
       id="perspective4752-3"
       inkscape:persp3d-origin="0.5 : 0.33333333 : 1"
       inkscape:vp_z="1 : 0.5 : 1"
       inkscape:vp_y="0 : 1000 : 0"
       inkscape:vp_x="0 : 0.5 : 1"
       sodipodi:type="inkscape:persp3d" /><inkscape:perspective
       id="perspective4819"
       inkscape:persp3d-origin="0.5 : 0.33333333 : 1"
       inkscape:vp_z="1 : 0.5 : 1"
       inkscape:vp_y="0 : 1000 : 0"
       inkscape:vp_x="0 : 0.5 : 1"
       sodipodi:type="inkscape:persp3d" /><inkscape:perspective
       id="perspective4850"
       inkscape:persp3d-origin="0.5 : 0.33333333 : 1"
       inkscape:vp_z="1 : 0.5 : 1"
       inkscape:vp_y="0 : 1000 : 0"
       inkscape:vp_x="0 : 0.5 : 1"
       sodipodi:type="inkscape:persp3d" /><inkscape:perspective
       id="perspective2930"
       inkscape:persp3d-origin="0.5 : 0.33333333 : 1"
       inkscape:vp_z="1 : 0.5 : 1"
       inkscape:vp_y="0 : 1000 : 0"
       inkscape:vp_x="0 : 0.5 : 1"
       sodipodi:type="inkscape:persp3d" /><inkscape:perspective
       id="perspective3720"
       inkscape:persp3d-origin="0.5 : 0.33333333 : 1"
       inkscape:vp_z="1 : 0.5 : 1"
       inkscape:vp_y="0 : 1000 : 0"
       inkscape:vp_x="0 : 0.5 : 1"
       sodipodi:type="inkscape:persp3d" /><inkscape:perspective
       id="perspective3765"
       inkscape:persp3d-origin="0.5 : 0.33333333 : 1"
       inkscape:vp_z="1 : 0.5 : 1"
       inkscape:vp_y="0 : 1000 : 0"
       inkscape:vp_x="0 : 0.5 : 1"
       sodipodi:type="inkscape:persp3d" /><inkscape:perspective
       id="perspective3788"
       inkscape:persp3d-origin="0.5 : 0.33333333 : 1"
       inkscape:vp_z="1 : 0.5 : 1"
       inkscape:vp_y="0 : 1000 : 0"
       inkscape:vp_x="0 : 0.5 : 1"
       sodipodi:type="inkscape:persp3d" /><inkscape:perspective
       id="perspective3810"
       inkscape:persp3d-origin="0.5 : 0.33333333 : 1"
       inkscape:vp_z="1 : 0.5 : 1"
       inkscape:vp_y="0 : 1000 : 0"
       inkscape:vp_x="0 : 0.5 : 1"
       sodipodi:type="inkscape:persp3d" /><inkscape:perspective
       id="perspective3828"
       inkscape:persp3d-origin="0.5 : 0.33333333 : 1"
       inkscape:vp_z="1 : 0.5 : 1"
       inkscape:vp_y="0 : 1000 : 0"
       inkscape:vp_x="0 : 0.5 : 1"
       sodipodi:type="inkscape:persp3d" /><inkscape:perspective
       id="perspective3851"
       inkscape:persp3d-origin="0.5 : 0.33333333 : 1"
       inkscape:vp_z="1 : 0.5 : 1"
       inkscape:vp_y="0 : 1000 : 0"
       inkscape:vp_x="0 : 0.5 : 1"
       sodipodi:type="inkscape:persp3d" /><inkscape:perspective
       id="perspective3873"
       inkscape:persp3d-origin="0.5 : 0.33333333 : 1"
       inkscape:vp_z="1 : 0.5 : 1"
       inkscape:vp_y="0 : 1000 : 0"
       inkscape:vp_x="0 : 0.5 : 1"
       sodipodi:type="inkscape:persp3d" /><inkscape:perspective
       id="perspective3890"
       inkscape:persp3d-origin="0.5 : 0.33333333 : 1"
       inkscape:vp_z="1 : 0.5 : 1"
       inkscape:vp_y="0 : 1000 : 0"
       inkscape:vp_x="0 : 0.5 : 1"
       sodipodi:type="inkscape:persp3d" /><inkscape:perspective
       id="perspective3928"
       inkscape:persp3d-origin="0.5 : 0.33333333 : 1"
       inkscape:vp_z="1 : 0.5 : 1"
       inkscape:vp_y="0 : 1000 : 0"
       inkscape:vp_x="0 : 0.5 : 1"
       sodipodi:type="inkscape:persp3d" /><inkscape:perspective
       id="perspective3957"
       inkscape:persp3d-origin="0.5 : 0.33333333 : 1"
       inkscape:vp_z="1 : 0.5 : 1"
       inkscape:vp_y="0 : 1000 : 0"
       inkscape:vp_x="0 : 0.5 : 1"
       sodipodi:type="inkscape:persp3d" /><inkscape:perspective
       id="perspective3980"
       inkscape:persp3d-origin="0.5 : 0.33333333 : 1"
       inkscape:vp_z="1 : 0.5 : 1"
       inkscape:vp_y="0 : 1000 : 0"
       inkscape:vp_x="0 : 0.5 : 1"
       sodipodi:type="inkscape:persp3d" /><inkscape:perspective
       id="perspective4002"
       inkscape:persp3d-origin="0.5 : 0.33333333 : 1"
       inkscape:vp_z="1 : 0.5 : 1"
       inkscape:vp_y="0 : 1000 : 0"
       inkscape:vp_x="0 : 0.5 : 1"
       sodipodi:type="inkscape:persp3d" /><inkscape:perspective
       id="perspective4024"
       inkscape:persp3d-origin="0.5 : 0.33333333 : 1"
       inkscape:vp_z="1 : 0.5 : 1"
       inkscape:vp_y="0 : 1000 : 0"
       inkscape:vp_x="0 : 0.5 : 1"
       sodipodi:type="inkscape:persp3d" /><inkscape:perspective
       id="perspective4062"
       inkscape:persp3d-origin="0.5 : 0.33333333 : 1"
       inkscape:vp_z="1 : 0.5 : 1"
       inkscape:vp_y="0 : 1000 : 0"
       inkscape:vp_x="0 : 0.5 : 1"
       sodipodi:type="inkscape:persp3d" /><inkscape:perspective
       id="perspective4085"
       inkscape:persp3d-origin="0.5 : 0.33333333 : 1"
       inkscape:vp_z="1 : 0.5 : 1"
       inkscape:vp_y="0 : 1000 : 0"
       inkscape:vp_x="0 : 0.5 : 1"
       sodipodi:type="inkscape:persp3d" /><inkscape:perspective
       id="perspective4129"
       inkscape:persp3d-origin="0.5 : 0.33333333 : 1"
       inkscape:vp_z="1 : 0.5 : 1"
       inkscape:vp_y="0 : 1000 : 0"
       inkscape:vp_x="0 : 0.5 : 1"
       sodipodi:type="inkscape:persp3d" /><inkscape:perspective
       id="perspective4152"
       inkscape:persp3d-origin="0.5 : 0.33333333 : 1"
       inkscape:vp_z="1 : 0.5 : 1"
       inkscape:vp_y="0 : 1000 : 0"
       inkscape:vp_x="0 : 0.5 : 1"
       sodipodi:type="inkscape:persp3d" /><inkscape:perspective
       id="perspective4174"
       inkscape:persp3d-origin="0.5 : 0.33333333 : 1"
       inkscape:vp_z="1 : 0.5 : 1"
       inkscape:vp_y="0 : 1000 : 0"
       inkscape:vp_x="0 : 0.5 : 1"
       sodipodi:type="inkscape:persp3d" /><inkscape:perspective
       id="perspective4190"
       inkscape:persp3d-origin="0.5 : 0.33333333 : 1"
       inkscape:vp_z="1 : 0.5 : 1"
       inkscape:vp_y="0 : 1000 : 0"
       inkscape:vp_x="0 : 0.5 : 1"
       sodipodi:type="inkscape:persp3d" /><inkscape:perspective
       id="perspective4213"
       inkscape:persp3d-origin="0.5 : 0.33333333 : 1"
       inkscape:vp_z="1 : 0.5 : 1"
       inkscape:vp_y="0 : 1000 : 0"
       inkscape:vp_x="0 : 0.5 : 1"
       sodipodi:type="inkscape:persp3d" /><inkscape:perspective
       id="perspective4235-2"
       inkscape:persp3d-origin="0.5 : 0.33333333 : 1"
       inkscape:vp_z="1 : 0.5 : 1"
       inkscape:vp_y="0 : 1000 : 0"
       inkscape:vp_x="0 : 0.5 : 1"
       sodipodi:type="inkscape:persp3d" /><inkscape:perspective
       id="perspective4257"
       inkscape:persp3d-origin="0.5 : 0.33333333 : 1"
       inkscape:vp_z="1 : 0.5 : 1"
       inkscape:vp_y="0 : 1000 : 0"
       inkscape:vp_x="0 : 0.5 : 1"
       sodipodi:type="inkscape:persp3d" /><inkscape:perspective
       id="perspective4257-5"
       inkscape:persp3d-origin="0.5 : 0.33333333 : 1"
       inkscape:vp_z="1 : 0.5 : 1"
       inkscape:vp_y="0 : 1000 : 0"
       inkscape:vp_x="0 : 0.5 : 1"
       sodipodi:type="inkscape:persp3d" /><inkscape:perspective
       id="perspective4257-6"
       inkscape:persp3d-origin="0.5 : 0.33333333 : 1"
       inkscape:vp_z="1 : 0.5 : 1"
       inkscape:vp_y="0 : 1000 : 0"
       inkscape:vp_x="0 : 0.5 : 1"
       sodipodi:type="inkscape:persp3d" /><inkscape:perspective
       id="perspective4298"
       inkscape:persp3d-origin="0.5 : 0.33333333 : 1"
       inkscape:vp_z="1 : 0.5 : 1"
       inkscape:vp_y="0 : 1000 : 0"
       inkscape:vp_x="0 : 0.5 : 1"
       sodipodi:type="inkscape:persp3d" /><inkscape:perspective
       id="perspective4345"
       inkscape:persp3d-origin="0.5 : 0.33333333 : 1"
       inkscape:vp_z="1 : 0.5 : 1"
       inkscape:vp_y="0 : 1000 : 0"
       inkscape:vp_x="0 : 0.5 : 1"
       sodipodi:type="inkscape:persp3d" /><inkscape:perspective
       id="perspective4373"
       inkscape:persp3d-origin="0.5 : 0.33333333 : 1"
       inkscape:vp_z="1 : 0.5 : 1"
       inkscape:vp_y="0 : 1000 : 0"
       inkscape:vp_x="0 : 0.5 : 1"
       sodipodi:type="inkscape:persp3d" /><inkscape:perspective
       id="perspective4428"
       inkscape:persp3d-origin="0.5 : 0.33333333 : 1"
       inkscape:vp_z="1 : 0.5 : 1"
       inkscape:vp_y="0 : 1000 : 0"
       inkscape:vp_x="0 : 0.5 : 1"
       sodipodi:type="inkscape:persp3d" /><inkscape:perspective
       id="perspective4428-9"
       inkscape:persp3d-origin="0.5 : 0.33333333 : 1"
       inkscape:vp_z="1 : 0.5 : 1"
       inkscape:vp_y="0 : 1000 : 0"
       inkscape:vp_x="0 : 0.5 : 1"
       sodipodi:type="inkscape:persp3d" /><inkscape:perspective
       id="perspective4464"
       inkscape:persp3d-origin="0.5 : 0.33333333 : 1"
       inkscape:vp_z="1 : 0.5 : 1"
       inkscape:vp_y="0 : 1000 : 0"
       inkscape:vp_x="0 : 0.5 : 1"
       sodipodi:type="inkscape:persp3d" /><inkscape:perspective
       id="perspective4501"
       inkscape:persp3d-origin="0.5 : 0.33333333 : 1"
       inkscape:vp_z="1 : 0.5 : 1"
       inkscape:vp_y="0 : 1000 : 0"
       inkscape:vp_x="0 : 0.5 : 1"
       sodipodi:type="inkscape:persp3d" /><inkscape:perspective
       id="perspective4532"
       inkscape:persp3d-origin="0.5 : 0.33333333 : 1"
       inkscape:vp_z="1 : 0.5 : 1"
       inkscape:vp_y="0 : 1000 : 0"
       inkscape:vp_x="0 : 0.5 : 1"
       sodipodi:type="inkscape:persp3d" /><inkscape:perspective
       id="perspective4599"
       inkscape:persp3d-origin="0.5 : 0.33333333 : 1"
       inkscape:vp_z="1 : 0.5 : 1"
       inkscape:vp_y="0 : 1000 : 0"
       inkscape:vp_x="0 : 0.5 : 1"
       sodipodi:type="inkscape:persp3d" /><inkscape:perspective
       id="perspective4624"
       inkscape:persp3d-origin="0.5 : 0.33333333 : 1"
       inkscape:vp_z="1 : 0.5 : 1"
       inkscape:vp_y="0 : 1000 : 0"
       inkscape:vp_x="0 : 0.5 : 1"
       sodipodi:type="inkscape:persp3d" /><inkscape:perspective
       id="perspective4624-8"
       inkscape:persp3d-origin="0.5 : 0.33333333 : 1"
       inkscape:vp_z="1 : 0.5 : 1"
       inkscape:vp_y="0 : 1000 : 0"
       inkscape:vp_x="0 : 0.5 : 1"
       sodipodi:type="inkscape:persp3d" /><inkscape:perspective
       id="perspective3710"
       inkscape:persp3d-origin="0.5 : 0.33333333 : 1"
       inkscape:vp_z="1 : 0.5 : 1"
       inkscape:vp_y="0 : 1000 : 0"
       inkscape:vp_x="0 : 0.5 : 1"
       sodipodi:type="inkscape:persp3d" /><inkscape:perspective
       id="perspective3732"
       inkscape:persp3d-origin="0.5 : 0.33333333 : 1"
       inkscape:vp_z="1 : 0.5 : 1"
       inkscape:vp_y="0 : 1000 : 0"
       inkscape:vp_x="0 : 0.5 : 1"
       sodipodi:type="inkscape:persp3d" /><inkscape:perspective
       id="perspective3746"
       inkscape:persp3d-origin="0.5 : 0.33333333 : 1"
       inkscape:vp_z="1 : 0.5 : 1"
       inkscape:vp_y="0 : 1000 : 0"
       inkscape:vp_x="0 : 0.5 : 1"
       sodipodi:type="inkscape:persp3d" /><inkscape:perspective
       id="perspective3772"
       inkscape:persp3d-origin="0.5 : 0.33333333 : 1"
       inkscape:vp_z="1 : 0.5 : 1"
       inkscape:vp_y="0 : 1000 : 0"
       inkscape:vp_x="0 : 0.5 : 1"
       sodipodi:type="inkscape:persp3d" /><inkscape:perspective
       id="perspective3829"
       inkscape:persp3d-origin="0.5 : 0.33333333 : 1"
       inkscape:vp_z="1 : 0.5 : 1"
       inkscape:vp_y="0 : 1000 : 0"
       inkscape:vp_x="0 : 0.5 : 1"
       sodipodi:type="inkscape:persp3d" /><inkscape:perspective
       id="perspective3851-9"
       inkscape:persp3d-origin="0.5 : 0.33333333 : 1"
       inkscape:vp_z="1 : 0.5 : 1"
       inkscape:vp_y="0 : 1000 : 0"
       inkscape:vp_x="0 : 0.5 : 1"
       sodipodi:type="inkscape:persp3d" /><inkscape:perspective
       id="perspective3876"
       inkscape:persp3d-origin="0.5 : 0.33333333 : 1"
       inkscape:vp_z="1 : 0.5 : 1"
       inkscape:vp_y="0 : 1000 : 0"
       inkscape:vp_x="0 : 0.5 : 1"
       sodipodi:type="inkscape:persp3d" /><inkscape:perspective
       id="perspective3901"
       inkscape:persp3d-origin="0.5 : 0.33333333 : 1"
       inkscape:vp_z="1 : 0.5 : 1"
       inkscape:vp_y="0 : 1000 : 0"
       inkscape:vp_x="0 : 0.5 : 1"
       sodipodi:type="inkscape:persp3d" /><inkscape:perspective
       id="perspective3932"
       inkscape:persp3d-origin="0.5 : 0.33333333 : 1"
       inkscape:vp_z="1 : 0.5 : 1"
       inkscape:vp_y="0 : 1000 : 0"
       inkscape:vp_x="0 : 0.5 : 1"
       sodipodi:type="inkscape:persp3d" /><inkscape:perspective
       id="perspective3975"
       inkscape:persp3d-origin="0.5 : 0.33333333 : 1"
       inkscape:vp_z="1 : 0.5 : 1"
       inkscape:vp_y="0 : 1000 : 0"
       inkscape:vp_x="0 : 0.5 : 1"
       sodipodi:type="inkscape:persp3d" /><inkscape:perspective
       id="perspective3989"
       inkscape:persp3d-origin="0.5 : 0.33333333 : 1"
       inkscape:vp_z="1 : 0.5 : 1"
       inkscape:vp_y="0 : 1000 : 0"
       inkscape:vp_x="0 : 0.5 : 1"
       sodipodi:type="inkscape:persp3d" /><inkscape:perspective
       id="perspective4011"
       inkscape:persp3d-origin="0.5 : 0.33333333 : 1"
       inkscape:vp_z="1 : 0.5 : 1"
       inkscape:vp_y="0 : 1000 : 0"
       inkscape:vp_x="0 : 0.5 : 1"
       sodipodi:type="inkscape:persp3d" /><inkscape:perspective
       id="perspective4078-3"
       inkscape:persp3d-origin="0.5 : 0.33333333 : 1"
       inkscape:vp_z="1 : 0.5 : 1"
       inkscape:vp_y="0 : 1000 : 0"
       inkscape:vp_x="0 : 0.5 : 1"
       sodipodi:type="inkscape:persp3d" /><inkscape:perspective
       id="perspective4101"
       inkscape:persp3d-origin="0.5 : 0.33333333 : 1"
       inkscape:vp_z="1 : 0.5 : 1"
       inkscape:vp_y="0 : 1000 : 0"
       inkscape:vp_x="0 : 0.5 : 1"
       sodipodi:type="inkscape:persp3d" /><inkscape:perspective
       id="perspective4123"
       inkscape:persp3d-origin="0.5 : 0.33333333 : 1"
       inkscape:vp_z="1 : 0.5 : 1"
       inkscape:vp_y="0 : 1000 : 0"
       inkscape:vp_x="0 : 0.5 : 1"
       sodipodi:type="inkscape:persp3d" /><inkscape:perspective
       id="perspective4148"
       inkscape:persp3d-origin="0.5 : 0.33333333 : 1"
       inkscape:vp_z="1 : 0.5 : 1"
       inkscape:vp_y="0 : 1000 : 0"
       inkscape:vp_x="0 : 0.5 : 1"
       sodipodi:type="inkscape:persp3d" /><inkscape:perspective
       id="perspective4173"
       inkscape:persp3d-origin="0.5 : 0.33333333 : 1"
       inkscape:vp_z="1 : 0.5 : 1"
       inkscape:vp_y="0 : 1000 : 0"
       inkscape:vp_x="0 : 0.5 : 1"
       sodipodi:type="inkscape:persp3d" /><inkscape:perspective
       id="perspective4198"
       inkscape:persp3d-origin="0.5 : 0.33333333 : 1"
       inkscape:vp_z="1 : 0.5 : 1"
       inkscape:vp_y="0 : 1000 : 0"
       inkscape:vp_x="0 : 0.5 : 1"
       sodipodi:type="inkscape:persp3d" /><inkscape:perspective
       id="perspective4223"
       inkscape:persp3d-origin="0.5 : 0.33333333 : 1"
       inkscape:vp_z="1 : 0.5 : 1"
       inkscape:vp_y="0 : 1000 : 0"
       inkscape:vp_x="0 : 0.5 : 1"
       sodipodi:type="inkscape:persp3d" /><inkscape:perspective
       id="perspective4254"
       inkscape:persp3d-origin="0.5 : 0.33333333 : 1"
       inkscape:vp_z="1 : 0.5 : 1"
       inkscape:vp_y="0 : 1000 : 0"
       inkscape:vp_x="0 : 0.5 : 1"
       sodipodi:type="inkscape:persp3d" /><inkscape:perspective
       id="perspective4297-1"
       inkscape:persp3d-origin="0.5 : 0.33333333 : 1"
       inkscape:vp_z="1 : 0.5 : 1"
       inkscape:vp_y="0 : 1000 : 0"
       inkscape:vp_x="0 : 0.5 : 1"
       sodipodi:type="inkscape:persp3d" /><inkscape:perspective
       id="perspective4319-8"
       inkscape:persp3d-origin="0.5 : 0.33333333 : 1"
       inkscape:vp_z="1 : 0.5 : 1"
       inkscape:vp_y="0 : 1000 : 0"
       inkscape:vp_x="0 : 0.5 : 1"
       sodipodi:type="inkscape:persp3d" /><inkscape:perspective
       id="perspective4341-9"
       inkscape:persp3d-origin="0.5 : 0.33333333 : 1"
       inkscape:vp_z="1 : 0.5 : 1"
       inkscape:vp_y="0 : 1000 : 0"
       inkscape:vp_x="0 : 0.5 : 1"
       sodipodi:type="inkscape:persp3d" /><inkscape:perspective
       id="perspective4366"
       inkscape:persp3d-origin="0.5 : 0.33333333 : 1"
       inkscape:vp_z="1 : 0.5 : 1"
       inkscape:vp_y="0 : 1000 : 0"
       inkscape:vp_x="0 : 0.5 : 1"
       sodipodi:type="inkscape:persp3d" /><inkscape:perspective
       id="perspective4391"
       inkscape:persp3d-origin="0.5 : 0.33333333 : 1"
       inkscape:vp_z="1 : 0.5 : 1"
       inkscape:vp_y="0 : 1000 : 0"
       inkscape:vp_x="0 : 0.5 : 1"
       sodipodi:type="inkscape:persp3d" /><inkscape:perspective
       id="perspective4441"
       inkscape:persp3d-origin="0.5 : 0.33333333 : 1"
       inkscape:vp_z="1 : 0.5 : 1"
       inkscape:vp_y="0 : 1000 : 0"
       inkscape:vp_x="0 : 0.5 : 1"
       sodipodi:type="inkscape:persp3d" /><inkscape:perspective
       id="perspective2908"
       inkscape:persp3d-origin="0.5 : 0.33333333 : 1"
       inkscape:vp_z="1 : 0.5 : 1"
       inkscape:vp_y="0 : 1000 : 0"
       inkscape:vp_x="0 : 0.5 : 1"
       sodipodi:type="inkscape:persp3d" /></defs><sodipodi:namedview
     pagecolor="#ffffff"
     bordercolor="#666666"
     borderopacity="1"
     objecttolerance="10"
     gridtolerance="10"
     guidetolerance="10"
     inkscape:pageopacity="0"
     inkscape:pageshadow="2"
     inkscape:window-width="1366"
     inkscape:window-height="716"
     id="namedview2818"
     showgrid="true"
     inkscape:zoom="0.41863531"
     inkscape:cx="236.35747"
     inkscape:cy="248.02699"
     inkscape:window-x="0"
     inkscape:window-y="0"
     inkscape:window-maximized="1"
     inkscape:current-layer="g2826"
     inkscape:document-units="mm"
     units="mm"
     inkscape:snap-global="true"
     showguides="true"
     inkscape:guide-bbox="true"
     inkscape:object-nodes="true"><inkscape:grid
       type="xygrid"
       id="grid2879"
       empspacing="5"
       visible="true"
       enabled="true"
       snapvisiblegridlinesonly="true"
       units="mm"
       spacingx="0.5mm"
       spacingy="0.5mm" /></sodipodi:namedview><g
     id="g2826"
     inkscape:groupmode="layer"
     inkscape:label="layout-3mm-pieces"
     transform="matrix(1.25,0,0,-1.25,0,950.00003)"><path
       id="path2937-8-8"
       style="fill:none;stroke:#ff0000;stroke-width:0.80000001;stroke-miterlimit:4;stroke-opacity:1;stroke-dasharray:none"
       d="m 60.207753,38.267738 c 0,0 0,-2.83465 0,-2.83465 5.46948,1.75295 12.31598,0.48881 17.00787,2.83465 4.251974,0 4.251974,0 4.251974,0 0,0 0,8.50393 0,8.50393 0,0 0,0 -4.251974,0 -4.69189,2.34584 -11.53839,1.0817 -17.00787,2.83465 0,0 0,-2.83465 0,-2.83465 -8.78875,0 -17.0079,0 -17.0079,0 0,0 -0.65619,2.40352 -1.16653,4.04158 -3.57828,7.63984 -12.02963,11.32805 -20.09332,11.55901 0,5.19351 0,10.38701 0,15.58052 5.58437,-3.74692 11.51923,-6.94331 17.57736,-9.85073 5.07295,-2.01943 9.35178,-4.32249 15.02107,-4.32249 3.04257,-0.0206 6.64984,0.96357 5.66929,-2.83465 8.28563,-2.55796 16.99423,-2.57686 25.511804,-4.25197 2.10598,1.11528 5.24191,1.68022 7.08662,-1.41732 23.258013,-4.16507 37.355863,-3.96411 60.944883,-4.25197 6.29005,-1.00699 13.75205,2.163 19.84252,1.41732 4.25197,-7.08662 25.51181,-8.50394 25.51181,-9.92126 0,-1.41733 -21.25984,-2.83465 -25.51181,-9.92126 -6.09047,-0.74568 -13.55247,2.42431 -19.84252,1.41732 -23.58902,-0.28786 -37.68687,-0.0869 -60.944883,-4.25197 -1.8447,-3.09754 -4.98064,-2.5326 -7.08661,-1.41732 -8.517584,-1.67511 -17.226184,-1.69401 -25.511804,-4.25197 0.98054,-3.79822 -2.62672,-2.81405 -5.6693,-2.83465 -5.66929,0 -9.94812,-2.30306 -15.02106,-4.32249 -6.05814,-2.90742 -11.99299,-6.10381 -17.57736,-9.8507298 0,5.1935098 0,10.3870098 0,15.5805198 8.06369,0.23096 16.51504,3.91917 20.09332,11.55901 1.16654,4.04157 1.16654,4.04157 1.16652,4.04157 l 17.0079,0 z"
       sodipodi:nodetypes="ccccccccsccccccccccccccccccccccc" /><path
       id="path2937-8-8-1"
       style="fill:none;stroke:#ff0000;stroke-width:0.80000001;stroke-miterlimit:4;stroke-opacity:1;stroke-dasharray:none"
       d="m 223.13644,49.362178 c 1.48073,-6.84247 1.48073,-6.84247 0,-13.68494 5.46948,1.75295 12.37939,0.24466 17.07128,2.5905 0,2.83465 0,5.66929 0,8.50394 -4.69189,2.34584 -11.6018,0.83755 -17.07128,2.5905 z m -16.94447,-6.84247 c 0.1126,-1.89079 0.11262,1.89079 0,0 -0.1126,-1.89079 7.8e-4,-4.54683 -1.16652,-8.29354 -3.57828,-7.63984 -12.02962,-11.32805 -20.09332,-11.55901 0,-5.19351 0,-10.38701 0,-15.5805198 5.58438,3.7469198 11.51923,6.9433098 17.57736,9.8507298 5.07295,2.01943 9.35178,4.32249 15.02107,4.32249 3.04257,0.0206 6.64984,-0.96357 5.66929,2.83465 8.28563,2.55796 16.99423,2.57686 25.51181,4.25197 2.10598,-1.11528 5.24191,-1.68022 7.08662,1.41732 23.25801,4.16507 37.35586,3.96411 60.94488,4.25197 6.29005,1.00699 13.75205,-2.163 19.84252,-1.41732 1.53835,2.5639 7.08661,5.66929 7.08661,5.66929 0,0 -99.2126,0 -99.2126,0 0,0 0,8.50394 0,8.50394 0,0 99.2126,0 99.2126,0 0,0 -5.63707,3.25339 -7.08661,5.66929 -6.09047,0.74568 -13.55247,-2.42431 -19.84252,-1.41732 -23.58902,0.28786 -37.68687,0.0869 -60.94488,4.25197 -1.84471,3.09754 -4.98064,2.5326 -7.08663,1.41732 -8.51757,1.67511 -17.22617,1.69401 -25.5118,4.25197 0.98055,3.79822 -2.62672,2.81401 -5.66929,2.83465 -5.66929,0 -9.94812,2.30306 -15.02107,4.32249 -6.05813,2.90742 -11.993,6.10381 -17.57736,9.85073 0,-5.19351 0,-10.38701 0,-15.58052 8.06368,-0.23096 16.51504,-3.91917 20.09332,-11.55901 1.16728,-3.74671 1.05392,-6.40275 1.16652,-8.29354 z"
       sodipodi:nodetypes="cccccccccccccccccccccccccccccccc" /><path
       id="path3818-1"
       style="fill:none;stroke:#ff0000;stroke-width:0.80000001;stroke-linecap:butt;stroke-linejoin:miter;stroke-miterlimit:4;stroke-opacity:1;stroke-dasharray:none"
       d="m 539.82242,10.992151 c 4.25197,22.67716 4.25197,36.85039 0,59.52756 l -1.41733,-1.41732 -167.24409,0 0,-14.17323 1.41732,-1.41733 0,-8.50393 c 0,0 19.84252,0 19.84252,0 0,0 0,-8.50394 0,-8.50394 l -19.84252,0 0,-8.50394 -1.41732,-1.41732 0,-14.17323 167.24409,0 1.41733,-1.41732 z"
       sodipodi:nodetypes="ccccccccccccccc" /><path
       id="path3818-1-3"
       style="fill:none;stroke:#ff0000;stroke-width:0.80000001;stroke-linecap:butt;stroke-linejoin:miter;stroke-miterlimit:4;stroke-opacity:1;stroke-dasharray:none"
       d="m 609.68363,43.715508 c 0,0 -8.50394,0 -8.50394,0 0,0 0,28.34645 0,28.34645 -4.25197,-21.25984 -24.09449,-49.6063 -24.09449,-49.6063 l 14.17323,0 1.41733,1.41732 25.51181,0 1.41732,-1.41732 14.17323,0 c 0,0 -19.84252,28.34646 -24.09449,49.6063 0,0 0,-28.34645 0,-28.34645 z"
       sodipodi:nodetypes="ccccccccccc" /><path
       id="path3934-8"
       style="fill:none;stroke:#ff0000;stroke-width:0.80000001;stroke-miterlimit:4;stroke-opacity:1;stroke-dasharray:none"
       d="m 41.782533,197.00789 c 1.41733,0 -1.41733,0 0,0 1.41733,0 1.481,-7.51394 1.41733,-8.50394 2.83464,0 2.83464,-4.25197 0.86708,-4.13753 -0.42611,-1.12676 0.85809,-2.06579 6.03354,-4.41184 12.80702,-5.80544 17.0366,-12.81765 10.97803,-18.2005 -1.26519,-1.12407 -2.29923,-2.38407 -2.29787,-2.8 9.5e-4,-0.41592 3.75468,-1.67212 8.34071,-2.79157 5.28064,-1.289 6.22979,-1.6491 6.06808,-2.28715 -0.14043,-0.55413 0.39576,-1.55393 1.19153,-2.22179 1.77794,-1.49214 1.8163,-2.27566 0.17873,-3.65 -0.69746,-0.58535 -1.10906,-1.46479 -0.91463,-1.9543 0.22015,-0.55428 -0.54013,-2.02545 -5.3418,-2.65234 l -7.71011,-1.0066 c 0.28593,-28.09396 0.41574,-29.26148 1.0319,-57.350942 0,0 -8.50394,0 -8.50394,0 0,0 -1.41732,1.41733 -1.41732,1.41733 0,0 -5.65542,0 -5.65542,0 0,0 -0.0139,41.102362 -0.0139,41.102362 0,0 -8.50394,0 -8.50394,0 0,0 0.0379,-41.102362 0.0379,-41.102362 0,0 -5.70717,0 -5.70717,0 0,0 -1.41732,-1.41733 -1.41732,-1.41733 0,0 -8.50394,0 -8.50394,0 l 1.0319,57.350932 -7.71011,1.0066 c -4.80167,0.6269 -5.5619498,2.09806 -5.3417998,2.65234 0.1944298,0.48951 -0.21717,1.36895 -0.91463,1.9543 -1.63757,1.37434 -1.59921,2.15786 0.17873,3.65 0.79577,0.66786 1.3319598,1.66766 1.1915298,2.22179 -0.16171,0.63805 0.78744,0.99815 6.06808,2.28715 4.58603,1.11945 8.33975,2.37565 8.34071,2.79157 10e-4,0.41593 -1.03268,1.67593 -2.29787,2.8 -6.05857,5.38286 -1.82899,12.39507 10.97803,18.20051 5.17545,2.34605 6.45965,3.28508 6.03354,4.41184 -1.96756,-0.11444 -1.96756,4.13753 0.86708,4.13753 -0.0637,0.99 0,8.50394 1.41733,8.50394 l -2e-5,0 z"
       sodipodi:nodetypes="ccccssssssssccccccccccccccsssssssscccc" /><path
       id="path3934-8-0"
       style="fill:none;stroke:#ff0000;stroke-width:0.80000001;stroke-miterlimit:4;stroke-opacity:1;stroke-dasharray:none"
       d="m 108.3967,127.55908 c 0,0 8.50393,0 8.50393,0 0,0 0,53.85826 0,53.85826 0,0 2.57517,-0.78694 4.06599,-1.46273 12.80702,-5.80544 17.0366,-12.81765 10.97803,-18.2005 -1.26519,-1.12407 -2.29923,-2.38407 -2.29787,-2.8 9.6e-4,-0.41592 3.75468,-1.67213 8.34071,-2.79158 5.28064,-1.289 6.22979,-1.6491 6.06808,-2.28715 -0.14043,-0.55413 0.39576,-1.55393 1.19153,-2.22179 1.77794,-1.49214 1.8163,-2.27566 0.17873,-3.65 -0.69746,-0.58535 -1.10906,-1.46479 -0.91463,-1.9543 0.22015,-0.55428 -0.54013,-2.02545 -5.3418,-2.65234 l -7.71011,-1.0066 c 0.28593,-28.09397 0.41574,-29.2615 1.0319,-57.350962 0,0 -8.50394,0 -8.50394,0 0,0 -1.41732,1.41733 -1.41732,1.41733 0,0 -19.84252,0 -19.84252,0 0,0 -1.41732,-1.41733 -1.41732,-1.41733 0,0 -8.503943,0 -8.503943,0 l 1.0319,57.350952 -7.71011,1.0066 c -4.80167,0.6269 -5.56195,2.09806 -5.3418,2.65234 0.19443,0.48951 -0.21717,1.36895 -0.91463,1.9543 -1.637573,1.37434 -1.599213,2.15786 0.17873,3.65 0.79577,0.66786 1.33196,1.66766 1.19153,2.22179 -0.16171,0.63805 0.78744,0.99815 6.06808,2.28715 4.58603,1.11945 8.33975,2.37566 8.34071,2.79158 9.6e-4,0.41593 -1.03268,1.67593 -2.29787,2.8 -6.05857,5.38286 -1.82899,12.39507 10.978033,18.20051 1.57145,0.71234 4.06598,1.46273 4.06598,1.46273 0,0 0,-53.85826 0,-53.85826 z"
       sodipodi:nodetypes="cccssssssssccccccccccsssssssscc" /><path
       id="path4180-9"
       style="fill:none;stroke:#ff0000;stroke-width:0.80000001;stroke-miterlimit:4;stroke-opacity:1;stroke-dasharray:none"
       d="m 121.15261,205.51183 -9.92126,0 -1.41732,1.41732 -19.842543,0 c 0,0 0,32.59843 0,32.59843 0,0 -8.50393,0 -8.50393,0 l 0,-32.59843 -19.842518,0 -1.41732,-1.41732 -9.92126,0 0,8.50718 -2e-5,0 c 0,9.78632 0.97956,13.85942 4.1491,17.25244 1.46909,1.57266 2.2509,3.27397 2.2509,4.89824 0,2.69624 2.26368,9.34214 3.18206,9.34214 0.82702,0 2.41271,-5.75384 2.45075,-8.89282 0.0241,-1.9856 -0.90928,-3.00028 1.32616,-5.47084 l 0.81427,-1.54185 0.72951,0.34185 c 1.92173,2.0434 2.03815,2.65251 2.01983,10.56838 -0.0366,15.79887 3.327253,24.80497 11.004113,29.46176 l 3.524955,2.13824 0.0253,4.95427 c 0.0182,3.56035 0.4977,5.75494 1.70431,7.8 0.92346,1.56515 1.93679,2.84573 2.25183,2.84573 0.31504,0 -0.31504,0 0,0 0.31504,0 1.32837,-1.28058 2.25183,-2.84573 1.20661,-2.04506 1.68611,-4.23965 1.70431,-7.8 l 0.0253,-4.95427 3.52496,-2.13824 c 7.676873,-4.65679 11.040723,-13.66289 11.004123,-29.46176 -0.0183,-7.91587 0.0981,-8.52498 2.01983,-10.56838 l 0.72951,-0.34185 0.81427,1.54185 c 2.23544,2.47056 1.30206,3.48524 1.32616,5.47084 0.038,3.13898 1.62373,8.89282 2.45075,8.89282 0.91838,0 3.18206,-6.6459 3.18206,-9.34214 0,-1.62427 0.78181,-3.32558 2.2509,-4.89824 3.16954,-3.39302 4.1491,-7.46612 4.1491,-17.25244 l -2e-5,0 0,-8.50718 z"
       sodipodi:nodetypes="ccccccccccccsssscccscccsccscccscccssssccc" /><path
       id="path4180-9-3"
       style="fill:none;stroke:#ff0000;stroke-width:0.80000001;stroke-miterlimit:4;stroke-opacity:1;stroke-dasharray:none"
       d="m 7.7667742,205.51183 c 0,35.43307 0,0 -0.0853,35.00472 -0.0366,15.79887 3.3272498,24.80497 11.0041098,29.46176 l 3.25442,2.14769 c 0,0 0,-32.59842 0,-32.59842 0,0 8.50393,0 8.50393,0 l 0,32.59842 3.25445,-2.14769 c 7.67686,-4.65679 11.04071,-13.66289 11.00411,-29.46176 l -0.0853,-35.00472 -8.50396,0 c 0,0 -1.63073,1.41732 -1.63073,1.41732 l -16.63395,0 -1.57784,-1.41732 -8.5039098,0 -3e-5,0 z"
       sodipodi:nodetypes="cccccccccccccccc" /><path
       id="path4030-4-4"
       style="fill:none;stroke:#ff0000;stroke-width:0.80000001;stroke-miterlimit:4;stroke-opacity:1;stroke-dasharray:none"
       d="m 54.956827,336.97911 c 1.33603,-0.92939 2.24912,-5.39298 1.59009,-5.32555 -0.60884,-0.0122 -0.93712,-0.76219 -0.84413,-2.27497 0.086,-1.39863 0.42295,-1.94332 0.84413,-1.977 0.82615,-0.0661 0.82615,-7.08661 0.82615,-7.08661 0,0 0,-29.76378 0,-29.76378 l 6.24956,0 0,38.26772 8.50394,0 0.12839,-38.26772 6.37796,0 c 0,0 -0.0312,30.19216 -0.0312,30.19216 0,0 0.70714,6.63743 1.35861,6.63743 0.6351,0 0.81692,0.64821 0.81692,1.85336 0,1.20514 -0.18182,2.27562 -0.81692,2.27562 -1.70106,0 -1.7891,17.02069 -0.0491,19.68438 1.17625,1.80072 1.14596,2.38538 -0.16365,3.15861 -1.14388,0.6754 -1.43809,2.37119 -1.02077,5.88382 l 0.58627,4.93496 -17.98781,0.79984 c -5.07206,0.22553 -11.67095,1.1523 -18.12542,1.11525 -6.45447,-0.0371 6.45447,-0.0371 0,0 -6.45447,0.037 -13.05336,-0.88972 -18.12542,-1.11525 l -17.9878128,-0.79984 0.58627,-4.93496 c 0.41732,-3.51263 0.12311,-5.20842 -1.02077,-5.88382 -1.30961,-0.77323 -1.3399,-1.35789 -0.16365,-3.15861 1.74,-2.66369 1.65196,-19.68438 -0.0491,-19.68438 -0.6351,0 -0.81692,-1.07048 -0.81692,-2.27562 0,-1.20515 0.18182,-1.85336 0.81692,-1.85336 0.65147,0 1.35861,-6.63743 1.35861,-6.63743 0,0 -0.0312,-30.19216 -0.0312,-30.19216 l 6.3779498,0 0,38.26772 8.503943,0 0,-38.26772 6.37795,0 c 0,0 0,29.76378 0,29.76378 0,0 0,7.02051 0.82615,7.08661 0.42118,0.0337 0.75813,0.57837 0.84413,1.977 0.093,1.51278 -0.23529,2.26277 -0.84413,2.27497 -0.65903,-0.0674 0.25406,4.39616 1.59009,5.32555 7.09511,4.36031 16.3914,4.0409 23.51397,0 z"
       sodipodi:nodetypes="ccssccccccccsssssccccccccsssssccccccccssccc" /><path
       id="path4030-4-9-7-7"
       style="fill:none;stroke:#ff0000;stroke-width:0.80000001;stroke-miterlimit:4;stroke-opacity:1;stroke-dasharray:none"
       d="m 106.97938,290.5512 c 0,0 -21.259853,0 -21.259853,0 0,0 0.0312,30.19216 0.0312,30.19216 0,0 -0.70713,6.63743 -1.35861,6.63743 -0.6351,0 -0.81692,0.64821 -0.81692,1.85336 0,1.20514 0.18182,2.27562 0.81692,2.27562 1.70106,0 1.7891,17.02069 0.0491,19.68438 -1.17624,1.80072 -1.14596,2.38538 0.16366,3.15861 1.14388,0.6754 1.43809,2.37119 1.02077,5.88382 l -0.58627,4.93496 c 3.79688,0.32033 7.05812,0.49777 7.05812,0.49777 0,0 0,-36.85039 0,-36.85039 0,0 8.503923,0 8.503923,0 0,0 0,36.85039 0,36.85039 0,0 5.21667,-0.32212 7.05812,-0.49777 l -0.58626,-4.93496 c -0.41732,-3.51263 -0.12311,-5.20842 1.02077,-5.88382 1.3096,-0.77323 1.33989,-1.35789 0.16364,-3.15861 -1.74,-2.66369 -1.65196,-19.68438 0.0491,-19.68438 0.6351,0 0.81692,-1.07048 0.81692,-2.27562 0,-1.20515 -0.18182,-1.85336 -0.81692,-1.85336 -0.65147,0 -1.35861,-6.63743 -1.35861,-6.63743 0,0 0.0312,-30.19216 0.0312,-30.19216 z"
       sodipodi:nodetypes="cccsssssccccccccssssscc" /><path
       id="path4030-4-9-7-5-2"
       style="fill:none;stroke:#ff0000;stroke-width:0.80000001;stroke-miterlimit:4;stroke-opacity:1;stroke-dasharray:none"
       d="m 135.32584,290.5512 c 0,0 -21.25985,0 -21.25985,0 0,0 0.0312,30.19216 0.0312,30.19216 0,0 -0.70714,6.63743 -1.35861,6.63743 -0.6351,0 -0.81692,0.64821 -0.81692,1.85336 0,1.20514 0.18182,2.27562 0.81692,2.27562 1.70106,0 1.7891,17.02069 0.0491,19.68438 -1.17626,1.80072 -1.14596,2.38538 0.16365,3.15861 1.14388,0.6754 1.43809,2.37119 1.02077,5.88382 l -0.58628,4.93496 c 3.79688,0.32033 7.05812,0.49777 7.05812,0.49777 0,0 0,-36.85039 0,-36.85039 0,0 8.50394,0 8.50394,0 0,0 0,36.85039 0,36.85039 0,0 5.21666,-0.32212 7.05812,-0.49777 l -0.58627,-4.93496 c -0.41732,-3.51263 -0.12311,-5.20842 1.02077,-5.88382 1.3096,-0.77323 1.3399,-1.35789 0.16364,-3.15861 -1.74,-2.66369 -1.65196,-19.68438 0.0491,-19.68438 0.6351,0 0.81692,-1.07048 0.81692,-2.27562 0,-1.20515 -0.18182,-1.85336 -0.81692,-1.85336 -0.65147,0 -1.3586,-6.63743 -1.3586,-6.63743 0,0 0.0312,-30.19216 0.0312,-30.19216 z"
       sodipodi:nodetypes="cccsssssccccccccssssscc" /><path
       id="path4030-4-4-4"
       style="fill:none;stroke:#ff0000;stroke-width:0.80000001;stroke-miterlimit:4;stroke-opacity:1;stroke-dasharray:none"
       d="m 190.31116,336.97911 c 1.33603,-0.92939 2.24912,-5.39298 1.59009,-5.32555 -0.60884,-0.0122 -0.93712,-0.76219 -0.84413,-2.27497 0.086,-1.39863 0.42295,-1.94332 0.84413,-1.977 0.82615,-0.0661 0.82615,-7.08661 0.82615,-7.08661 0,0 0,-29.76378 0,-29.76378 l 6.24956,0 0,38.26772 8.50394,0 0.12839,-38.26772 6.37796,0 c 0,0 -0.0312,30.19216 -0.0312,30.19216 0,0 0.70714,6.63743 1.35861,6.63743 0.6351,0 0.81692,0.64821 0.81692,1.85336 0,1.20514 -0.18182,2.27562 -0.81692,2.27562 -1.70106,0 -1.7891,17.02069 -0.0491,19.68438 1.17625,1.80072 1.14596,2.38538 -0.16365,3.15861 -1.14388,0.6754 -1.43809,2.37119 -1.02077,5.88382 l 0.58627,4.93496 -17.98781,0.79984 c -5.07206,0.22553 -11.67095,1.1523 -18.12542,1.11525 -6.45447,-0.0371 6.45447,-0.0371 0,0 -6.45447,0.037 -13.05336,-0.88972 -18.12542,-1.11525 l -17.98781,-0.79984 0.58627,-4.93496 c 0.41732,-3.51263 0.12311,-5.20842 -1.02077,-5.88382 -1.30961,-0.77323 -1.3399,-1.35789 -0.16365,-3.15861 1.74,-2.66369 1.65196,-19.68438 -0.0491,-19.68438 -0.6351,0 -0.81692,-1.07048 -0.81692,-2.27562 0,-1.20515 0.18182,-1.85336 0.81692,-1.85336 0.65147,0 1.35861,-6.63743 1.35861,-6.63743 0,0 -0.0312,-30.19216 -0.0312,-30.19216 l 6.37795,0 0,38.26772 8.50394,0 0,-38.26772 6.37795,0 c 0,0 0,29.76378 0,29.76378 0,0 0,7.02051 0.82615,7.08661 0.42118,0.0337 0.75813,0.57837 0.84413,1.977 0.093,1.51278 -0.23529,2.26277 -0.84413,2.27497 -0.65903,-0.0674 0.25406,4.39616 1.59009,5.32555 7.09511,4.36031 16.3914,4.0409 23.51397,0 z"
       sodipodi:nodetypes="ccssccccccccsssssccccccccsssssccccccccssccc" /><path
       id="path4030-4-9-7-7-0"
       style="fill:none;stroke:#ff0000;stroke-width:0.80000001;stroke-miterlimit:4;stroke-opacity:1;stroke-dasharray:none"
       d="m 242.33372,290.5512 c 0,0 -21.25985,0 -21.25985,0 0,0 0.0312,30.19216 0.0312,30.19216 0,0 -0.70713,6.63743 -1.35861,6.63743 -0.6351,0 -0.81692,0.64821 -0.81692,1.85336 0,1.20514 0.18182,2.27562 0.81692,2.27562 1.70106,0 1.7891,17.02069 0.0491,19.68438 -1.17624,1.80072 -1.14596,2.38538 0.16366,3.15861 1.14388,0.6754 1.43808,2.37119 1.02076,5.88382 l -0.58626,4.93496 c 3.79687,0.32033 7.05811,0.49777 7.05811,0.49777 0,0 0,-36.85039 0,-36.85039 0,0 8.50393,0 8.50393,0 0,0 0,36.85039 0,36.85039 0,0 5.21666,-0.32212 7.05811,-0.49777 l -0.58626,-4.93496 c -0.41732,-3.51263 -0.12312,-5.20842 1.02076,-5.88382 1.3096,-0.77323 1.3399,-1.35789 0.16364,-3.15861 -1.73999,-2.66369 -1.65195,-19.68438 0.0491,-19.68438 0.6351,0 0.81692,-1.07048 0.81692,-2.27562 0,-1.20515 -0.18182,-1.85336 -0.81692,-1.85336 -0.65146,0 -1.35861,-6.63743 -1.35861,-6.63743 0,0 0.0312,-30.19216 0.0312,-30.19216 z"
       sodipodi:nodetypes="cccsssssccccccccssssscc" /><path
       id="path4030-4-9-7-5-2-6"
       style="fill:none;stroke:#ff0000;stroke-width:0.80000001;stroke-miterlimit:4;stroke-opacity:1;stroke-dasharray:none"
       d="m 270.68017,290.5512 c 0,0 -21.25985,0 -21.25985,0 0,0 0.0312,30.19216 0.0312,30.19216 0,0 -0.70714,6.63743 -1.3586,6.63743 -0.63511,0 -0.81692,0.64821 -0.81692,1.85336 0,1.20514 0.18181,2.27562 0.81692,2.27562 1.70105,0 1.78909,17.02069 0.0491,19.68438 -1.17626,1.80072 -1.14596,2.38538 0.16364,3.15861 1.14388,0.6754 1.4381,2.37119 1.02078,5.88382 l -0.58628,4.93496 c 3.79688,0.32033 7.05812,0.49777 7.05812,0.49777 0,0 0,-36.85039 0,-36.85039 0,0 8.50394,0 8.50394,0 0,0 0,36.85039 0,36.85039 0,0 5.21666,-0.32212 7.05812,-0.49777 l -0.58628,-4.93496 c -0.41732,-3.51263 -0.1231,-5.20842 1.02078,-5.88382 1.3096,-0.77323 1.3399,-1.35789 0.16364,-3.15861 -1.74,-2.66369 -1.65196,-19.68438 0.0491,-19.68438 0.6351,0 0.81692,-1.07048 0.81692,-2.27562 0,-1.20515 -0.18182,-1.85336 -0.81692,-1.85336 -0.65147,0 -1.3586,-6.63743 -1.3586,-6.63743 0,0 0.0312,-30.19216 0.0312,-30.19216 z"
       sodipodi:nodetypes="cccsssssccccccccssssscc" /><path
       id="path4180-9-2"
       style="fill:none;stroke:#ff0000;stroke-width:0.80000001;stroke-miterlimit:4;stroke-opacity:1;stroke-dasharray:none"
       d="m 241.62504,205.51183 -9.92125,0 -1.41732,1.41732 -19.84254,0 c 0,0 0,32.59843 0,32.59843 0,0 -8.50393,0 -8.50393,0 l 0,-32.59843 -19.84252,0 -1.41732,-1.41732 -9.92126,0 0,8.50718 -2e-5,0 c 0,9.78632 0.97956,13.85942 4.1491,17.25244 1.46909,1.57266 2.2509,3.27397 2.2509,4.89824 0,2.69624 2.26368,9.34214 3.18206,9.34214 0.82702,0 2.41271,-5.75384 2.45075,-8.89282 0.0241,-1.9856 -0.90928,-3.00028 1.32616,-5.47084 l 0.81427,-1.54185 0.72951,0.34185 c 1.92173,2.0434 2.03815,2.65251 2.01983,10.56838 -0.0366,15.79887 3.32725,24.80497 11.00411,29.46176 l 3.52496,2.13824 0.0253,4.95427 c 0.0182,3.56035 0.4977,5.75494 1.70431,7.8 0.92346,1.56515 1.93679,2.84573 2.25183,2.84573 0.31504,0 -0.31504,0 0,0 0.31504,0 1.32837,-1.28058 2.25183,-2.84573 1.20661,-2.04506 1.68611,-4.23965 1.70431,-7.8 l 0.0253,-4.95427 3.52496,-2.13824 c 7.67687,-4.65679 11.04071,-13.66289 11.00411,-29.46176 -0.0183,-7.91587 0.0981,-8.52498 2.01984,-10.56838 l 0.72951,-0.34185 0.81427,1.54185 c 2.23544,2.47056 1.30206,3.48524 1.32616,5.47084 0.038,3.13898 1.62373,8.89282 2.45075,8.89282 0.91838,0 3.18206,-6.6459 3.18206,-9.34214 0,-1.62427 0.78181,-3.32558 2.2509,-4.89824 3.16954,-3.39302 4.1491,-7.46612 4.1491,-17.25244 l -2e-5,0 0,-8.50718 z"
       sodipodi:nodetypes="ccccccccccccsssscccscccsccscccscccssssccc" /><path
       id="path4180-9-3-9"
       style="fill:none;stroke:#ff0000;stroke-width:0.80000001;stroke-miterlimit:4;stroke-opacity:1;stroke-dasharray:none"
       d="m 128.23922,205.51183 c 0,35.43307 0,0 -0.0853,35.00472 -0.0366,15.79887 3.32725,24.80497 11.00411,29.46176 l 3.25442,2.14769 c 0,0 0,-32.59842 0,-32.59842 0,0 8.50393,0 8.50393,0 l 0,32.59842 3.25445,-2.14769 c 7.67686,-4.65679 11.04071,-13.66289 11.00411,-29.46176 l -0.0853,-35.00472 -8.50396,0 c 0,0 -1.63073,1.41732 -1.63073,1.41732 l -16.63395,0 -1.57784,-1.41732 -8.50391,0 -3e-5,0 z"
       sodipodi:nodetypes="cccccccccccccccc" /><path
       id="path4180-9-0"
       style="fill:none;stroke:#ff0000;stroke-width:0.80000001;stroke-miterlimit:4;stroke-opacity:1;stroke-dasharray:none"
       d="m 362.09749,205.51183 -9.92125,0 -1.41732,1.41732 -19.84254,0 c 0,0 0,32.59843 0,32.59843 0,0 -8.50393,0 -8.50393,0 l 0,-32.59843 -19.84252,0 -1.41732,-1.41732 -9.92126,0 0,8.50718 -2e-5,0 c 0,9.78632 0.97956,13.85942 4.1491,17.25244 1.46909,1.57266 2.2509,3.27397 2.2509,4.89824 0,2.69624 2.26368,9.34214 3.18206,9.34214 0.82702,0 2.41271,-5.75384 2.45075,-8.89282 0.0241,-1.9856 -0.90928,-3.00028 1.32616,-5.47084 l 0.81427,-1.54185 0.72951,0.34185 c 1.92173,2.0434 2.03815,2.65251 2.01983,10.56838 -0.0366,15.79887 3.32725,24.80497 11.00411,29.46176 l 3.52496,2.13824 0.0253,4.95427 c 0.0182,3.56035 0.4977,5.75494 1.70431,7.8 0.92346,1.56515 1.93679,2.84573 2.25183,2.84573 0.31504,0 -0.31504,0 0,0 0.31504,0 1.32837,-1.28058 2.25183,-2.84573 1.2066,-2.04506 1.68611,-4.23965 1.70431,-7.8 l 0.0253,-4.95427 3.52496,-2.13824 c 7.67686,-4.65679 11.04071,-13.66289 11.00411,-29.46176 -0.0183,-7.91587 0.0981,-8.52498 2.01983,-10.56838 l 0.72951,-0.34185 0.81428,1.54185 c 2.23544,2.47056 1.30206,3.48524 1.32616,5.47084 0.038,3.13898 1.62373,8.89282 2.45075,8.89282 0.91838,0 3.18206,-6.6459 3.18206,-9.34214 0,-1.62427 0.78181,-3.32558 2.2509,-4.89824 3.16954,-3.39302 4.1491,-7.46612 4.1491,-17.25244 l -2e-5,0 0,-8.50718 z"
       sodipodi:nodetypes="ccccccccccccsssscccscccsccscccscccssssccc" /><path
       id="path4180-9-3-8"
       style="fill:none;stroke:#ff0000;stroke-width:0.80000001;stroke-miterlimit:4;stroke-opacity:1;stroke-dasharray:none"
       d="m 248.71166,205.51183 c 0,35.43307 0,0 -0.0853,35.00472 -0.0366,15.79887 3.32725,24.80497 11.00411,29.46176 l 3.25442,2.14769 c 0,0 0,-32.59842 0,-32.59842 0,0 8.50393,0 8.50393,0 l 0,32.59842 3.25445,-2.14769 c 7.67686,-4.65679 11.04071,-13.66289 11.00411,-29.46176 l -0.0853,-35.00472 -8.50396,0 c 0,0 -1.63073,1.41732 -1.63073,1.41732 l -16.63395,0 -1.57784,-1.41732 -8.50391,0 -3e-5,0 z"
       sodipodi:nodetypes="cccccccccccccccc" /><path
       id="path4180-9-1"
       style="fill:none;stroke:#ff0000;stroke-width:0.80000001;stroke-miterlimit:4;stroke-opacity:1;stroke-dasharray:none"
       d="m 482.56992,205.51183 -9.92125,0 -1.41732,1.41732 -19.84253,0 c 0,0 0,32.59843 0,32.59843 0,0 -8.50393,0 -8.50393,0 l 0,-32.59843 -19.84253,0 -1.41732,-1.41732 -9.92126,0 0,8.50718 -2e-5,0 c 0,9.78632 0.97956,13.85942 4.1491,17.25244 1.46909,1.57266 2.2509,3.27397 2.2509,4.89824 0,2.69624 2.26368,9.34214 3.18206,9.34214 0.82702,0 2.41271,-5.75384 2.45075,-8.89282 0.0241,-1.9856 -0.90928,-3.00028 1.32616,-5.47084 l 0.81427,-1.54185 0.72951,0.34185 c 1.92173,2.0434 2.03815,2.65251 2.01983,10.56838 -0.0366,15.79887 3.32726,24.80497 11.00412,29.46176 l 3.52496,2.13824 0.0253,4.95427 c 0.0182,3.56035 0.49769,5.75494 1.7043,7.8 0.92346,1.56515 1.93679,2.84573 2.25183,2.84573 0.31504,0 -0.31504,0 0,0 0.31504,0 1.32837,-1.28058 2.25183,-2.84573 1.20661,-2.04506 1.68612,-4.23965 1.70432,-7.8 l 0.0253,-4.95427 3.52496,-2.13824 c 7.67686,-4.65679 11.04071,-13.66289 11.00411,-29.46176 -0.0183,-7.91587 0.0981,-8.52498 2.01983,-10.56838 l 0.72951,-0.34185 0.81427,1.54185 c 2.23544,2.47056 1.30206,3.48524 1.32616,5.47084 0.038,3.13898 1.62373,8.89282 2.45075,8.89282 0.91838,0 3.18206,-6.6459 3.18206,-9.34214 0,-1.62427 0.78181,-3.32558 2.2509,-4.89824 3.16954,-3.39302 4.1491,-7.46612 4.1491,-17.25244 l -2e-5,0 0,-8.50718 z"
       sodipodi:nodetypes="ccccccccccccsssscccscccsccscccscccssssccc" /><path
       id="path4180-9-3-3"
       style="fill:none;stroke:#ff0000;stroke-width:0.80000001;stroke-miterlimit:4;stroke-opacity:1;stroke-dasharray:none"
       d="m 369.1841,205.51183 c 0,35.43307 0,0 -0.0853,35.00472 -0.0366,15.79887 3.32725,24.80497 11.00411,29.46176 l 3.25442,2.14769 c 0,0 0,-32.59842 0,-32.59842 0,0 8.50393,0 8.50393,0 l 0,32.59842 3.25445,-2.14769 c 7.67686,-4.65679 11.04071,-13.66289 11.00411,-29.46176 l -0.0853,-35.00472 -8.50396,0 c 0,0 -1.63073,1.41732 -1.63073,1.41732 l -16.63395,0 -1.57784,-1.41732 -8.50391,0 -3e-5,0 z"
       sodipodi:nodetypes="cccccccccccccccc" /><path
       id="path4180-9-2-1"
       style="fill:none;stroke:#ff0000;stroke-width:0.80000001;stroke-miterlimit:4;stroke-opacity:1;stroke-dasharray:none"
       d="m 603.04236,205.51183 -9.92125,0 -1.41732,1.41732 -19.84255,0 c 0,0 0,32.59843 0,32.59843 0,0 -8.50392,0 -8.50392,0 l 0,-32.59843 -19.84252,0 -1.41732,-1.41732 -9.92126,0 0,8.50718 -2e-5,0 c 0,9.78632 0.97956,13.85942 4.1491,17.25244 1.46909,1.57266 2.2509,3.27397 2.2509,4.89824 0,2.69624 2.26368,9.34214 3.18206,9.34214 0.82702,0 2.4127,-5.75384 2.45074,-8.89282 0.0241,-1.9856 -0.90928,-3.00028 1.32616,-5.47084 l 0.81428,-1.54185 0.72951,0.34185 c 1.92173,2.0434 2.03815,2.65251 2.01983,10.56838 -0.0366,15.79887 3.32725,24.80497 11.0041,29.46176 l 3.52496,2.13824 0.0253,4.95427 c 0.0182,3.56035 0.4977,5.75494 1.70432,7.8 0.92348,1.56515 1.9368,2.84573 2.25184,2.84573 0.31504,0 -0.31504,0 0,0 0.31504,0 1.32838,-1.28058 2.25184,-2.84573 1.2066,-2.04506 1.68611,-4.23965 1.70431,-7.8 l 0.0253,-4.95427 3.52496,-2.13824 c 7.67687,-4.65679 11.04071,-13.66289 11.00411,-29.46176 -0.0183,-7.91587 0.0981,-8.52498 2.01984,-10.56838 l 0.72951,-0.34185 0.81427,1.54185 c 2.23544,2.47056 1.30206,3.48524 1.32616,5.47084 0.038,3.13898 1.62373,8.89282 2.45075,8.89282 0.91838,0 3.18206,-6.6459 3.18206,-9.34214 0,-1.62427 0.78181,-3.32558 2.2509,-4.89824 3.16954,-3.39302 4.1491,-7.46612 4.1491,-17.25244 l -2e-5,0 0,-8.50718 z"
       sodipodi:nodetypes="ccccccccccccsssscccscccsccscccscccssssccc" /><path
       id="path4180-9-3-9-1"
       style="fill:none;stroke:#ff0000;stroke-width:0.80000001;stroke-miterlimit:4;stroke-opacity:1;stroke-dasharray:none"
       d="m 489.65654,205.51183 c 0,35.43307 0,0 -0.0853,35.00472 -0.0366,15.79887 3.32724,24.80497 11.00411,29.46176 l 3.25441,2.14769 c 0,0 0,-32.59842 0,-32.59842 0,0 8.50394,0 8.50394,0 l 0,32.59842 3.25445,-2.14769 c 7.67685,-4.65679 11.04071,-13.66289 11.00411,-29.46176 l -0.0853,-35.00472 -8.50396,0 c 0,0 -1.63073,1.41732 -1.63073,1.41732 l -16.63395,0 -1.57784,-1.41732 -8.50392,0 -2e-5,0 z"
       sodipodi:nodetypes="cccccccccccccccc" /><path
       id="path4180-9-0-0"
       style="fill:none;stroke:#ff0000;stroke-width:0.80000001;stroke-miterlimit:4;stroke-opacity:1;stroke-dasharray:none"
       d="m 723.5148,205.51183 -9.92124,0 -1.41732,1.41732 -19.84254,0 c 0,0 0,32.59843 0,32.59843 0,0 -8.50394,0 -8.50394,0 l 0,-32.59843 -19.84252,0 -1.41732,-1.41732 -9.92125,0 0,8.50718 -3e-5,0 c 0,9.78632 0.97956,13.85942 4.14911,17.25244 1.46909,1.57266 2.25089,3.27397 2.25089,4.89824 0,2.69624 2.26368,9.34214 3.18207,9.34214 0.82701,0 2.41271,-5.75384 2.45075,-8.89282 0.0241,-1.9856 -0.90928,-3.00028 1.32616,-5.47084 l 0.81426,-1.54185 0.72952,0.34185 c 1.92172,2.0434 2.03815,2.65251 2.01983,10.56838 -0.0366,15.79887 3.32725,24.80497 11.00411,29.46176 l 3.52496,2.13824 0.0253,4.95427 c 0.0182,3.56035 0.49772,5.75494 1.70433,7.8 0.92345,1.56515 1.93679,2.84573 2.25183,2.84573 0.31504,0 -0.31504,0 0,0 0.31504,0 1.32837,-1.28058 2.25182,-2.84573 1.2066,-2.04506 1.68612,-4.23965 1.70432,-7.8 l 0.0253,-4.95427 3.52496,-2.13824 c 7.67685,-4.65679 11.0407,-13.66289 11.0041,-29.46176 -0.0183,-7.91587 0.0981,-8.52498 2.01983,-10.56838 l 0.72951,-0.34185 0.81428,1.54185 c 2.23544,2.47056 1.30206,3.48524 1.32616,5.47084 0.038,3.13898 1.62373,8.89282 2.45076,8.89282 0.91837,0 3.18205,-6.6459 3.18205,-9.34214 0,-1.62427 0.78181,-3.32558 2.25091,-4.89824 3.16953,-3.39302 4.14909,-7.46612 4.14909,-17.25244 l -10e-6,0 0,-8.50718 z"
       sodipodi:nodetypes="ccccccccccccsssscccscccsccscccscccssssccc" /><path
       id="path4180-9-3-8-3"
       style="fill:none;stroke:#ff0000;stroke-width:0.80000001;stroke-miterlimit:4;stroke-opacity:1;stroke-dasharray:none"
       d="m 610.12898,205.51183 c 0,35.43307 0,0 -0.0853,35.00472 -0.0366,15.79887 3.32724,24.80497 11.00411,29.46176 l 3.25441,2.14769 c 0,0 0,-32.59842 0,-32.59842 0,0 8.50394,0 8.50394,0 l 0,32.59842 3.25445,-2.14769 c 7.67685,-4.65679 11.04071,-13.66289 11.00411,-29.46176 l -0.0853,-35.00472 -8.50396,0 c 0,0 -1.63073,1.41732 -1.63073,1.41732 l -16.63395,0 -1.57784,-1.41732 -8.50392,0 -2e-5,0 z"
       sodipodi:nodetypes="cccccccccccccccc" /><path
       id="path4180-9-4"
       style="fill:none;stroke:#ff0000;stroke-width:0.80000001;stroke-miterlimit:4;stroke-opacity:1;stroke-dasharray:none"
       d="m 390.44394,290.5512 -9.92125,0 -1.41732,1.41732 -19.84254,0 c 0,0 0,32.59843 0,32.59843 0,0 -8.50393,0 -8.50393,0 l 0,-32.59843 -19.84252,0 -1.41732,-1.41732 -9.92126,0 0,8.50718 -2e-5,0 c 0,9.78632 0.97956,13.85942 4.1491,17.25244 1.46909,1.57266 2.2509,3.27397 2.2509,4.89824 0,2.69624 2.26368,9.34214 3.18206,9.34214 0.82702,0 2.41271,-5.75384 2.45075,-8.89282 0.0241,-1.9856 -0.90928,-3.00028 1.32616,-5.47084 l 0.81427,-1.54185 0.72951,0.34185 c 1.92173,2.0434 2.03815,2.65251 2.01983,10.56838 -0.0366,15.79887 3.32725,24.80497 11.00411,29.46176 l 3.52496,2.13824 0.0253,4.95427 c 0.0182,3.56035 0.4977,5.75494 1.70431,7.8 0.92346,1.56515 1.93679,2.84573 2.25183,2.84573 0.31504,0 -0.31504,0 0,0 0.31504,0 1.32837,-1.28058 2.25183,-2.84573 1.20661,-2.04506 1.68611,-4.23965 1.70431,-7.8 l 0.0253,-4.95427 3.52496,-2.13824 c 7.67687,-4.65679 11.04071,-13.66289 11.00411,-29.46176 -0.0183,-7.91587 0.0981,-8.52498 2.01984,-10.56838 l 0.72951,-0.34185 0.81427,1.54185 c 2.23544,2.47056 1.30206,3.48524 1.32616,5.47084 0.038,3.13898 1.62373,8.89282 2.45075,8.89282 0.91838,0 3.18206,-6.6459 3.18206,-9.34214 0,-1.62427 0.78181,-3.32558 2.2509,-4.89824 3.16954,-3.39302 4.1491,-7.46612 4.1491,-17.25244 l -2e-5,0 0,-8.50718 z"
       sodipodi:nodetypes="ccccccccccccsssscccscccsccscccscccssssccc" /><path
       id="path4180-9-3-0"
       style="fill:none;stroke:#ff0000;stroke-width:0.80000001;stroke-miterlimit:4;stroke-opacity:1;stroke-dasharray:none"
       d="m 277.05812,290.5512 c 0,35.43307 0,0 -0.0853,35.00472 -0.0366,15.79887 3.32725,24.80497 11.00411,29.46176 l 3.25442,2.14769 c 0,0 0,-32.59842 0,-32.59842 0,0 8.50393,0 8.50393,0 l 0,32.59842 3.25445,-2.14769 c 7.67686,-4.65679 11.04071,-13.66289 11.00411,-29.46176 l -0.0853,-35.00472 -8.50396,0 c 0,0 -1.63073,1.41732 -1.63073,1.41732 l -16.63395,0 -1.57784,-1.41732 -8.50391,0 -3e-5,0 z"
       sodipodi:nodetypes="cccccccccccccccc" /><path
       id="path4180-9-2-3"
       style="fill:none;stroke:#ff0000;stroke-width:0.80000001;stroke-miterlimit:4;stroke-opacity:1;stroke-dasharray:none"
       d="m 510.91638,290.5512 -9.92125,0 -1.41732,1.41732 -19.84255,0 c 0,0 0,32.59843 0,32.59843 0,0 -8.50392,0 -8.50392,0 l 0,-32.59843 -19.84252,0 -1.41732,-1.41732 -9.92126,0 0,8.50718 -2e-5,0 c 0,9.78632 0.97956,13.85942 4.1491,17.25244 1.46909,1.57266 2.2509,3.27397 2.2509,4.89824 0,2.69624 2.26368,9.34214 3.18206,9.34214 0.82702,0 2.4127,-5.75384 2.45074,-8.89282 0.0241,-1.9856 -0.90928,-3.00028 1.32616,-5.47084 l 0.81428,-1.54185 0.72951,0.34185 c 1.92173,2.0434 2.03815,2.65251 2.01983,10.56838 -0.0366,15.79887 3.32725,24.80497 11.0041,29.46176 l 3.52496,2.13824 0.0253,4.95427 c 0.0182,3.56035 0.4977,5.75494 1.70432,7.8 0.92348,1.56515 1.9368,2.84573 2.25184,2.84573 0.31504,0 -0.31504,0 0,0 0.31504,0 1.32838,-1.28058 2.25184,-2.84573 1.2066,-2.04506 1.68611,-4.23965 1.70431,-7.8 l 0.0253,-4.95427 3.52496,-2.13824 c 7.67687,-4.65679 11.04071,-13.66289 11.00411,-29.46176 -0.0183,-7.91587 0.0981,-8.52498 2.01984,-10.56838 l 0.72951,-0.34185 0.81427,1.54185 c 2.23544,2.47056 1.30206,3.48524 1.32616,5.47084 0.038,3.13898 1.62373,8.89282 2.45075,8.89282 0.91838,0 3.18206,-6.6459 3.18206,-9.34214 0,-1.62427 0.78181,-3.32558 2.2509,-4.89824 3.16954,-3.39302 4.1491,-7.46612 4.1491,-17.25244 l -2e-5,0 0,-8.50718 z"
       sodipodi:nodetypes="ccccccccccccsssscccscccsccscccscccssssccc" /><path
       id="path4180-9-3-9-9"
       style="fill:none;stroke:#ff0000;stroke-width:0.80000001;stroke-miterlimit:4;stroke-opacity:1;stroke-dasharray:none"
       d="m 397.53056,290.5512 c 0,35.43307 0,0 -0.0853,35.00472 -0.0366,15.79887 3.32724,24.80497 11.00411,29.46176 l 3.25441,2.14769 c 0,0 0,-32.59842 0,-32.59842 0,0 8.50394,0 8.50394,0 l 0,32.59842 3.25445,-2.14769 c 7.67685,-4.65679 11.04071,-13.66289 11.00411,-29.46176 l -0.0853,-35.00472 -8.50396,0 c 0,0 -1.63073,1.41732 -1.63073,1.41732 l -16.63395,0 -1.57784,-1.41732 -8.50392,0 -2e-5,0 z"
       sodipodi:nodetypes="cccccccccccccccc" /><path
       id="path3934-8-6"
       style="fill:none;stroke:#ff0000;stroke-width:0.80000001;stroke-miterlimit:4;stroke-opacity:1;stroke-dasharray:none"
       d="m 183.51482,197.0079 c 1.41733,0 -1.41733,0 0,0 1.41733,0 1.481,-7.51394 1.41733,-8.50394 2.83464,0 2.83464,-4.25197 0.86708,-4.13753 -0.42611,-1.12676 0.85809,-2.06579 6.03354,-4.41184 12.80702,-5.80544 17.0366,-12.81765 10.97803,-18.2005 -1.26519,-1.12407 -2.29923,-2.38407 -2.29787,-2.8 9.6e-4,-0.41592 3.75468,-1.67212 8.34071,-2.79157 5.28064,-1.289 6.22979,-1.6491 6.06808,-2.28715 -0.14043,-0.55413 0.39576,-1.55393 1.19153,-2.22179 1.77794,-1.49214 1.8163,-2.27566 0.17873,-3.65 -0.69746,-0.58535 -1.10906,-1.46479 -0.91463,-1.9543 0.22015,-0.55428 -0.54013,-2.02545 -5.3418,-2.65234 l -7.71011,-1.0066 c 0.28593,-28.09396 0.41574,-29.26148 1.0319,-57.350952 0,0 -8.50394,0 -8.50394,0 0,0 -1.41732,1.41734 -1.41732,1.41734 0,0 -5.65542,0 -5.65542,0 0,0 -0.0139,41.102362 -0.0139,41.102362 0,0 -8.50394,0 -8.50394,0 0,0 0.0379,-41.102362 0.0379,-41.102362 0,0 -5.70717,0 -5.70717,0 0,0 -1.41732,-1.41734 -1.41732,-1.41734 0,0 -8.50394,0 -8.50394,0 l 1.0319,57.350942 -7.71011,1.0066 c -4.80167,0.6269 -5.56195,2.09806 -5.3418,2.65234 0.19443,0.48951 -0.21717,1.36895 -0.91463,1.9543 -1.63757,1.37434 -1.59921,2.15786 0.17873,3.65 0.79577,0.66786 1.33196,1.66766 1.19153,2.22179 -0.16171,0.63805 0.78744,0.99815 6.06808,2.28715 4.58603,1.11945 8.33975,2.37565 8.34071,2.79157 9.6e-4,0.41593 -1.03268,1.67593 -2.29787,2.8 -6.05857,5.38286 -1.82899,12.39507 10.97803,18.20051 5.17545,2.34605 6.45965,3.28508 6.03354,4.41184 -1.96756,-0.11444 -1.96756,4.13753 0.86708,4.13753 -0.0637,0.99 0,8.50394 1.41733,8.50394 l -2e-5,0 z"
       sodipodi:nodetypes="ccccssssssssccccccccccccccsssssssscccc" /><path
       id="path3934-8-0-4"
       style="fill:none;stroke:#ff0000;stroke-width:0.80000001;stroke-miterlimit:4;stroke-opacity:1;stroke-dasharray:none"
       d="m 250.12898,127.55909 c 0,0 8.50393,0 8.50393,0 0,0 0,53.85826 0,53.85826 0,0 2.57517,-0.78694 4.06599,-1.46273 12.80702,-5.80544 17.0366,-12.81765 10.97803,-18.2005 -1.26519,-1.12407 -2.29923,-2.38407 -2.29787,-2.8 8e-4,-0.41592 3.75468,-1.67213 8.34071,-2.79158 5.28064,-1.289 6.22979,-1.6491 6.06808,-2.28715 -0.14043,-0.55413 0.39576,-1.55393 1.19153,-2.22179 1.77794,-1.49214 1.8163,-2.27566 0.17873,-3.65 -0.69746,-0.58535 -1.10906,-1.46479 -0.91463,-1.9543 0.22015,-0.55428 -0.54013,-2.02545 -5.3418,-2.65234 l -7.71011,-1.0066 c 0.28593,-28.09398 0.41574,-29.2615 1.0319,-57.350972 0,0 -8.50394,0 -8.50394,0 0,0 -1.41732,1.41734 -1.41732,1.41734 0,0 -19.84252,0 -19.84252,0 0,0 -1.41732,-1.41734 -1.41732,-1.41734 0,0 -8.50394,0 -8.50394,0 l 1.0319,57.350962 -7.71011,1.0066 c -4.80167,0.6269 -5.56195,2.09806 -5.3418,2.65234 0.19443,0.48951 -0.21717,1.36895 -0.91463,1.9543 -1.63757,1.37434 -1.59921,2.15786 0.17873,3.65 0.79577,0.66786 1.33196,1.66766 1.19153,2.22179 -0.16171,0.63805 0.78744,0.99815 6.06808,2.28715 4.58603,1.11945 8.33975,2.37566 8.34071,2.79158 8e-4,0.41593 -1.03268,1.67593 -2.29787,2.8 -6.05857,5.38286 -1.82899,12.39507 10.97803,18.20051 1.57145,0.71234 4.06598,1.46273 4.06598,1.46273 0,0 0,-53.85826 0,-53.85826 z"
       sodipodi:nodetypes="cccssssssssccccccccccsssssssscc" /><path
       id="path4243-5-1"
       style="fill:none;stroke:#ff0000;stroke-width:0.80000001;stroke-linecap:butt;stroke-linejoin:miter;stroke-miterlimit:4;stroke-opacity:1;stroke-dasharray:none"
       d="m 323.9885,127.55908 -8.50394,0 -0.39892,41.59646 -29.92212,-29.01044 9.07878,0.81183 -3.01095,-55.917542 10.07999,0 1.41732,1.41732 34.01575,0 1.41732,-1.41732 9.92126,0 -3.01095,55.917532 8.83991,-1.0507 -30.32237,29.24932 0.39892,-41.59646 z"
       sodipodi:nodetypes="ccccccccccccccc" /><path
       style="fill:none;stroke:#ff0000;stroke-width:0.80000001;stroke-linecap:butt;stroke-linejoin:miter;stroke-miterlimit:4;stroke-opacity:1;stroke-dasharray:none"
       d="m 369.34283,85.039358 1.81321,40.567842 -6.5874,4.72941 7.09412,6.5874 0.61166,4.09636 -10.01821,-0.70542 25.76518,23.58777 -30.88468,15.75491 11.14789,14.69496 24.66439,-25.94453 4.74029,4.50532 3.61676,-3.3902 16.46849,31.92353 14.52605,-11.31681 -26.34958,-24.82941 15.53949,-14.86387 18.24203,-9.28992 -10.979,-14.69496 -4.72941,4.89832 2.091,-46.247232 -9.64552,-0.0253 -1.77242,1.3792 -12.75591,0 c 0,0 0,41.102362 0,41.102362 l -8.50394,0 0,-41.102362 -12.7559,0 -1.41733,-1.41732 -9.92126,0 0,-4e-5 z"
       id="path4313-2"
       sodipodi:nodetypes="cccccccccccccccccccccccccccccc" /><path
       id="path4243-5-8"
       style="fill:none;stroke:#ff0000;stroke-width:0.80000001;stroke-linecap:butt;stroke-linejoin:miter;stroke-miterlimit:4;stroke-opacity:1;stroke-dasharray:none"
       d="m 479.89401,127.55908 -8.50394,0 -0.39892,41.59646 -29.92212,-29.01044 9.07878,0.81183 -3.01095,-55.917542 10.07999,0 1.41732,1.41732 34.01575,0 1.41732,-1.41732 9.92126,0 -3.01095,55.917532 8.83991,-1.0507 -30.32237,29.24932 0.39892,-41.59646 z"
       sodipodi:nodetypes="ccccccccccccccc" /><path
       style="fill:none;stroke:#ff0000;stroke-width:0.80000001;stroke-linecap:butt;stroke-linejoin:miter;stroke-miterlimit:4;stroke-opacity:1;stroke-dasharray:none"
       d="m 525.24834,85.039358 1.81321,40.567842 -6.5874,4.72941 7.09412,6.5874 0.61166,4.09636 -10.01821,-0.70542 25.76518,23.58777 -30.88468,15.75491 11.14789,14.69496 24.66439,-25.94453 4.74029,4.50532 3.61676,-3.3902 16.46849,31.92353 14.52605,-11.31681 -26.34958,-24.82941 15.53949,-14.86387 18.24203,-9.28992 -10.979,-14.69496 -4.72941,4.89832 2.091,-46.247232 -9.64552,-0.0253 -1.77242,1.3792 -12.75591,0 c 0,0 0,41.102362 0,41.102362 l -8.50394,0 0,-41.102362 -12.7559,0 -1.41733,-1.41732 -9.92126,0 0,-4e-5 z"
       id="path4313-9"
       sodipodi:nodetypes="cccccccccccccccccccccccccccccc" /><path
       d="m 92.125974,678.89767 c 0,-7.842 -6.447,-14.199 -14.400004,-14.199 l -56.238989,0 c -7.953,0 -14.4009987,6.357 -14.4009987,14.199 l 0,56.64 c 0,7.842 6.4479987,14.199 14.4009987,14.199 l 56.238989,0 c 7.953004,0 14.400004,-6.357 14.400004,-14.199 l 0,-56.64 z"
       style="fill:none;stroke:#ff003f;stroke-width:0.82771653;stroke-linecap:butt;stroke-linejoin:miter;stroke-miterlimit:4;stroke-opacity:1;stroke-dasharray:none"
       id="path2944-8" /><path
       d="m 188.50394,678.89767 c 0,-7.842 -6.447,-14.199 -14.4,-14.199 l -56.239,0 c -7.953,0 -14.40101,6.357 -14.40101,14.199 l 0,56.64 c 0,7.842 6.44801,14.199 14.40101,14.199 l 56.239,0 c 7.953,0 14.4,-6.357 14.4,-14.199 l 0,-56.64 z"
       style="fill:none;stroke:#ff003f;stroke-width:0.82771653;stroke-linecap:butt;stroke-linejoin:miter;stroke-miterlimit:4;stroke-opacity:1;stroke-dasharray:none"
       id="path2944-4-97" /><path
       d="m 284.88189,678.89767 c 0,-7.842 -6.447,-14.199 -14.4,-14.199 l -56.23899,0 c -7.953,0 -14.401,6.357 -14.401,14.199 l 0,56.64 c 0,7.842 6.448,14.199 14.401,14.199 l 56.23899,0 c 7.953,0 14.4,-6.357 14.4,-14.199 l 0,-56.64 z"
       style="fill:none;stroke:#ff003f;stroke-width:0.82771653;stroke-linecap:butt;stroke-linejoin:miter;stroke-miterlimit:4;stroke-opacity:1;stroke-dasharray:none"
       id="path2944-6-76" /><path
       d="m 381.25986,678.89767 c 0,-7.842 -6.447,-14.199 -14.4,-14.199 l -56.239,0 c -7.953,0 -14.40101,6.357 -14.40101,14.199 l 0,56.64 c 0,7.842 6.44801,14.199 14.40101,14.199 l 56.239,0 c 7.953,0 14.4,-6.357 14.4,-14.199 l 0,-56.64 z"
       style="fill:none;stroke:#ff003f;stroke-width:0.82771653;stroke-linecap:butt;stroke-linejoin:miter;stroke-miterlimit:4;stroke-opacity:1;stroke-dasharray:none"
       id="path2944-4-3-4" /><path
       d="m 477.63778,678.89767 c 0,-7.842 -6.447,-14.199 -14.4,-14.199 l -56.239,0 c -7.953,0 -14.401,6.357 -14.401,14.199 l 0,56.64 c 0,7.842 6.448,14.199 14.401,14.199 l 56.239,0 c 7.953,0 14.4,-6.357 14.4,-14.199 l 0,-56.64 z"
       style="fill:none;stroke:#ff003f;stroke-width:0.82771653;stroke-linecap:butt;stroke-linejoin:miter;stroke-miterlimit:4;stroke-opacity:1;stroke-dasharray:none"
       id="path2944-1-3" /><path
       d="m 574.01574,678.89767 c 0,-7.842 -6.447,-14.199 -14.4,-14.199 l -56.239,0 c -7.953,0 -14.401,6.357 -14.401,14.199 l 0,56.64 c 0,7.842 6.448,14.199 14.401,14.199 l 56.239,0 c 7.953,0 14.4,-6.357 14.4,-14.199 l 0,-56.64 z"
       style="fill:none;stroke:#ff003f;stroke-width:0.82771653;stroke-linecap:butt;stroke-linejoin:miter;stroke-miterlimit:4;stroke-opacity:1;stroke-dasharray:none"
       id="path2944-4-7-0" /><path
       d="m 670.39374,678.89767 c 0,-7.842 -6.447,-14.199 -14.4,-14.199 l -56.239,0 c -7.953,0 -14.401,6.357 -14.401,14.199 l 0,56.64 c 0,7.842 6.448,14.199 14.401,14.199 l 56.239,0 c 7.953,0 14.4,-6.357 14.4,-14.199 l 0,-56.64 z"
       style="fill:none;stroke:#ff003f;stroke-width:0.82771653;stroke-linecap:butt;stroke-linejoin:miter;stroke-miterlimit:4;stroke-opacity:1;stroke-dasharray:none"
       id="path2944-6-5-30" /><path
       d="m 766.77164,678.89767 c 0,-7.842 -6.447,-14.199 -14.4,-14.199 l -56.239,0 c -7.953,0 -14.401,6.357 -14.401,14.199 l 0,56.64 c 0,7.842 6.448,14.199 14.401,14.199 l 56.239,0 c 7.953,0 14.4,-6.357 14.4,-14.199 l 0,-56.64 z"
       style="fill:none;stroke:#ff003f;stroke-width:0.82771653;stroke-linecap:butt;stroke-linejoin:miter;stroke-miterlimit:4;stroke-opacity:1;stroke-dasharray:none"
       id="path2944-4-3-9-9" /><path
       d="m 92.125984,582.51971 c 0,-7.842 -6.44699,-14.199 -14.399994,-14.199 l -56.238979,0 c -7.953,0 -14.4009987,6.357 -14.4009987,14.199 l 0,56.64 c 0,7.842 6.4479987,14.199 14.4009987,14.199 l 56.238979,0 c 7.953004,0 14.399994,-6.357 14.399994,-14.199 l 0,-56.64 z"
       style="fill:none;stroke:#ff003f;stroke-width:0.82771653;stroke-linecap:butt;stroke-linejoin:miter;stroke-miterlimit:4;stroke-opacity:1;stroke-dasharray:none"
       id="path2944-62-2" /><path
       d="m 188.50397,582.51971 c 0,-7.842 -6.447,-14.199 -14.4,-14.199 l -56.239,0 c -7.953,0 -14.40103,6.357 -14.40103,14.199 l 0,56.64 c 0,7.842 6.44803,14.199 14.40103,14.199 l 56.239,0 c 7.953,0 14.4,-6.357 14.4,-14.199 l 0,-56.64 z"
       style="fill:none;stroke:#ff003f;stroke-width:0.82771653;stroke-linecap:butt;stroke-linejoin:miter;stroke-miterlimit:4;stroke-opacity:1;stroke-dasharray:none"
       id="path2944-4-1-5" /><path
       d="m 284.8819,582.51971 c 0,-7.842 -6.447,-14.199 -14.4,-14.199 l -56.23897,0 c -7.953,0 -14.401,6.357 -14.401,14.199 l 0,56.64 c 0,7.842 6.448,14.199 14.401,14.199 l 56.23897,0 c 7.953,0 14.4,-6.357 14.4,-14.199 l 0,-56.64 z"
       style="fill:none;stroke:#ff003f;stroke-width:0.82771653;stroke-linecap:butt;stroke-linejoin:miter;stroke-miterlimit:4;stroke-opacity:1;stroke-dasharray:none"
       id="path2944-6-7-4" /><path
       d="m 381.25989,582.51971 c 0,-7.842 -6.447,-14.199 -14.4,-14.199 l -56.239,0 c -7.953,0 -14.40103,6.357 -14.40103,14.199 l 0,56.64 c 0,7.842 6.44803,14.199 14.40103,14.199 l 56.239,0 c 7.953,0 14.4,-6.357 14.4,-14.199 l 0,-56.64 z"
       style="fill:none;stroke:#ff003f;stroke-width:0.82771653;stroke-linecap:butt;stroke-linejoin:miter;stroke-miterlimit:4;stroke-opacity:1;stroke-dasharray:none"
       id="path2944-4-3-8-0" /><path
       d="m 477.63781,582.51971 c 0,-7.842 -6.447,-14.199 -14.4,-14.199 l -56.239,0 c -7.953,0 -14.401,6.357 -14.401,14.199 l 0,56.64 c 0,7.842 6.448,14.199 14.401,14.199 l 56.239,0 c 7.953,0 14.4,-6.357 14.4,-14.199 l 0,-56.64 z"
       style="fill:none;stroke:#ff003f;stroke-width:0.82771653;stroke-linecap:butt;stroke-linejoin:miter;stroke-miterlimit:4;stroke-opacity:1;stroke-dasharray:none"
       id="path2944-1-5-5" /><path
       d="m 574.01574,582.51971 c 0,-7.842 -6.447,-14.199 -14.4,-14.199 l -56.23897,0 c -7.953,0 -14.401,6.357 -14.401,14.199 l 0,56.64 c 0,7.842 6.448,14.199 14.401,14.199 l 56.23897,0 c 7.953,0 14.4,-6.357 14.4,-14.199 l 0,-56.64 z"
       style="fill:none;stroke:#ff003f;stroke-width:0.82771653;stroke-linecap:butt;stroke-linejoin:miter;stroke-miterlimit:4;stroke-opacity:1;stroke-dasharray:none"
       id="path2944-4-7-7-9" /><path
       d="m 670.39374,582.51971 c 0,-7.842 -6.447,-14.199 -14.4,-14.199 l -56.239,0 c -7.953,0 -14.401,6.357 -14.401,14.199 l 0,56.64 c 0,7.842 6.448,14.199 14.401,14.199 l 56.239,0 c 7.953,0 14.4,-6.357 14.4,-14.199 l 0,-56.64 z"
       style="fill:none;stroke:#ff003f;stroke-width:0.82771653;stroke-linecap:butt;stroke-linejoin:miter;stroke-miterlimit:4;stroke-opacity:1;stroke-dasharray:none"
       id="path2944-6-5-4-4" /><path
       d="m 766.77174,582.51971 c 0,-7.842 -6.447,-14.199 -14.4,-14.199 l -56.239,0 c -7.953,0 -14.401,6.357 -14.401,14.199 l 0,56.64 c 0,7.842 6.448,14.199 14.401,14.199 l 56.239,0 c 7.953,0 14.4,-6.357 14.4,-14.199 l 0,-56.64 z"
       style="fill:none;stroke:#ff003f;stroke-width:0.82771653;stroke-linecap:butt;stroke-linejoin:miter;stroke-miterlimit:4;stroke-opacity:1;stroke-dasharray:none"
       id="path2944-4-3-9-1-6" /><path
       d="m 92.125974,486.14176 c 0,-7.842 -6.447,-14.199 -14.400004,-14.199 l -56.238969,0 c -7.953,0 -14.4009987,6.357 -14.4009987,14.199 l 0,56.64 c 0,7.842 6.4479987,14.199 14.4009987,14.199 l 56.238969,0 c 7.953004,0 14.400004,-6.357 14.400004,-14.199 l 0,-56.64 z"
       style="fill:none;stroke:#ff003f;stroke-width:0.82771653;stroke-linecap:butt;stroke-linejoin:miter;stroke-miterlimit:4;stroke-opacity:1;stroke-dasharray:none"
       id="path2944-5-9" /><path
       d="m 188.50394,486.14176 c 0,-7.842 -6.447,-14.199 -14.4,-14.199 l -56.239,0 c -7.953,0 -14.40101,6.357 -14.40101,14.199 l 0,56.64 c 0,7.842 6.44801,14.199 14.40101,14.199 l 56.239,0 c 7.953,0 14.4,-6.357 14.4,-14.199 l 0,-56.64 z"
       style="fill:none;stroke:#ff003f;stroke-width:0.82771653;stroke-linecap:butt;stroke-linejoin:miter;stroke-miterlimit:4;stroke-opacity:1;stroke-dasharray:none"
       id="path2944-4-9-2" /><path
       d="m 284.8819,486.14176 c 0,-7.842 -6.447,-14.199 -14.4,-14.199 l -56.239,0 c -7.953,0 -14.401,6.357 -14.401,14.199 l 0,56.64 c 0,7.842 6.448,14.199 14.401,14.199 l 56.239,0 c 7.953,0 14.4,-6.357 14.4,-14.199 l 0,-56.64 z"
       style="fill:none;stroke:#ff003f;stroke-width:0.82771653;stroke-linecap:butt;stroke-linejoin:miter;stroke-miterlimit:4;stroke-opacity:1;stroke-dasharray:none"
       id="path2944-6-75-2" /><path
       d="m 381.25986,486.14176 c 0,-7.842 -6.447,-14.199 -14.4,-14.199 l -56.239,0 c -7.953,0 -14.401,6.357 -14.401,14.199 l 0,56.64 c 0,7.842 6.448,14.199 14.401,14.199 l 56.239,0 c 7.953,0 14.4,-6.357 14.4,-14.199 l 0,-56.64 z"
       style="fill:none;stroke:#ff003f;stroke-width:0.82771653;stroke-linecap:butt;stroke-linejoin:miter;stroke-miterlimit:4;stroke-opacity:1;stroke-dasharray:none"
       id="path2944-4-3-3-4" /><path
       d="m 477.63778,486.14176 c 0,-7.842 -6.447,-14.199 -14.4,-14.199 l -56.239,0 c -7.953,0 -14.401,6.357 -14.401,14.199 l 0,56.64 c 0,7.842 6.448,14.199 14.401,14.199 l 56.239,0 c 7.953,0 14.4,-6.357 14.4,-14.199 l 0,-56.64 z"
       style="fill:none;stroke:#ff003f;stroke-width:0.82771653;stroke-linecap:butt;stroke-linejoin:miter;stroke-miterlimit:4;stroke-opacity:1;stroke-dasharray:none"
       id="path2944-1-8-7" /><path
       d="m 574.01574,486.14176 c 0,-7.842 -6.447,-14.199 -14.4,-14.199 l -56.239,0 c -7.953,0 -14.401,6.357 -14.401,14.199 l 0,56.64 c 0,7.842 6.448,14.199 14.401,14.199 l 56.239,0 c 7.953,0 14.4,-6.357 14.4,-14.199 l 0,-56.64 z"
       style="fill:none;stroke:#ff003f;stroke-width:0.82771653;stroke-linecap:butt;stroke-linejoin:miter;stroke-miterlimit:4;stroke-opacity:1;stroke-dasharray:none"
       id="path2944-4-7-8-7" /><path
       d="m 670.39374,486.14176 c 0,-7.842 -6.447,-14.199 -14.4,-14.199 l -56.239,0 c -7.953,0 -14.401,6.357 -14.401,14.199 l 0,56.64 c 0,7.842 6.448,14.199 14.401,14.199 l 56.239,0 c 7.953,0 14.4,-6.357 14.4,-14.199 l 0,-56.64 z"
       style="fill:none;stroke:#ff003f;stroke-width:0.82771653;stroke-linecap:butt;stroke-linejoin:miter;stroke-miterlimit:4;stroke-opacity:1;stroke-dasharray:none"
       id="path2944-6-5-3-5" /><path
       d="m 766.77164,486.14176 c 0,-7.842 -6.447,-14.199 -14.4,-14.199 l -56.239,0 c -7.953,0 -14.401,6.357 -14.401,14.199 l 0,56.64 c 0,7.842 6.448,14.199 14.401,14.199 l 56.239,0 c 7.953,0 14.4,-6.357 14.4,-14.199 l 0,-56.64 z"
       style="fill:none;stroke:#ff003f;stroke-width:0.82771653;stroke-linecap:butt;stroke-linejoin:miter;stroke-miterlimit:4;stroke-opacity:1;stroke-dasharray:none"
       id="path2944-4-3-9-18-4" /><path
       d="m 92.125984,389.7638 c 0,-7.842 -6.44699,-14.199 -14.399994,-14.199 l -56.238989,0 c -7.953,0 -14.4009987,6.357 -14.4009987,14.199 l 0,56.64 c 0,7.842 6.4479987,14.199 14.4009987,14.199 l 56.238989,0 c 7.953004,0 14.399994,-6.357 14.399994,-14.199 l 0,-56.64 z"
       style="fill:none;stroke:#ff003f;stroke-width:0.82771653;stroke-linecap:butt;stroke-linejoin:miter;stroke-miterlimit:4;stroke-opacity:1;stroke-dasharray:none"
       id="path2944-64-8" /><path
       d="m 188.50397,389.7638 c 0,-7.842 -6.447,-14.199 -14.4,-14.199 l -56.239,0 c -7.953,0 -14.40103,6.357 -14.40103,14.199 l 0,56.64 c 0,7.842 6.44803,14.199 14.40103,14.199 l 56.239,0 c 7.953,0 14.4,-6.357 14.4,-14.199 l 0,-56.64 z"
       style="fill:none;stroke:#ff003f;stroke-width:0.82771653;stroke-linecap:butt;stroke-linejoin:miter;stroke-miterlimit:4;stroke-opacity:1;stroke-dasharray:none"
       id="path2944-4-33-1" /><path
       d="m 284.8819,389.7638 c 0,-7.842 -6.447,-14.199 -14.4,-14.199 l -56.23897,0 c -7.953,0 -14.401,6.357 -14.401,14.199 l 0,56.64 c 0,7.842 6.448,14.199 14.401,14.199 l 56.23897,0 c 7.953,0 14.4,-6.357 14.4,-14.199 l 0,-56.64 z"
       style="fill:none;stroke:#ff003f;stroke-width:0.82771653;stroke-linecap:butt;stroke-linejoin:miter;stroke-miterlimit:4;stroke-opacity:1;stroke-dasharray:none"
       id="path2944-6-3-2" /><path
       d="m 381.25989,389.7638 c 0,-7.842 -6.447,-14.199 -14.4,-14.199 l -56.239,0 c -7.953,0 -14.40103,6.357 -14.40103,14.199 l 0,56.64 c 0,7.842 6.44803,14.199 14.40103,14.199 l 56.239,0 c 7.953,0 14.4,-6.357 14.4,-14.199 l 0,-56.64 z"
       style="fill:none;stroke:#ff003f;stroke-width:0.82771653;stroke-linecap:butt;stroke-linejoin:miter;stroke-miterlimit:4;stroke-opacity:1;stroke-dasharray:none"
       id="path2944-4-3-86-8" /><path
       d="m 477.63781,389.7638 c 0,-7.842 -6.447,-14.199 -14.4,-14.199 l -56.239,0 c -7.953,0 -14.401,6.357 -14.401,14.199 l 0,56.64 c 0,7.842 6.448,14.199 14.401,14.199 l 56.239,0 c 7.953,0 14.4,-6.357 14.4,-14.199 l 0,-56.64 z"
       style="fill:none;stroke:#ff003f;stroke-width:0.82771653;stroke-linecap:butt;stroke-linejoin:miter;stroke-miterlimit:4;stroke-opacity:1;stroke-dasharray:none"
       id="path2944-1-0-9" /><path
       d="m 574.01574,389.7638 c 0,-7.842 -6.447,-14.199 -14.4,-14.199 l -56.23897,0 c -7.953,0 -14.401,6.357 -14.401,14.199 l 0,56.64 c 0,7.842 6.448,14.199 14.401,14.199 l 56.23897,0 c 7.953,0 14.4,-6.357 14.4,-14.199 l 0,-56.64 z"
       style="fill:none;stroke:#ff003f;stroke-width:0.82771653;stroke-linecap:butt;stroke-linejoin:miter;stroke-miterlimit:4;stroke-opacity:1;stroke-dasharray:none"
       id="path2944-4-7-4-3" /><path
       d="m 670.39374,389.7638 c 0,-7.842 -6.447,-14.199 -14.4,-14.199 l -56.239,0 c -7.953,0 -14.401,6.357 -14.401,14.199 l 0,56.64 c 0,7.842 6.448,14.199 14.401,14.199 l 56.239,0 c 7.953,0 14.4,-6.357 14.4,-14.199 l 0,-56.64 z"
       style="fill:none;stroke:#ff003f;stroke-width:0.82771653;stroke-linecap:butt;stroke-linejoin:miter;stroke-miterlimit:4;stroke-opacity:1;stroke-dasharray:none"
       id="path2944-6-5-8-6" /><path
       d="m 766.77164,389.7638 c 0,-7.842 -6.447,-14.199 -14.4,-14.199 l -56.239,0 c -7.953,0 -14.401,6.357 -14.401,14.199 l 0,56.64 c 0,7.842 6.448,14.199 14.401,14.199 l 56.239,0 c 7.953,0 14.4,-6.357 14.4,-14.199 l 0,-56.64 z"
       style="fill:none;stroke:#ff003f;stroke-width:0.82771653;stroke-linecap:butt;stroke-linejoin:miter;stroke-miterlimit:4;stroke-opacity:1;stroke-dasharray:none"
       id="path2944-4-3-9-8-8" /></g></svg>