<?xml version="1.0" encoding="UTF-8" standalone="no"?>
<!-- Created with Inkscape (http://www.inkscape.org/) -->

<svg
   xmlns:dc="http://purl.org/dc/elements/1.1/"
   xmlns:cc="http://creativecommons.org/ns#"
   xmlns:rdf="http://www.w3.org/1999/02/22-rdf-syntax-ns#"
   xmlns:svg="http://www.w3.org/2000/svg"
   xmlns="http://www.w3.org/2000/svg"
   xmlns:sodipodi="http://sodipodi.sourceforge.net/DTD/sodipodi-0.dtd"
   xmlns:inkscape="http://www.inkscape.org/namespaces/inkscape"
   sodipodi:docname="paris.svg"
   xml:space="preserve"
   height="850.39368"
   width="992.12598"
   inkscape:version="0.47 r22583"
   version="1.1"
   id="svg2816"><metadata
     id="metadata2822"><rdf:RDF><cc:Work
         rdf:about=""><dc:format>image/svg+xml</dc:format><dc:type
           rdf:resource="http://purl.org/dc/dcmitype/StillImage" /><dc:title></dc:title></cc:Work></rdf:RDF></metadata><defs
     id="defs2820"><inkscape:perspective
       sodipodi:type="inkscape:persp3d"
       inkscape:vp_x="0 : 0.5 : 1"
       inkscape:vp_y="0 : 1000 : 0"
       inkscape:vp_z="1 : 0.5 : 1"
       inkscape:persp3d-origin="0.5 : 0.33333333 : 1"
       id="perspective2824" /><clipPath
       clipPathUnits="userSpaceOnUse"
       id="clipPath2832"><path
         d="m 0,637.795 850.394,0 L 850.394,0 0,0 0,637.795 z"
         id="path2834" /></clipPath><inkscape:perspective
       id="perspective3893"
       inkscape:persp3d-origin="0.5 : 0.33333333 : 1"
       inkscape:vp_z="1 : 0.5 : 1"
       inkscape:vp_y="0 : 1000 : 0"
       inkscape:vp_x="0 : 0.5 : 1"
       sodipodi:type="inkscape:persp3d" /><inkscape:perspective
       id="perspective3917"
       inkscape:persp3d-origin="0.5 : 0.33333333 : 1"
       inkscape:vp_z="1 : 0.5 : 1"
       inkscape:vp_y="0 : 1000 : 0"
       inkscape:vp_x="0 : 0.5 : 1"
       sodipodi:type="inkscape:persp3d" /><inkscape:perspective
       id="perspective3939"
       inkscape:persp3d-origin="0.5 : 0.33333333 : 1"
       inkscape:vp_z="1 : 0.5 : 1"
       inkscape:vp_y="0 : 1000 : 0"
       inkscape:vp_x="0 : 0.5 : 1"
       sodipodi:type="inkscape:persp3d" /><inkscape:perspective
       id="perspective3983"
       inkscape:persp3d-origin="0.5 : 0.33333333 : 1"
       inkscape:vp_z="1 : 0.5 : 1"
       inkscape:vp_y="0 : 1000 : 0"
       inkscape:vp_x="0 : 0.5 : 1"
       sodipodi:type="inkscape:persp3d" /><inkscape:perspective
       id="perspective3997"
       inkscape:persp3d-origin="0.5 : 0.33333333 : 1"
       inkscape:vp_z="1 : 0.5 : 1"
       inkscape:vp_y="0 : 1000 : 0"
       inkscape:vp_x="0 : 0.5 : 1"
       sodipodi:type="inkscape:persp3d" /><inkscape:perspective
       id="perspective4019"
       inkscape:persp3d-origin="0.5 : 0.33333333 : 1"
       inkscape:vp_z="1 : 0.5 : 1"
       inkscape:vp_y="0 : 1000 : 0"
       inkscape:vp_x="0 : 0.5 : 1"
       sodipodi:type="inkscape:persp3d" /><inkscape:perspective
       id="perspective4042"
       inkscape:persp3d-origin="0.5 : 0.33333333 : 1"
       inkscape:vp_z="1 : 0.5 : 1"
       inkscape:vp_y="0 : 1000 : 0"
       inkscape:vp_x="0 : 0.5 : 1"
       sodipodi:type="inkscape:persp3d" /><inkscape:perspective
       id="perspective4064"
       inkscape:persp3d-origin="0.5 : 0.33333333 : 1"
       inkscape:vp_z="1 : 0.5 : 1"
       inkscape:vp_y="0 : 1000 : 0"
       inkscape:vp_x="0 : 0.5 : 1"
       sodipodi:type="inkscape:persp3d" /><inkscape:perspective
       id="perspective4078"
       inkscape:persp3d-origin="0.5 : 0.33333333 : 1"
       inkscape:vp_z="1 : 0.5 : 1"
       inkscape:vp_y="0 : 1000 : 0"
       inkscape:vp_x="0 : 0.5 : 1"
       sodipodi:type="inkscape:persp3d" /><inkscape:perspective
       id="perspective4092"
       inkscape:persp3d-origin="0.5 : 0.33333333 : 1"
       inkscape:vp_z="1 : 0.5 : 1"
       inkscape:vp_y="0 : 1000 : 0"
       inkscape:vp_x="0 : 0.5 : 1"
       sodipodi:type="inkscape:persp3d" /><inkscape:perspective
       id="perspective4114"
       inkscape:persp3d-origin="0.5 : 0.33333333 : 1"
       inkscape:vp_z="1 : 0.5 : 1"
       inkscape:vp_y="0 : 1000 : 0"
       inkscape:vp_x="0 : 0.5 : 1"
       sodipodi:type="inkscape:persp3d" /><inkscape:perspective
       id="perspective4158"
       inkscape:persp3d-origin="0.5 : 0.33333333 : 1"
       inkscape:vp_z="1 : 0.5 : 1"
       inkscape:vp_y="0 : 1000 : 0"
       inkscape:vp_x="0 : 0.5 : 1"
       sodipodi:type="inkscape:persp3d" /><inkscape:perspective
       id="perspective4183"
       inkscape:persp3d-origin="0.5 : 0.33333333 : 1"
       inkscape:vp_z="1 : 0.5 : 1"
       inkscape:vp_y="0 : 1000 : 0"
       inkscape:vp_x="0 : 0.5 : 1"
       sodipodi:type="inkscape:persp3d" /><inkscape:perspective
       id="perspective4212"
       inkscape:persp3d-origin="0.5 : 0.33333333 : 1"
       inkscape:vp_z="1 : 0.5 : 1"
       inkscape:vp_y="0 : 1000 : 0"
       inkscape:vp_x="0 : 0.5 : 1"
       sodipodi:type="inkscape:persp3d" /><inkscape:perspective
       id="perspective4235"
       inkscape:persp3d-origin="0.5 : 0.33333333 : 1"
       inkscape:vp_z="1 : 0.5 : 1"
       inkscape:vp_y="0 : 1000 : 0"
       inkscape:vp_x="0 : 0.5 : 1"
       sodipodi:type="inkscape:persp3d" /><inkscape:perspective
       id="perspective4249"
       inkscape:persp3d-origin="0.5 : 0.33333333 : 1"
       inkscape:vp_z="1 : 0.5 : 1"
       inkscape:vp_y="0 : 1000 : 0"
       inkscape:vp_x="0 : 0.5 : 1"
       sodipodi:type="inkscape:persp3d" /><inkscape:perspective
       id="perspective4274"
       inkscape:persp3d-origin="0.5 : 0.33333333 : 1"
       inkscape:vp_z="1 : 0.5 : 1"
       inkscape:vp_y="0 : 1000 : 0"
       inkscape:vp_x="0 : 0.5 : 1"
       sodipodi:type="inkscape:persp3d" /><inkscape:perspective
       id="perspective4297"
       inkscape:persp3d-origin="0.5 : 0.33333333 : 1"
       inkscape:vp_z="1 : 0.5 : 1"
       inkscape:vp_y="0 : 1000 : 0"
       inkscape:vp_x="0 : 0.5 : 1"
       sodipodi:type="inkscape:persp3d" /><inkscape:perspective
       id="perspective4319"
       inkscape:persp3d-origin="0.5 : 0.33333333 : 1"
       inkscape:vp_z="1 : 0.5 : 1"
       inkscape:vp_y="0 : 1000 : 0"
       inkscape:vp_x="0 : 0.5 : 1"
       sodipodi:type="inkscape:persp3d" /><inkscape:perspective
       id="perspective4341"
       inkscape:persp3d-origin="0.5 : 0.33333333 : 1"
       inkscape:vp_z="1 : 0.5 : 1"
       inkscape:vp_y="0 : 1000 : 0"
       inkscape:vp_x="0 : 0.5 : 1"
       sodipodi:type="inkscape:persp3d" /><inkscape:perspective
       id="perspective4364"
       inkscape:persp3d-origin="0.5 : 0.33333333 : 1"
       inkscape:vp_z="1 : 0.5 : 1"
       inkscape:vp_y="0 : 1000 : 0"
       inkscape:vp_x="0 : 0.5 : 1"
       sodipodi:type="inkscape:persp3d" /><inkscape:perspective
       id="perspective4408"
       inkscape:persp3d-origin="0.5 : 0.33333333 : 1"
       inkscape:vp_z="1 : 0.5 : 1"
       inkscape:vp_y="0 : 1000 : 0"
       inkscape:vp_x="0 : 0.5 : 1"
       sodipodi:type="inkscape:persp3d" /><inkscape:perspective
       id="perspective4430"
       inkscape:persp3d-origin="0.5 : 0.33333333 : 1"
       inkscape:vp_z="1 : 0.5 : 1"
       inkscape:vp_y="0 : 1000 : 0"
       inkscape:vp_x="0 : 0.5 : 1"
       sodipodi:type="inkscape:persp3d" /><inkscape:perspective
       id="perspective4453"
       inkscape:persp3d-origin="0.5 : 0.33333333 : 1"
       inkscape:vp_z="1 : 0.5 : 1"
       inkscape:vp_y="0 : 1000 : 0"
       inkscape:vp_x="0 : 0.5 : 1"
       sodipodi:type="inkscape:persp3d" /><inkscape:perspective
       id="perspective4475"
       inkscape:persp3d-origin="0.5 : 0.33333333 : 1"
       inkscape:vp_z="1 : 0.5 : 1"
       inkscape:vp_y="0 : 1000 : 0"
       inkscape:vp_x="0 : 0.5 : 1"
       sodipodi:type="inkscape:persp3d" /><inkscape:perspective
       id="perspective4500"
       inkscape:persp3d-origin="0.5 : 0.33333333 : 1"
       inkscape:vp_z="1 : 0.5 : 1"
       inkscape:vp_y="0 : 1000 : 0"
       inkscape:vp_x="0 : 0.5 : 1"
       sodipodi:type="inkscape:persp3d" /><inkscape:perspective
       id="perspective4531"
       inkscape:persp3d-origin="0.5 : 0.33333333 : 1"
       inkscape:vp_z="1 : 0.5 : 1"
       inkscape:vp_y="0 : 1000 : 0"
       inkscape:vp_x="0 : 0.5 : 1"
       sodipodi:type="inkscape:persp3d" /><inkscape:perspective
       id="perspective4566"
       inkscape:persp3d-origin="0.5 : 0.33333333 : 1"
       inkscape:vp_z="1 : 0.5 : 1"
       inkscape:vp_y="0 : 1000 : 0"
       inkscape:vp_x="0 : 0.5 : 1"
       sodipodi:type="inkscape:persp3d" /><inkscape:perspective
       id="perspective4588"
       inkscape:persp3d-origin="0.5 : 0.33333333 : 1"
       inkscape:vp_z="1 : 0.5 : 1"
       inkscape:vp_y="0 : 1000 : 0"
       inkscape:vp_x="0 : 0.5 : 1"
       sodipodi:type="inkscape:persp3d" /><inkscape:perspective
       id="perspective4623"
       inkscape:persp3d-origin="0.5 : 0.33333333 : 1"
       inkscape:vp_z="1 : 0.5 : 1"
       inkscape:vp_y="0 : 1000 : 0"
       inkscape:vp_x="0 : 0.5 : 1"
       sodipodi:type="inkscape:persp3d" /><inkscape:perspective
       id="perspective4623-2"
       inkscape:persp3d-origin="0.5 : 0.33333333 : 1"
       inkscape:vp_z="1 : 0.5 : 1"
       inkscape:vp_y="0 : 1000 : 0"
       inkscape:vp_x="0 : 0.5 : 1"
       sodipodi:type="inkscape:persp3d" /><inkscape:perspective
       id="perspective4672"
       inkscape:persp3d-origin="0.5 : 0.33333333 : 1"
       inkscape:vp_z="1 : 0.5 : 1"
       inkscape:vp_y="0 : 1000 : 0"
       inkscape:vp_x="0 : 0.5 : 1"
       sodipodi:type="inkscape:persp3d" /><inkscape:perspective
       id="perspective4694"
       inkscape:persp3d-origin="0.5 : 0.33333333 : 1"
       inkscape:vp_z="1 : 0.5 : 1"
       inkscape:vp_y="0 : 1000 : 0"
       inkscape:vp_x="0 : 0.5 : 1"
       sodipodi:type="inkscape:persp3d" /><inkscape:perspective
       id="perspective4716"
       inkscape:persp3d-origin="0.5 : 0.33333333 : 1"
       inkscape:vp_z="1 : 0.5 : 1"
       inkscape:vp_y="0 : 1000 : 0"
       inkscape:vp_x="0 : 0.5 : 1"
       sodipodi:type="inkscape:persp3d" /><inkscape:perspective
       id="perspective4716-6"
       inkscape:persp3d-origin="0.5 : 0.33333333 : 1"
       inkscape:vp_z="1 : 0.5 : 1"
       inkscape:vp_y="0 : 1000 : 0"
       inkscape:vp_x="0 : 0.5 : 1"
       sodipodi:type="inkscape:persp3d" /><inkscape:perspective
       id="perspective4752"
       inkscape:persp3d-origin="0.5 : 0.33333333 : 1"
       inkscape:vp_z="1 : 0.5 : 1"
       inkscape:vp_y="0 : 1000 : 0"
       inkscape:vp_x="0 : 0.5 : 1"
       sodipodi:type="inkscape:persp3d" /><inkscape:perspective
       id="perspective4752-2"
       inkscape:persp3d-origin="0.5 : 0.33333333 : 1"
       inkscape:vp_z="1 : 0.5 : 1"
       inkscape:vp_y="0 : 1000 : 0"
       inkscape:vp_x="0 : 0.5 : 1"
       sodipodi:type="inkscape:persp3d" /><inkscape:perspective
       id="perspective4752-4"
       inkscape:persp3d-origin="0.5 : 0.33333333 : 1"
       inkscape:vp_z="1 : 0.5 : 1"
       inkscape:vp_y="0 : 1000 : 0"
       inkscape:vp_x="0 : 0.5 : 1"
       sodipodi:type="inkscape:persp3d" /><inkscape:perspective
       id="perspective4752-5"
       inkscape:persp3d-origin="0.5 : 0.33333333 : 1"
       inkscape:vp_z="1 : 0.5 : 1"
       inkscape:vp_y="0 : 1000 : 0"
       inkscape:vp_x="0 : 0.5 : 1"
       sodipodi:type="inkscape:persp3d" /><inkscape:perspective
       id="perspective4752-7"
       inkscape:persp3d-origin="0.5 : 0.33333333 : 1"
       inkscape:vp_z="1 : 0.5 : 1"
       inkscape:vp_y="0 : 1000 : 0"
       inkscape:vp_x="0 : 0.5 : 1"
       sodipodi:type="inkscape:persp3d" /><inkscape:perspective
       id="perspective4752-3"
       inkscape:persp3d-origin="0.5 : 0.33333333 : 1"
       inkscape:vp_z="1 : 0.5 : 1"
       inkscape:vp_y="0 : 1000 : 0"
       inkscape:vp_x="0 : 0.5 : 1"
       sodipodi:type="inkscape:persp3d" /><inkscape:perspective
       id="perspective4819"
       inkscape:persp3d-origin="0.5 : 0.33333333 : 1"
       inkscape:vp_z="1 : 0.5 : 1"
       inkscape:vp_y="0 : 1000 : 0"
       inkscape:vp_x="0 : 0.5 : 1"
       sodipodi:type="inkscape:persp3d" /><inkscape:perspective
       id="perspective4850"
       inkscape:persp3d-origin="0.5 : 0.33333333 : 1"
       inkscape:vp_z="1 : 0.5 : 1"
       inkscape:vp_y="0 : 1000 : 0"
       inkscape:vp_x="0 : 0.5 : 1"
       sodipodi:type="inkscape:persp3d" /><inkscape:perspective
       id="perspective2930"
       inkscape:persp3d-origin="0.5 : 0.33333333 : 1"
       inkscape:vp_z="1 : 0.5 : 1"
       inkscape:vp_y="0 : 1000 : 0"
       inkscape:vp_x="0 : 0.5 : 1"
       sodipodi:type="inkscape:persp3d" /><inkscape:perspective
       id="perspective3720"
       inkscape:persp3d-origin="0.5 : 0.33333333 : 1"
       inkscape:vp_z="1 : 0.5 : 1"
       inkscape:vp_y="0 : 1000 : 0"
       inkscape:vp_x="0 : 0.5 : 1"
       sodipodi:type="inkscape:persp3d" /><inkscape:perspective
       id="perspective3765"
       inkscape:persp3d-origin="0.5 : 0.33333333 : 1"
       inkscape:vp_z="1 : 0.5 : 1"
       inkscape:vp_y="0 : 1000 : 0"
       inkscape:vp_x="0 : 0.5 : 1"
       sodipodi:type="inkscape:persp3d" /><inkscape:perspective
       id="perspective3788"
       inkscape:persp3d-origin="0.5 : 0.33333333 : 1"
       inkscape:vp_z="1 : 0.5 : 1"
       inkscape:vp_y="0 : 1000 : 0"
       inkscape:vp_x="0 : 0.5 : 1"
       sodipodi:type="inkscape:persp3d" /><inkscape:perspective
       id="perspective3810"
       inkscape:persp3d-origin="0.5 : 0.33333333 : 1"
       inkscape:vp_z="1 : 0.5 : 1"
       inkscape:vp_y="0 : 1000 : 0"
       inkscape:vp_x="0 : 0.5 : 1"
       sodipodi:type="inkscape:persp3d" /><inkscape:perspective
       id="perspective3828"
       inkscape:persp3d-origin="0.5 : 0.33333333 : 1"
       inkscape:vp_z="1 : 0.5 : 1"
       inkscape:vp_y="0 : 1000 : 0"
       inkscape:vp_x="0 : 0.5 : 1"
       sodipodi:type="inkscape:persp3d" /><inkscape:perspective
       id="perspective3851"
       inkscape:persp3d-origin="0.5 : 0.33333333 : 1"
       inkscape:vp_z="1 : 0.5 : 1"
       inkscape:vp_y="0 : 1000 : 0"
       inkscape:vp_x="0 : 0.5 : 1"
       sodipodi:type="inkscape:persp3d" /><inkscape:perspective
       id="perspective3873"
       inkscape:persp3d-origin="0.5 : 0.33333333 : 1"
       inkscape:vp_z="1 : 0.5 : 1"
       inkscape:vp_y="0 : 1000 : 0"
       inkscape:vp_x="0 : 0.5 : 1"
       sodipodi:type="inkscape:persp3d" /><inkscape:perspective
       id="perspective3890"
       inkscape:persp3d-origin="0.5 : 0.33333333 : 1"
       inkscape:vp_z="1 : 0.5 : 1"
       inkscape:vp_y="0 : 1000 : 0"
       inkscape:vp_x="0 : 0.5 : 1"
       sodipodi:type="inkscape:persp3d" /><inkscape:perspective
       id="perspective3928"
       inkscape:persp3d-origin="0.5 : 0.33333333 : 1"
       inkscape:vp_z="1 : 0.5 : 1"
       inkscape:vp_y="0 : 1000 : 0"
       inkscape:vp_x="0 : 0.5 : 1"
       sodipodi:type="inkscape:persp3d" /><inkscape:perspective
       id="perspective3957"
       inkscape:persp3d-origin="0.5 : 0.33333333 : 1"
       inkscape:vp_z="1 : 0.5 : 1"
       inkscape:vp_y="0 : 1000 : 0"
       inkscape:vp_x="0 : 0.5 : 1"
       sodipodi:type="inkscape:persp3d" /><inkscape:perspective
       id="perspective3980"
       inkscape:persp3d-origin="0.5 : 0.33333333 : 1"
       inkscape:vp_z="1 : 0.5 : 1"
       inkscape:vp_y="0 : 1000 : 0"
       inkscape:vp_x="0 : 0.5 : 1"
       sodipodi:type="inkscape:persp3d" /><inkscape:perspective
       id="perspective4002"
       inkscape:persp3d-origin="0.5 : 0.33333333 : 1"
       inkscape:vp_z="1 : 0.5 : 1"
       inkscape:vp_y="0 : 1000 : 0"
       inkscape:vp_x="0 : 0.5 : 1"
       sodipodi:type="inkscape:persp3d" /><inkscape:perspective
       id="perspective4024"
       inkscape:persp3d-origin="0.5 : 0.33333333 : 1"
       inkscape:vp_z="1 : 0.5 : 1"
       inkscape:vp_y="0 : 1000 : 0"
       inkscape:vp_x="0 : 0.5 : 1"
       sodipodi:type="inkscape:persp3d" /><inkscape:perspective
       id="perspective4062"
       inkscape:persp3d-origin="0.5 : 0.33333333 : 1"
       inkscape:vp_z="1 : 0.5 : 1"
       inkscape:vp_y="0 : 1000 : 0"
       inkscape:vp_x="0 : 0.5 : 1"
       sodipodi:type="inkscape:persp3d" /><inkscape:perspective
       id="perspective4085"
       inkscape:persp3d-origin="0.5 : 0.33333333 : 1"
       inkscape:vp_z="1 : 0.5 : 1"
       inkscape:vp_y="0 : 1000 : 0"
       inkscape:vp_x="0 : 0.5 : 1"
       sodipodi:type="inkscape:persp3d" /><inkscape:perspective
       id="perspective4129"
       inkscape:persp3d-origin="0.5 : 0.33333333 : 1"
       inkscape:vp_z="1 : 0.5 : 1"
       inkscape:vp_y="0 : 1000 : 0"
       inkscape:vp_x="0 : 0.5 : 1"
       sodipodi:type="inkscape:persp3d" /><inkscape:perspective
       id="perspective4152"
       inkscape:persp3d-origin="0.5 : 0.33333333 : 1"
       inkscape:vp_z="1 : 0.5 : 1"
       inkscape:vp_y="0 : 1000 : 0"
       inkscape:vp_x="0 : 0.5 : 1"
       sodipodi:type="inkscape:persp3d" /><inkscape:perspective
       id="perspective4174"
       inkscape:persp3d-origin="0.5 : 0.33333333 : 1"
       inkscape:vp_z="1 : 0.5 : 1"
       inkscape:vp_y="0 : 1000 : 0"
       inkscape:vp_x="0 : 0.5 : 1"
       sodipodi:type="inkscape:persp3d" /><inkscape:perspective
       id="perspective4190"
       inkscape:persp3d-origin="0.5 : 0.33333333 : 1"
       inkscape:vp_z="1 : 0.5 : 1"
       inkscape:vp_y="0 : 1000 : 0"
       inkscape:vp_x="0 : 0.5 : 1"
       sodipodi:type="inkscape:persp3d" /><inkscape:perspective
       id="perspective4213"
       inkscape:persp3d-origin="0.5 : 0.33333333 : 1"
       inkscape:vp_z="1 : 0.5 : 1"
       inkscape:vp_y="0 : 1000 : 0"
       inkscape:vp_x="0 : 0.5 : 1"
       sodipodi:type="inkscape:persp3d" /><inkscape:perspective
       id="perspective4235-2"
       inkscape:persp3d-origin="0.5 : 0.33333333 : 1"
       inkscape:vp_z="1 : 0.5 : 1"
       inkscape:vp_y="0 : 1000 : 0"
       inkscape:vp_x="0 : 0.5 : 1"
       sodipodi:type="inkscape:persp3d" /><inkscape:perspective
       id="perspective4257"
       inkscape:persp3d-origin="0.5 : 0.33333333 : 1"
       inkscape:vp_z="1 : 0.5 : 1"
       inkscape:vp_y="0 : 1000 : 0"
       inkscape:vp_x="0 : 0.5 : 1"
       sodipodi:type="inkscape:persp3d" /><inkscape:perspective
       id="perspective4257-5"
       inkscape:persp3d-origin="0.5 : 0.33333333 : 1"
       inkscape:vp_z="1 : 0.5 : 1"
       inkscape:vp_y="0 : 1000 : 0"
       inkscape:vp_x="0 : 0.5 : 1"
       sodipodi:type="inkscape:persp3d" /><inkscape:perspective
       id="perspective4257-6"
       inkscape:persp3d-origin="0.5 : 0.33333333 : 1"
       inkscape:vp_z="1 : 0.5 : 1"
       inkscape:vp_y="0 : 1000 : 0"
       inkscape:vp_x="0 : 0.5 : 1"
       sodipodi:type="inkscape:persp3d" /><inkscape:perspective
       id="perspective4298"
       inkscape:persp3d-origin="0.5 : 0.33333333 : 1"
       inkscape:vp_z="1 : 0.5 : 1"
       inkscape:vp_y="0 : 1000 : 0"
       inkscape:vp_x="0 : 0.5 : 1"
       sodipodi:type="inkscape:persp3d" /><inkscape:perspective
       id="perspective4345"
       inkscape:persp3d-origin="0.5 : 0.33333333 : 1"
       inkscape:vp_z="1 : 0.5 : 1"
       inkscape:vp_y="0 : 1000 : 0"
       inkscape:vp_x="0 : 0.5 : 1"
       sodipodi:type="inkscape:persp3d" /><inkscape:perspective
       id="perspective4373"
       inkscape:persp3d-origin="0.5 : 0.33333333 : 1"
       inkscape:vp_z="1 : 0.5 : 1"
       inkscape:vp_y="0 : 1000 : 0"
       inkscape:vp_x="0 : 0.5 : 1"
       sodipodi:type="inkscape:persp3d" /><inkscape:perspective
       id="perspective4428"
       inkscape:persp3d-origin="0.5 : 0.33333333 : 1"
       inkscape:vp_z="1 : 0.5 : 1"
       inkscape:vp_y="0 : 1000 : 0"
       inkscape:vp_x="0 : 0.5 : 1"
       sodipodi:type="inkscape:persp3d" /><inkscape:perspective
       id="perspective4428-9"
       inkscape:persp3d-origin="0.5 : 0.33333333 : 1"
       inkscape:vp_z="1 : 0.5 : 1"
       inkscape:vp_y="0 : 1000 : 0"
       inkscape:vp_x="0 : 0.5 : 1"
       sodipodi:type="inkscape:persp3d" /><inkscape:perspective
       id="perspective4464"
       inkscape:persp3d-origin="0.5 : 0.33333333 : 1"
       inkscape:vp_z="1 : 0.5 : 1"
       inkscape:vp_y="0 : 1000 : 0"
       inkscape:vp_x="0 : 0.5 : 1"
       sodipodi:type="inkscape:persp3d" /><inkscape:perspective
       id="perspective4501"
       inkscape:persp3d-origin="0.5 : 0.33333333 : 1"
       inkscape:vp_z="1 : 0.5 : 1"
       inkscape:vp_y="0 : 1000 : 0"
       inkscape:vp_x="0 : 0.5 : 1"
       sodipodi:type="inkscape:persp3d" /><inkscape:perspective
       id="perspective4532"
       inkscape:persp3d-origin="0.5 : 0.33333333 : 1"
       inkscape:vp_z="1 : 0.5 : 1"
       inkscape:vp_y="0 : 1000 : 0"
       inkscape:vp_x="0 : 0.5 : 1"
       sodipodi:type="inkscape:persp3d" /></defs><sodipodi:namedview
     pagecolor="#ffffff"
     bordercolor="#666666"
     borderopacity="1"
     objecttolerance="10"
     gridtolerance="10"
     guidetolerance="10"
     inkscape:pageopacity="0"
     inkscape:pageshadow="2"
     inkscape:window-width="1366"
     inkscape:window-height="716"
     id="namedview2818"
     showgrid="true"
     inkscape:zoom="0.41863531"
     inkscape:cx="128.05888"
     inkscape:cy="445.77915"
     inkscape:window-x="0"
     inkscape:window-y="0"
     inkscape:window-maximized="1"
     inkscape:current-layer="g2826"
     inkscape:document-units="mm"
     units="mm"
     inkscape:snap-global="true"
     showguides="true"
     inkscape:guide-bbox="true"
     inkscape:object-nodes="true"><inkscape:grid
       type="xygrid"
       id="grid2879"
       empspacing="5"
       visible="true"
       enabled="true"
       snapvisiblegridlinesonly="true"
       units="mm"
       spacingx="0.5mm"
       spacingy="0.5mm" /></sodipodi:namedview><g
     id="g2826"
     inkscape:groupmode="layer"
     inkscape:label="layout-3mm-pieces"
     transform="matrix(1.25,0,0,-1.25,0,850.39372)"><path
       id="path2937-8-8"
       style="fill:none;stroke:#000000;stroke-width:0.8;stroke-opacity:1;stroke-miterlimit:4;stroke-dasharray:none"
       d="m -243.77953,250.86618 c 0,0 2.83465,0 2.83465,0 -1.75295,5.46948 -0.48881,12.31598 -2.83465,17.00787 0,4.25197 0,4.25197 0,4.25197 0,0 -8.50393,0 -8.50393,0 0,0 0,0 0,-4.25197 -2.34584,-4.69189 -1.0817,-11.53839 -2.83465,-17.00787 0,0 2.83465,0 2.83465,0 0,-8.78875 0,-17.0079 0,-17.0079 0,0 -2.40352,-0.65619 -4.04158,-1.16653 -7.63984,-3.57828 -11.32805,-12.02963 -11.55901,-20.09332 -5.19351,0 -10.38701,0 -15.58052,0 3.74692,5.58437 6.94331,11.51923 9.85073,17.57736 2.01943,5.07295 4.32249,9.35178 4.32249,15.02107 0.0206,3.04257 -0.96357,6.64984 2.83465,5.66929 2.55796,8.28563 2.57686,16.99423 4.25197,25.51181 -1.11528,2.10598 -1.68022,5.24191 1.41732,7.08662 4.16507,23.25801 3.96411,37.35586 4.25197,60.94488 1.00699,6.29005 -2.163,13.75205 -1.41732,19.84252 7.08662,4.25197 8.50394,25.51181 9.92126,25.51181 1.41733,0 2.83465,-21.25984 9.92126,-25.51181 0.74568,-6.09047 -2.42431,-13.55247 -1.41732,-19.84252 0.28786,-23.58902 0.0869,-37.68687 4.25197,-60.94488 3.09754,-1.8447 2.5326,-4.98064 1.41732,-7.08661 1.67511,-8.51759 1.69401,-17.22619 4.25197,-25.51181 3.79822,0.98054 2.81405,-2.62672 2.83465,-5.6693 0,-5.66929 2.30306,-9.94812 4.32249,-15.02106 2.90742,-6.05814 6.10381,-11.99299 9.85073,-17.57736 -5.19351,0 -10.38701,0 -15.58052,0 -0.23096,8.06369 -3.91917,16.51504 -11.55901,20.09332 -4.04157,1.16654 -4.04157,1.16654 -4.04157,1.16652 l 0,17.0079 z"
       sodipodi:nodetypes="ccccccccsccccccccccccccccccccccc" /><path
       id="path2937-8-8-1"
       style="fill:none;stroke:#000000;stroke-width:0.8;stroke-opacity:1;stroke-miterlimit:4;stroke-dasharray:none"
       d="m -176.92121,250.80277 c 6.84247,1.48073 6.84247,1.48073 13.68494,0 -1.75295,5.46948 -0.24466,12.37939 -2.5905,17.07128 -2.83465,0 -5.66929,0 -8.50394,0 -2.34584,-4.69189 -0.83755,-11.6018 -2.5905,-17.07128 z m 6.84247,-16.94447 c 1.89079,0.1126 -1.89079,0.11262 0,0 1.89079,-0.1126 4.54683,7.8e-4 8.29354,-1.16652 7.63984,-3.57828 11.32805,-12.02962 11.55901,-20.09332 5.19351,0 10.38701,0 15.58052,0 -3.74692,5.58438 -6.94331,11.51923 -9.85073,17.57736 -2.01943,5.07295 -4.32249,9.35178 -4.32249,15.02107 -0.0206,3.04257 0.96357,6.64984 -2.83465,5.66929 -2.55796,8.28563 -2.57686,16.99423 -4.25197,25.51181 1.11528,2.10598 1.68022,5.24191 -1.41732,7.08662 -4.16507,23.25801 -3.96411,37.35586 -4.25197,60.94488 -1.00699,6.29005 2.163,13.75205 1.41732,19.84252 -2.5639,1.53835 -5.66929,7.08661 -5.66929,7.08661 0,0 0,-99.2126 0,-99.2126 0,0 -8.50394,0 -8.50394,0 0,0 0,99.2126 0,99.2126 0,0 -3.25339,-5.63707 -5.66929,-7.08661 -0.74568,-6.09047 2.42431,-13.55247 1.41732,-19.84252 -0.28786,-23.58902 -0.0869,-37.68687 -4.25197,-60.94488 -3.09754,-1.84471 -2.5326,-4.98064 -1.41732,-7.08663 -1.67511,-8.51757 -1.69401,-17.22617 -4.25197,-25.5118 -3.79822,0.98055 -2.81401,-2.62672 -2.83465,-5.66929 0,-5.66929 -2.30306,-9.94812 -4.32249,-15.02107 -2.90742,-6.05813 -6.10381,-11.993 -9.85073,-17.57736 5.19351,0 10.38701,0 15.58052,0 0.23096,8.06368 3.91917,16.51504 11.55901,20.09332 3.74671,1.16728 6.40275,1.05392 8.29354,1.16652 z"
       sodipodi:nodetypes="cccccccccccccccccccccccccccccccc" /><path
       id="path3818-1"
       style="fill:none;stroke:#000000;stroke-width:0.8;stroke-linecap:butt;stroke-linejoin:miter;stroke-opacity:1;stroke-miterlimit:4;stroke-dasharray:none"
       d="m -211.1811,197.00791 c -22.67716,4.25197 -36.85039,4.25197 -59.52756,0 l 1.41732,-1.41733 0,-167.244089 14.17323,0 1.41733,1.41732 8.50393,3e-6 c 0,0 0,19.84252 0,19.84252 0,0 8.50394,0 8.50394,0 l 0,-19.84252 8.50394,-3e-6 1.41732,-1.41732 14.17323,0 0,167.244089 1.41732,1.41733 z"
       sodipodi:nodetypes="ccccccccccccccc" /><path
       id="path3818-1-3"
       style="fill:none;stroke:#000000;stroke-width:0.8;stroke-linecap:butt;stroke-linejoin:miter;stroke-opacity:1;stroke-miterlimit:4;stroke-dasharray:none"
       d="m -151.65354,49.606334 c 0,0 -8.50394,0 -8.50394,0 0,0 0,28.346456 0,28.346456 -4.25197,-21.259842 -24.09449,-49.606299 -24.09449,-49.606299 l 14.17323,0 1.41733,1.41732 25.51181,0 1.41732,-1.41732 14.17323,0 c 0,0 -19.84252,28.346457 -24.09449,49.606299 0,0 0,-28.346456 0,-28.346456 z"
       sodipodi:nodetypes="ccccccccccc" /><path
       id="path3934-8"
       style="fill:none;stroke:#000000;stroke-width:0.80000001;stroke-miterlimit:4;stroke-opacity:1;stroke-dasharray:none"
       d="m -480.47244,140.31499 c 1.41733,0 -1.41733,0 0,0 1.41733,0 1.481,-7.51394 1.41733,-8.50394 2.83464,0 2.83464,-4.25197 0.86708,-4.13753 -0.42611,-1.12676 0.85809,-2.06579 6.03354,-4.41184 12.80702,-5.80544 17.0366,-12.81765 10.97803,-18.2005 -1.26519,-1.12407 -2.29923,-2.38407 -2.29787,-2.8 9.5e-4,-0.41592 3.75468,-1.67212 8.34071,-2.791571 5.28064,-1.289 6.22979,-1.6491 6.06808,-2.28715 -0.14043,-0.55413 0.39576,-1.55393 1.19153,-2.22179 1.77794,-1.49214 1.8163,-2.27566 0.17873,-3.65 -0.69746,-0.58535 -1.10906,-1.46479 -0.91463,-1.9543 0.22015,-0.55428 -0.54013,-2.02545 -5.3418,-2.65234 l -7.71011,-1.0066 c 0.28593,-28.093961 0.41574,-29.261483 1.0319,-57.350938 0,0 -8.50394,0 -8.50394,0 0,0 -1.41732,1.417323 -1.41732,1.417323 0,0 -5.65542,0 -5.65542,0 0,0 -0.0139,41.102362 -0.0139,41.102362 0,0 -8.50394,0 -8.50394,0 0,0 0.0379,-41.102362 0.0379,-41.102362 0,0 -5.70717,0 -5.70717,0 0,0 -1.41732,-1.417323 -1.41732,-1.417323 0,0 -8.50394,0 -8.50394,0 l 1.0319,57.350928 -7.71011,1.0066 c -4.80167,0.6269 -5.56195,2.09806 -5.3418,2.65234 0.19443,0.48951 -0.21717,1.36895 -0.91463,1.9543 -1.63757,1.37434 -1.59921,2.15786 0.17873,3.65 0.79577,0.66786 1.33196,1.66766 1.19153,2.22179 -0.16171,0.63805 0.78744,0.99815 6.06808,2.28715 4.58603,1.119451 8.33975,2.375651 8.34071,2.791571 10e-4,0.41593 -1.03268,1.67593 -2.29787,2.8 -6.05857,5.38286 -1.82899,12.39507 10.97803,18.20051 5.17545,2.34605 6.45965,3.28508 6.03354,4.41184 -1.96756,-0.11444 -1.96756,4.13753 0.86708,4.13753 -0.0637,0.99 0,8.50394 1.41733,8.50394 l -2e-5,0 z"
       sodipodi:nodetypes="ccccssssssssccccccccccccccsssssssscccc" /><path
       id="path3934-8-0"
       style="fill:none;stroke:#000000;stroke-width:0.80000001;stroke-miterlimit:4;stroke-opacity:1;stroke-dasharray:none"
       d="m -409.6063,70.866179 c 0,0 8.50393,0 8.50393,0 0,0 0,53.858261 0,53.858261 0,0 2.57517,-0.78694 4.06599,-1.46273 12.80702,-5.80544 17.0366,-12.81765 10.97803,-18.2005 -1.26519,-1.12407 -2.29923,-2.38407 -2.29787,-2.8 9.6e-4,-0.41592 3.75468,-1.67213 8.34071,-2.791581 5.28064,-1.289 6.22979,-1.6491 6.06808,-2.28715 -0.14043,-0.55413 0.39576,-1.55393 1.19153,-2.22179 1.77794,-1.49214 1.8163,-2.27566 0.17873,-3.65 -0.69746,-0.58535 -1.10906,-1.46479 -0.91463,-1.9543 0.22015,-0.55428 -0.54013,-2.02545 -5.3418,-2.65234 l -7.71011,-1.0066 c 0.28593,-28.093968 0.41574,-29.261498 1.0319,-57.350958 0,0 -8.50394,0 -8.50394,0 0,0 -1.41732,1.41733 -1.41732,1.41733 0,0 -19.84252,0 -19.84252,0 0,0 -1.41732,-1.41733 -1.41732,-1.41733 0,0 -8.50394,0 -8.50394,0 l 1.0319,57.350948 -7.71011,1.0066 c -4.80167,0.6269 -5.56195,2.09806 -5.3418,2.65234 0.19443,0.48951 -0.21717,1.36895 -0.91463,1.9543 -1.63757,1.37434 -1.59921,2.15786 0.17873,3.65 0.79577,0.66786 1.33196,1.66766 1.19153,2.22179 -0.16171,0.63805 0.78744,0.99815 6.06808,2.28715 4.58603,1.119451 8.33975,2.375661 8.34071,2.791581 9.6e-4,0.41593 -1.03268,1.67593 -2.29787,2.8 -6.05857,5.38286 -1.82899,12.39507 10.97803,18.20051 1.57145,0.71234 4.06598,1.46273 4.06598,1.46273 0,0 0,-53.858261 0,-53.858261 z"
       sodipodi:nodetypes="cccssssssssccccccccccsssssssscc" /><path
       id="path4030-4"
       style="fill:none;stroke:#000000;stroke-width:0.8;stroke-opacity:1;stroke-miterlimit:4;stroke-dasharray:none"
       d="m -675.64459,230.67991 c 1.33603,-0.92939 2.24912,-5.39298 1.59009,-5.32555 -0.60884,-0.0122 -0.93712,-0.76219 -0.84413,-2.27497 0.086,-1.39863 0.42295,-1.94332 0.84413,-1.977 0.82615,-0.0661 0.82615,-7.08661 0.82615,-7.08661 0,0 0,-29.76378 0,-29.76378 l 6.24956,0 0,38.26772 8.50394,0 0.12839,-38.26772 6.37796,0 c 0,0 -0.0312,30.19216 -0.0312,30.19216 0,0 0.70714,6.63743 1.35861,6.63743 0.6351,0 0.81692,0.64821 0.81692,1.85336 0,1.20514 -0.18182,2.27562 -0.81692,2.27562 -1.70106,0 -1.7891,17.02069 -0.0491,19.68438 1.17625,1.80072 1.14596,2.38538 -0.16365,3.15861 -1.14388,0.6754 -1.43809,2.37119 -1.02077,5.88382 l 0.58627,4.93496 -17.98781,0.79984 c -5.07206,0.22553 -11.67095,1.1523 -18.12542,1.11525 -6.45447,-0.0371 6.45447,-0.0371 0,0 -6.45447,0.037 -13.05336,-0.88972 -18.12542,-1.11525 l -17.98781,-0.79984 0.58627,-4.93496 c 0.41732,-3.51263 0.12311,-5.20842 -1.02077,-5.88382 -1.30961,-0.77323 -1.3399,-1.35789 -0.16365,-3.15861 1.74,-2.66369 1.65196,-19.68438 -0.0491,-19.68438 -0.6351,0 -0.81692,-1.07048 -0.81692,-2.27562 0,-1.20515 0.18182,-1.85336 0.81692,-1.85336 0.65147,0 1.35861,-6.63743 1.35861,-6.63743 0,0 -0.0312,-30.19216 -0.0312,-30.19216 l 6.37795,0 0,38.26772 8.50394,0 0,-38.26772 6.37795,0 c 0,0 0,29.76378 0,29.76378 0,0 0,7.02051 0.82615,7.08661 0.42118,0.0337 0.75813,0.57837 0.84413,1.977 0.093,1.51278 -0.23529,2.26277 -0.84413,2.27497 -0.65903,-0.0674 0.25406,4.39616 1.59009,5.32555 7.09511,4.36031 16.3914,4.0409 23.51397,0 z"
       sodipodi:nodetypes="ccssccccccccsssssccccccccsssssccccccccssccc" /><path
       id="path4030-4-9-7"
       style="fill:none;stroke:#000000;stroke-width:0.8;stroke-opacity:1;stroke-miterlimit:4;stroke-dasharray:none"
       d="m -612.99212,184.252 c 0,0 -21.25985,0 -21.25985,0 0,0 0.0312,30.19216 0.0312,30.19216 0,0 -0.70714,6.63743 -1.35861,6.63743 -0.6351,0 -0.81692,0.64821 -0.81692,1.85336 0,1.20514 0.18182,2.27562 0.81692,2.27562 1.70106,0 1.7891,17.02069 0.0491,19.68438 -1.17625,1.80072 -1.14596,2.38538 0.16365,3.15861 1.14388,0.6754 1.43809,2.37119 1.02077,5.88382 l -0.58627,4.93496 c 3.79688,0.32033 7.05812,0.49777 7.05812,0.49777 0,0 0,-36.85039 0,-36.85039 0,0 8.50393,0 8.50393,0 0,0 0,36.85039 0,36.85039 0,0 5.21667,-0.32212 7.05812,-0.49777 l -0.58627,-4.93496 c -0.41732,-3.51263 -0.12311,-5.20842 1.02077,-5.88382 1.30961,-0.77323 1.3399,-1.35789 0.16365,-3.15861 -1.74,-2.66369 -1.65196,-19.68438 0.0491,-19.68438 0.6351,0 0.81692,-1.07048 0.81692,-2.27562 0,-1.20515 -0.18182,-1.85336 -0.81692,-1.85336 -0.65147,0 -1.35861,-6.63743 -1.35861,-6.63743 0,0 0.0312,-30.19216 0.0312,-30.19216 z"
       sodipodi:nodetypes="cccsssssccccccccssssscc" /><path
       id="path4030-4-9-7-5"
       style="fill:none;stroke:#000000;stroke-width:0.8;stroke-opacity:1;stroke-miterlimit:4;stroke-dasharray:none"
       d="m -581.10235,184.252 c 0,0 -21.25985,0 -21.25985,0 0,0 0.0312,30.19216 0.0312,30.19216 0,0 -0.70714,6.63743 -1.35861,6.63743 -0.6351,0 -0.81692,0.64821 -0.81692,1.85336 0,1.20514 0.18182,2.27562 0.81692,2.27562 1.70106,0 1.7891,17.02069 0.0491,19.68438 -1.17625,1.80072 -1.14596,2.38538 0.16365,3.15861 1.14388,0.6754 1.43809,2.37119 1.02077,5.88382 l -0.58627,4.93496 c 3.79688,0.32033 7.05812,0.49777 7.05812,0.49777 0,0 0,-36.85039 0,-36.85039 0,0 8.50393,0 8.50393,0 0,0 0,36.85039 0,36.85039 0,0 5.21667,-0.32212 7.05812,-0.49777 l -0.58627,-4.93496 c -0.41732,-3.51263 -0.12311,-5.20842 1.02077,-5.88382 1.30961,-0.77323 1.3399,-1.35789 0.16365,-3.15861 -1.74,-2.66369 -1.65196,-19.68438 0.0491,-19.68438 0.6351,0 0.81692,-1.07048 0.81692,-2.27562 0,-1.20515 -0.18182,-1.85336 -0.81692,-1.85336 -0.65147,0 -1.35861,-6.63743 -1.35861,-6.63743 0,0 0.0312,-30.19216 0.0312,-30.19216 z"
       sodipodi:nodetypes="cccsssssccccccccssssscc" /><path
       id="path4180-9"
       style="fill:none;stroke:#000000;stroke-width:1;stroke-opacity:1"
       d="m 127.55906,503.14964 -9.92126,0 -1.41732,1.41732 -19.842534,0 c 0,0 0,32.59843 0,32.59843 0,0 -8.50393,0 -8.50393,0 l 0,-32.59843 -19.842523,0 -1.41732,-1.41732 -9.92126,0 0,8.50718 -2e-5,0 c 0,9.78632 0.97956,13.85942 4.1491,17.25244 1.46909,1.57266 2.2509,3.27397 2.2509,4.89824 0,2.69624 2.26368,9.34214 3.18206,9.34214 0.82702,0 2.41271,-5.75384 2.45075,-8.89282 0.0241,-1.9856 -0.90928,-3.00028 1.32616,-5.47084 l 0.81427,-1.54185 0.72951,0.34185 c 1.92173,2.0434 2.03815,2.65251 2.01983,10.56838 -0.0366,15.79887 3.327253,24.80497 11.004113,29.46176 l 3.52496,2.13824 0.0253,4.95427 c 0.0182,3.56035 0.4977,5.75494 1.70431,7.8 0.92346,1.56515 1.93679,2.84573 2.25183,2.84573 0.31504,0 -0.31504,0 0,0 0.31504,0 1.32837,-1.28058 2.25183,-2.84573 1.20661,-2.04506 1.68611,-4.23965 1.70431,-7.8 l 0.0253,-4.95427 3.52496,-2.13824 c 7.676864,-4.65679 11.040714,-13.66289 11.004114,-29.46176 -0.0183,-7.91587 0.0981,-8.52498 2.01983,-10.56838 l 0.72951,-0.34185 0.81427,1.54185 c 2.23544,2.47056 1.30206,3.48524 1.32616,5.47084 0.038,3.13898 1.62373,8.89282 2.45075,8.89282 0.91838,0 3.18206,-6.6459 3.18206,-9.34214 0,-1.62427 0.78181,-3.32558 2.2509,-4.89824 3.16954,-3.39302 4.1491,-7.46612 4.1491,-17.25244 l -2e-5,0 0,-8.50718 z"
       sodipodi:nodetypes="ccccccccccccsssscccscccsccscccscccssssccc" /><path
       id="path4180-9-3"
       style="fill:none;stroke:#000000;stroke-width:1;stroke-opacity:1"
       d="m 14.173228,503.14964 c 0,35.43307 0,0 -0.0853,35.00472 -0.0366,15.79887 3.32725,24.80497 11.00411,29.46176 l 3.25442,2.14769 c 0,0 0,-32.59842 0,-32.59842 0,0 8.50393,0 8.50393,0 l 0,32.59842 3.25445,-2.14769 c 7.67686,-4.65679 11.04071,-13.66289 11.00411,-29.46176 l -0.0853,-35.00472 -8.50396,0 c 0,0 -1.63073,1.41732 -1.63073,1.41732 l -16.63395,0 -1.57784,-1.41732 -8.50391,0 -3e-5,0 z"
       sodipodi:nodetypes="cccccccccccccccc" /><path
       id="path4243-5"
       style="fill:none;stroke:#000000;stroke-width:0.72027862px;stroke-linecap:butt;stroke-linejoin:miter;stroke-opacity:1"
       d="m -683.14961,63.779562 -8.50394,0 -0.39892,41.596458 -29.92212,-29.010438 9.07878,0.811827 -3.01095,-55.917535 10.07999,3e-6 1.41732,1.417323 34.01575,0 1.41732,-1.417323 9.92126,0 -3.01095,55.91753 8.83991,-1.050701 -30.32237,29.249314 0.39892,-41.596458 z"
       sodipodi:nodetypes="ccccccccccccccc" /><path
       style="fill:none;stroke:#000000;stroke-width:0.80000001px;stroke-linecap:butt;stroke-linejoin:miter;stroke-opacity:1"
       d="m -637.79528,21.259845 1.81321,40.56784 -6.5874,4.729408 7.09412,6.5874 0.61166,4.09636 -10.01821,-0.705416 25.76518,23.587763 -30.88468,15.75491 11.14789,14.69496 24.66439,-25.94453 4.74029,4.50532 3.61676,-3.3902 16.46849,31.92353 14.52605,-11.31681 -26.34958,-24.82941 15.53949,-14.863869 18.24203,-9.28992 -10.979,-14.69496 -4.72941,4.89832 2.091,-46.247224 -9.64552,-0.02531 -1.77242,1.379196 -12.75591,0 c 0,0 0,41.102362 0,41.102362 l -8.50394,0 0,-41.102362 -12.7559,0 -1.41733,-1.417323 -9.92126,0 0,-3.2e-5 z"
       id="path4313"
       sodipodi:nodetypes="cccccccccccccccccccccccccccccc" /><path
       id="path4030-4-4"
       style="fill:none;stroke:#000000;stroke-width:0.80000001;stroke-miterlimit:4;stroke-opacity:1;stroke-dasharray:none"
       d="m 61.363281,634.61692 c 1.33603,-0.92939 2.24912,-5.39298 1.59009,-5.32555 -0.60884,-0.0122 -0.93712,-0.76219 -0.84413,-2.27497 0.086,-1.39863 0.42295,-1.94332 0.84413,-1.977 0.82615,-0.0661 0.82615,-7.08661 0.82615,-7.08661 0,0 0,-29.76378 0,-29.76378 l 6.24956,0 0,38.26772 8.50394,0 0.12839,-38.26772 6.37796,0 c 0,0 -0.0312,30.19216 -0.0312,30.19216 0,0 0.70714,6.63743 1.35861,6.63743 0.6351,0 0.81692,0.64821 0.81692,1.85336 0,1.20514 -0.18182,2.27562 -0.81692,2.27562 -1.70106,0 -1.7891,17.02069 -0.0491,19.68438 1.17625,1.80072 1.14596,2.38538 -0.16365,3.15861 -1.14388,0.6754 -1.43809,2.37119 -1.02077,5.88382 l 0.58627,4.93496 -17.98781,0.79984 c -5.07206,0.22553 -11.67095,1.1523 -18.12542,1.11525 -6.45447,-0.0371 6.45447,-0.0371 0,0 -6.45447,0.037 -13.05336,-0.88972 -18.12542,-1.11525 l -17.987813,-0.79984 0.58627,-4.93496 c 0.41732,-3.51263 0.12311,-5.20842 -1.02077,-5.88382 -1.30961,-0.77323 -1.3399,-1.35789 -0.16365,-3.15861 1.74,-2.66369 1.65196,-19.68438 -0.0491,-19.68438 -0.6351,0 -0.81692,-1.07048 -0.81692,-2.27562 0,-1.20515 0.18182,-1.85336 0.81692,-1.85336 0.65147,0 1.35861,-6.63743 1.35861,-6.63743 0,0 -0.0312,-30.19216 -0.0312,-30.19216 l 6.37795,0 0,38.26772 8.503943,0 0,-38.26772 6.37795,0 c 0,0 0,29.76378 0,29.76378 0,0 0,7.02051 0.82615,7.08661 0.42118,0.0337 0.75813,0.57837 0.84413,1.977 0.093,1.51278 -0.23529,2.26277 -0.84413,2.27497 -0.65903,-0.0674 0.25406,4.39616 1.59009,5.32555 7.09511,4.36031 16.3914,4.0409 23.51397,0 z"
       sodipodi:nodetypes="ccssccccccccsssssccccccccsssssccccccccssccc" /><path
       id="path4030-4-9-7-7"
       style="fill:none;stroke:#000000;stroke-width:0.80000001;stroke-miterlimit:4;stroke-opacity:1;stroke-dasharray:none"
       d="m 113.38583,588.18901 c 0,0 -21.259846,0 -21.259846,0 0,0 0.0312,30.19216 0.0312,30.19216 0,0 -0.70713,6.63743 -1.35861,6.63743 -0.6351,0 -0.81692,0.64821 -0.81692,1.85336 0,1.20514 0.18182,2.27562 0.81692,2.27562 1.70106,0 1.7891,17.02069 0.0491,19.68438 -1.17624,1.80072 -1.14596,2.38538 0.16366,3.15861 1.14388,0.6754 1.43809,2.37119 1.02077,5.88382 l -0.58627,4.93496 c 3.79688,0.32033 7.05812,0.49777 7.05812,0.49777 0,0 0,-36.85039 0,-36.85039 0,0 8.503916,0 8.503916,0 0,0 0,36.85039 0,36.85039 0,0 5.21667,-0.32212 7.05812,-0.49777 l -0.58626,-4.93496 c -0.41732,-3.51263 -0.12311,-5.20842 1.02077,-5.88382 1.3096,-0.77323 1.33989,-1.35789 0.16364,-3.15861 -1.74,-2.66369 -1.65196,-19.68438 0.0491,-19.68438 0.6351,0 0.81692,-1.07048 0.81692,-2.27562 0,-1.20515 -0.18182,-1.85336 -0.81692,-1.85336 -0.65147,0 -1.35861,-6.63743 -1.35861,-6.63743 0,0 0.0312,-30.19216 0.0312,-30.19216 z"
       sodipodi:nodetypes="cccsssssccccccccssssscc" /><path
       id="path4030-4-9-7-5-2"
       style="fill:none;stroke:#000000;stroke-width:0.80000001;stroke-miterlimit:4;stroke-opacity:1;stroke-dasharray:none"
       d="m 141.73229,588.18901 c 0,0 -21.25985,0 -21.25985,0 0,0 0.0312,30.19216 0.0312,30.19216 0,0 -0.70714,6.63743 -1.35861,6.63743 -0.6351,0 -0.81692,0.64821 -0.81692,1.85336 0,1.20514 0.18182,2.27562 0.81692,2.27562 1.70106,0 1.7891,17.02069 0.0491,19.68438 -1.17626,1.80072 -1.14596,2.38538 0.16365,3.15861 1.14388,0.6754 1.43809,2.37119 1.02077,5.88382 l -0.58628,4.93496 c 3.79688,0.32033 7.05812,0.49777 7.05812,0.49777 0,0 0,-36.85039 0,-36.85039 0,0 8.50394,0 8.50394,0 0,0 0,36.85039 0,36.85039 0,0 5.21666,-0.32212 7.05812,-0.49777 l -0.58627,-4.93496 c -0.41732,-3.51263 -0.12311,-5.20842 1.02077,-5.88382 1.3096,-0.77323 1.3399,-1.35789 0.16364,-3.15861 -1.74,-2.66369 -1.65196,-19.68438 0.0491,-19.68438 0.6351,0 0.81692,-1.07048 0.81692,-2.27562 0,-1.20515 -0.18182,-1.85336 -0.81692,-1.85336 -0.65147,0 -1.3586,-6.63743 -1.3586,-6.63743 0,0 0.0312,-30.19216 0.0312,-30.19216 z"
       sodipodi:nodetypes="cccsssssccccccccssssscc" /><path
       id="path4030-4-4-4"
       style="fill:none;stroke:#000000;stroke-width:0.80000001;stroke-miterlimit:4;stroke-opacity:1;stroke-dasharray:none"
       d="m 196.71761,634.61692 c 1.33603,-0.92939 2.24912,-5.39298 1.59009,-5.32555 -0.60884,-0.0122 -0.93712,-0.76219 -0.84413,-2.27497 0.086,-1.39863 0.42295,-1.94332 0.84413,-1.977 0.82615,-0.0661 0.82615,-7.08661 0.82615,-7.08661 0,0 0,-29.76378 0,-29.76378 l 6.24956,0 0,38.26772 8.50394,0 0.12839,-38.26772 6.37796,0 c 0,0 -0.0312,30.19216 -0.0312,30.19216 0,0 0.70714,6.63743 1.35861,6.63743 0.6351,0 0.81692,0.64821 0.81692,1.85336 0,1.20514 -0.18182,2.27562 -0.81692,2.27562 -1.70106,0 -1.7891,17.02069 -0.0491,19.68438 1.17625,1.80072 1.14596,2.38538 -0.16365,3.15861 -1.14388,0.6754 -1.43809,2.37119 -1.02077,5.88382 l 0.58627,4.93496 -17.98781,0.79984 c -5.07206,0.22553 -11.67095,1.1523 -18.12542,1.11525 -6.45447,-0.0371 6.45447,-0.0371 0,0 -6.45447,0.037 -13.05336,-0.88972 -18.12542,-1.11525 l -17.98781,-0.79984 0.58627,-4.93496 c 0.41732,-3.51263 0.12311,-5.20842 -1.02077,-5.88382 -1.30961,-0.77323 -1.3399,-1.35789 -0.16365,-3.15861 1.74,-2.66369 1.65196,-19.68438 -0.0491,-19.68438 -0.6351,0 -0.81692,-1.07048 -0.81692,-2.27562 0,-1.20515 0.18182,-1.85336 0.81692,-1.85336 0.65147,0 1.35861,-6.63743 1.35861,-6.63743 0,0 -0.0312,-30.19216 -0.0312,-30.19216 l 6.37795,0 0,38.26772 8.50394,0 0,-38.26772 6.37795,0 c 0,0 0,29.76378 0,29.76378 0,0 0,7.02051 0.82615,7.08661 0.42118,0.0337 0.75813,0.57837 0.84413,1.977 0.093,1.51278 -0.23529,2.26277 -0.84413,2.27497 -0.65903,-0.0674 0.25406,4.39616 1.59009,5.32555 7.09511,4.36031 16.3914,4.0409 23.51397,0 z"
       sodipodi:nodetypes="ccssccccccccsssssccccccccsssssccccccccssccc" /><path
       id="path4030-4-9-7-7-0"
       style="fill:none;stroke:#000000;stroke-width:0.80000001;stroke-miterlimit:4;stroke-opacity:1;stroke-dasharray:none"
       d="m 248.74017,588.18901 c 0,0 -21.25985,0 -21.25985,0 0,0 0.0312,30.19216 0.0312,30.19216 0,0 -0.70713,6.63743 -1.35861,6.63743 -0.6351,0 -0.81692,0.64821 -0.81692,1.85336 0,1.20514 0.18182,2.27562 0.81692,2.27562 1.70106,0 1.7891,17.02069 0.0491,19.68438 -1.17624,1.80072 -1.14596,2.38538 0.16366,3.15861 1.14388,0.6754 1.43808,2.37119 1.02076,5.88382 l -0.58626,4.93496 c 3.79687,0.32033 7.05811,0.49777 7.05811,0.49777 0,0 0,-36.85039 0,-36.85039 0,0 8.50393,0 8.50393,0 0,0 0,36.85039 0,36.85039 0,0 5.21666,-0.32212 7.05811,-0.49777 l -0.58626,-4.93496 c -0.41732,-3.51263 -0.12312,-5.20842 1.02076,-5.88382 1.3096,-0.77323 1.3399,-1.35789 0.16364,-3.15861 -1.73999,-2.66369 -1.65195,-19.68438 0.0491,-19.68438 0.6351,0 0.81692,-1.07048 0.81692,-2.27562 0,-1.20515 -0.18182,-1.85336 -0.81692,-1.85336 -0.65146,0 -1.35861,-6.63743 -1.35861,-6.63743 0,0 0.0312,-30.19216 0.0312,-30.19216 z"
       sodipodi:nodetypes="cccsssssccccccccssssscc" /><path
       id="path4030-4-9-7-5-2-6"
       style="fill:none;stroke:#000000;stroke-width:0.80000001;stroke-miterlimit:4;stroke-opacity:1;stroke-dasharray:none"
       d="m 277.08662,588.18901 c 0,0 -21.25985,0 -21.25985,0 0,0 0.0312,30.19216 0.0312,30.19216 0,0 -0.70714,6.63743 -1.3586,6.63743 -0.63511,0 -0.81692,0.64821 -0.81692,1.85336 0,1.20514 0.18181,2.27562 0.81692,2.27562 1.70105,0 1.78909,17.02069 0.0491,19.68438 -1.17626,1.80072 -1.14596,2.38538 0.16364,3.15861 1.14388,0.6754 1.4381,2.37119 1.02078,5.88382 l -0.58628,4.93496 c 3.79688,0.32033 7.05812,0.49777 7.05812,0.49777 0,0 0,-36.85039 0,-36.85039 0,0 8.50394,0 8.50394,0 0,0 0,36.85039 0,36.85039 0,0 5.21666,-0.32212 7.05812,-0.49777 l -0.58628,-4.93496 c -0.41732,-3.51263 -0.1231,-5.20842 1.02078,-5.88382 1.3096,-0.77323 1.3399,-1.35789 0.16364,-3.15861 -1.74,-2.66369 -1.65196,-19.68438 0.0491,-19.68438 0.6351,0 0.81692,-1.07048 0.81692,-2.27562 0,-1.20515 -0.18182,-1.85336 -0.81692,-1.85336 -0.65147,0 -1.3586,-6.63743 -1.3586,-6.63743 0,0 0.0312,-30.19216 0.0312,-30.19216 z"
       sodipodi:nodetypes="cccsssssccccccccssssscc" /><path
       id="path4180-9-2"
       style="fill:none;stroke:#000000;stroke-width:1;stroke-opacity:1"
       d="m 248.03149,503.14964 -9.92125,0 -1.41732,1.41732 -19.84254,0 c 0,0 0,32.59843 0,32.59843 0,0 -8.50393,0 -8.50393,0 l 0,-32.59843 -19.84252,0 -1.41732,-1.41732 -9.92126,0 0,8.50718 -2e-5,0 c 0,9.78632 0.97956,13.85942 4.1491,17.25244 1.46909,1.57266 2.2509,3.27397 2.2509,4.89824 0,2.69624 2.26368,9.34214 3.18206,9.34214 0.82702,0 2.41271,-5.75384 2.45075,-8.89282 0.0241,-1.9856 -0.90928,-3.00028 1.32616,-5.47084 l 0.81427,-1.54185 0.72951,0.34185 c 1.92173,2.0434 2.03815,2.65251 2.01983,10.56838 -0.0366,15.79887 3.32725,24.80497 11.00411,29.46176 l 3.52496,2.13824 0.0253,4.95427 c 0.0182,3.56035 0.4977,5.75494 1.70431,7.8 0.92346,1.56515 1.93679,2.84573 2.25183,2.84573 0.31504,0 -0.31504,0 0,0 0.31504,0 1.32837,-1.28058 2.25183,-2.84573 1.20661,-2.04506 1.68611,-4.23965 1.70431,-7.8 l 0.0253,-4.95427 3.52496,-2.13824 c 7.67687,-4.65679 11.04071,-13.66289 11.00411,-29.46176 -0.0183,-7.91587 0.0981,-8.52498 2.01984,-10.56838 l 0.72951,-0.34185 0.81427,1.54185 c 2.23544,2.47056 1.30206,3.48524 1.32616,5.47084 0.038,3.13898 1.62373,8.89282 2.45075,8.89282 0.91838,0 3.18206,-6.6459 3.18206,-9.34214 0,-1.62427 0.78181,-3.32558 2.2509,-4.89824 3.16954,-3.39302 4.1491,-7.46612 4.1491,-17.25244 l -2e-5,0 0,-8.50718 z"
       sodipodi:nodetypes="ccccccccccccsssscccscccsccscccscccssssccc" /><path
       id="path4180-9-3-9"
       style="fill:none;stroke:#000000;stroke-width:1;stroke-opacity:1"
       d="m 134.64567,503.14964 c 0,35.43307 0,0 -0.0853,35.00472 -0.0366,15.79887 3.32725,24.80497 11.00411,29.46176 l 3.25442,2.14769 c 0,0 0,-32.59842 0,-32.59842 0,0 8.50393,0 8.50393,0 l 0,32.59842 3.25445,-2.14769 c 7.67686,-4.65679 11.04071,-13.66289 11.00411,-29.46176 l -0.0853,-35.00472 -8.50396,0 c 0,0 -1.63073,1.41732 -1.63073,1.41732 l -16.63395,0 -1.57784,-1.41732 -8.50391,0 -3e-5,0 z"
       sodipodi:nodetypes="cccccccccccccccc" /><path
       id="path4180-9-0"
       style="fill:none;stroke:#000000;stroke-width:1;stroke-opacity:1"
       d="m 368.50394,503.14964 -9.92125,0 -1.41732,1.41732 -19.84254,0 c 0,0 0,32.59843 0,32.59843 0,0 -8.50393,0 -8.50393,0 l 0,-32.59843 -19.84252,0 -1.41732,-1.41732 -9.92126,0 0,8.50718 -2e-5,0 c 0,9.78632 0.97956,13.85942 4.1491,17.25244 1.46909,1.57266 2.2509,3.27397 2.2509,4.89824 0,2.69624 2.26368,9.34214 3.18206,9.34214 0.82702,0 2.41271,-5.75384 2.45075,-8.89282 0.0241,-1.9856 -0.90928,-3.00028 1.32616,-5.47084 l 0.81427,-1.54185 0.72951,0.34185 c 1.92173,2.0434 2.03815,2.65251 2.01983,10.56838 -0.0366,15.79887 3.32725,24.80497 11.00411,29.46176 l 3.52496,2.13824 0.0253,4.95427 c 0.0182,3.56035 0.4977,5.75494 1.70431,7.8 0.92346,1.56515 1.93679,2.84573 2.25183,2.84573 0.31504,0 -0.31504,0 0,0 0.31504,0 1.32837,-1.28058 2.25183,-2.84573 1.2066,-2.04506 1.68611,-4.23965 1.70431,-7.8 l 0.0253,-4.95427 3.52496,-2.13824 c 7.67686,-4.65679 11.04071,-13.66289 11.00411,-29.46176 -0.0183,-7.91587 0.0981,-8.52498 2.01983,-10.56838 l 0.72951,-0.34185 0.81428,1.54185 c 2.23544,2.47056 1.30206,3.48524 1.32616,5.47084 0.038,3.13898 1.62373,8.89282 2.45075,8.89282 0.91838,0 3.18206,-6.6459 3.18206,-9.34214 0,-1.62427 0.78181,-3.32558 2.2509,-4.89824 3.16954,-3.39302 4.1491,-7.46612 4.1491,-17.25244 l -2e-5,0 0,-8.50718 z"
       sodipodi:nodetypes="ccccccccccccsssscccscccsccscccscccssssccc" /><path
       id="path4180-9-3-8"
       style="fill:none;stroke:#000000;stroke-width:1;stroke-opacity:1"
       d="m 255.11811,503.14964 c 0,35.43307 0,0 -0.0853,35.00472 -0.0366,15.79887 3.32725,24.80497 11.00411,29.46176 l 3.25442,2.14769 c 0,0 0,-32.59842 0,-32.59842 0,0 8.50393,0 8.50393,0 l 0,32.59842 3.25445,-2.14769 c 7.67686,-4.65679 11.04071,-13.66289 11.00411,-29.46176 l -0.0853,-35.00472 -8.50396,0 c 0,0 -1.63073,1.41732 -1.63073,1.41732 l -16.63395,0 -1.57784,-1.41732 -8.50391,0 -3e-5,0 z"
       sodipodi:nodetypes="cccccccccccccccc" /><path
       id="path4180-9-1"
       style="fill:none;stroke:#000000;stroke-width:1;stroke-opacity:1"
       d="m 488.97637,503.14964 -9.92125,0 -1.41732,1.41732 -19.84253,0 c 0,0 0,32.59843 0,32.59843 0,0 -8.50393,0 -8.50393,0 l 0,-32.59843 -19.84253,0 -1.41732,-1.41732 -9.92126,0 0,8.50718 -2e-5,0 c 0,9.78632 0.97956,13.85942 4.1491,17.25244 1.46909,1.57266 2.2509,3.27397 2.2509,4.89824 0,2.69624 2.26368,9.34214 3.18206,9.34214 0.82702,0 2.41271,-5.75384 2.45075,-8.89282 0.0241,-1.9856 -0.90928,-3.00028 1.32616,-5.47084 l 0.81427,-1.54185 0.72951,0.34185 c 1.92173,2.0434 2.03815,2.65251 2.01983,10.56838 -0.0366,15.79887 3.32726,24.80497 11.00412,29.46176 l 3.52496,2.13824 0.0253,4.95427 c 0.0182,3.56035 0.49769,5.75494 1.7043,7.8 0.92346,1.56515 1.93679,2.84573 2.25183,2.84573 0.31504,0 -0.31504,0 0,0 0.31504,0 1.32837,-1.28058 2.25183,-2.84573 1.20661,-2.04506 1.68612,-4.23965 1.70432,-7.8 l 0.0253,-4.95427 3.52496,-2.13824 c 7.67686,-4.65679 11.04071,-13.66289 11.00411,-29.46176 -0.0183,-7.91587 0.0981,-8.52498 2.01983,-10.56838 l 0.72951,-0.34185 0.81427,1.54185 c 2.23544,2.47056 1.30206,3.48524 1.32616,5.47084 0.038,3.13898 1.62373,8.89282 2.45075,8.89282 0.91838,0 3.18206,-6.6459 3.18206,-9.34214 0,-1.62427 0.78181,-3.32558 2.2509,-4.89824 3.16954,-3.39302 4.1491,-7.46612 4.1491,-17.25244 l -2e-5,0 0,-8.50718 z"
       sodipodi:nodetypes="ccccccccccccsssscccscccsccscccscccssssccc" /><path
       id="path4180-9-3-3"
       style="fill:none;stroke:#000000;stroke-width:1;stroke-opacity:1"
       d="m 375.59055,503.14964 c 0,35.43307 0,0 -0.0853,35.00472 -0.0366,15.79887 3.32725,24.80497 11.00411,29.46176 l 3.25442,2.14769 c 0,0 0,-32.59842 0,-32.59842 0,0 8.50393,0 8.50393,0 l 0,32.59842 3.25445,-2.14769 c 7.67686,-4.65679 11.04071,-13.66289 11.00411,-29.46176 l -0.0853,-35.00472 -8.50396,0 c 0,0 -1.63073,1.41732 -1.63073,1.41732 l -16.63395,0 -1.57784,-1.41732 -8.50391,0 -3e-5,0 z"
       sodipodi:nodetypes="cccccccccccccccc" /><path
       id="path4180-9-2-1"
       style="fill:none;stroke:#000000;stroke-width:1;stroke-opacity:1"
       d="m 609.44881,503.14964 -9.92125,0 -1.41732,1.41732 -19.84255,0 c 0,0 0,32.59843 0,32.59843 0,0 -8.50392,0 -8.50392,0 l 0,-32.59843 -19.84252,0 -1.41732,-1.41732 -9.92126,0 0,8.50718 -2e-5,0 c 0,9.78632 0.97956,13.85942 4.1491,17.25244 1.46909,1.57266 2.2509,3.27397 2.2509,4.89824 0,2.69624 2.26368,9.34214 3.18206,9.34214 0.82702,0 2.4127,-5.75384 2.45074,-8.89282 0.0241,-1.9856 -0.90928,-3.00028 1.32616,-5.47084 l 0.81428,-1.54185 0.72951,0.34185 c 1.92173,2.0434 2.03815,2.65251 2.01983,10.56838 -0.0366,15.79887 3.32725,24.80497 11.0041,29.46176 l 3.52496,2.13824 0.0253,4.95427 c 0.0182,3.56035 0.4977,5.75494 1.70432,7.8 0.92348,1.56515 1.9368,2.84573 2.25184,2.84573 0.31504,0 -0.31504,0 0,0 0.31504,0 1.32838,-1.28058 2.25184,-2.84573 1.2066,-2.04506 1.68611,-4.23965 1.70431,-7.8 l 0.0253,-4.95427 3.52496,-2.13824 c 7.67687,-4.65679 11.04071,-13.66289 11.00411,-29.46176 -0.0183,-7.91587 0.0981,-8.52498 2.01984,-10.56838 l 0.72951,-0.34185 0.81427,1.54185 c 2.23544,2.47056 1.30206,3.48524 1.32616,5.47084 0.038,3.13898 1.62373,8.89282 2.45075,8.89282 0.91838,0 3.18206,-6.6459 3.18206,-9.34214 0,-1.62427 0.78181,-3.32558 2.2509,-4.89824 3.16954,-3.39302 4.1491,-7.46612 4.1491,-17.25244 l -2e-5,0 0,-8.50718 z"
       sodipodi:nodetypes="ccccccccccccsssscccscccsccscccscccssssccc" /><path
       id="path4180-9-3-9-1"
       style="fill:none;stroke:#000000;stroke-width:1;stroke-opacity:1"
       d="m 496.06299,503.14964 c 0,35.43307 0,0 -0.0853,35.00472 -0.0366,15.79887 3.32724,24.80497 11.00411,29.46176 l 3.25441,2.14769 c 0,0 0,-32.59842 0,-32.59842 0,0 8.50394,0 8.50394,0 l 0,32.59842 3.25445,-2.14769 c 7.67685,-4.65679 11.04071,-13.66289 11.00411,-29.46176 l -0.0853,-35.00472 -8.50396,0 c 0,0 -1.63073,1.41732 -1.63073,1.41732 l -16.63395,0 -1.57784,-1.41732 -8.50392,0 -2e-5,0 z"
       sodipodi:nodetypes="cccccccccccccccc" /><path
       id="path4180-9-0-0"
       style="fill:none;stroke:#000000;stroke-width:1;stroke-opacity:1"
       d="m 729.92125,503.14964 -9.92124,0 -1.41732,1.41732 -19.84254,0 c 0,0 0,32.59843 0,32.59843 0,0 -8.50394,0 -8.50394,0 l 0,-32.59843 -19.84252,0 -1.41732,-1.41732 -9.92125,0 0,8.50718 -3e-5,0 c 0,9.78632 0.97956,13.85942 4.14911,17.25244 1.46909,1.57266 2.25089,3.27397 2.25089,4.89824 0,2.69624 2.26368,9.34214 3.18207,9.34214 0.82701,0 2.41271,-5.75384 2.45075,-8.89282 0.0241,-1.9856 -0.90928,-3.00028 1.32616,-5.47084 l 0.81426,-1.54185 0.72952,0.34185 c 1.92172,2.0434 2.03815,2.65251 2.01983,10.56838 -0.0366,15.79887 3.32725,24.80497 11.00411,29.46176 l 3.52496,2.13824 0.0253,4.95427 c 0.0182,3.56035 0.49772,5.75494 1.70433,7.8 0.92345,1.56515 1.93679,2.84573 2.25183,2.84573 0.31504,0 -0.31504,0 0,0 0.31504,0 1.32837,-1.28058 2.25182,-2.84573 1.2066,-2.04506 1.68612,-4.23965 1.70432,-7.8 l 0.0253,-4.95427 3.52496,-2.13824 c 7.67685,-4.65679 11.0407,-13.66289 11.0041,-29.46176 -0.0183,-7.91587 0.0981,-8.52498 2.01983,-10.56838 l 0.72951,-0.34185 0.81428,1.54185 c 2.23544,2.47056 1.30206,3.48524 1.32616,5.47084 0.038,3.13898 1.62373,8.89282 2.45076,8.89282 0.91837,0 3.18205,-6.6459 3.18205,-9.34214 0,-1.62427 0.78181,-3.32558 2.25091,-4.89824 3.16953,-3.39302 4.14909,-7.46612 4.14909,-17.25244 l -10e-6,0 0,-8.50718 z"
       sodipodi:nodetypes="ccccccccccccsssscccscccsccscccscccssssccc" /><path
       id="path4180-9-3-8-3"
       style="fill:none;stroke:#000000;stroke-width:1;stroke-opacity:1"
       d="m 616.53543,503.14964 c 0,35.43307 0,0 -0.0853,35.00472 -0.0366,15.79887 3.32724,24.80497 11.00411,29.46176 l 3.25441,2.14769 c 0,0 0,-32.59842 0,-32.59842 0,0 8.50394,0 8.50394,0 l 0,32.59842 3.25445,-2.14769 c 7.67685,-4.65679 11.04071,-13.66289 11.00411,-29.46176 l -0.0853,-35.00472 -8.50396,0 c 0,0 -1.63073,1.41732 -1.63073,1.41732 l -16.63395,0 -1.57784,-1.41732 -8.50392,0 -2e-5,0 z"
       sodipodi:nodetypes="cccccccccccccccc" /><path
       id="path4180-9-4"
       style="fill:none;stroke:#000000;stroke-width:1;stroke-opacity:1"
       d="m 396.85039,588.18901 -9.92125,0 -1.41732,1.41732 -19.84254,0 c 0,0 0,32.59843 0,32.59843 0,0 -8.50393,0 -8.50393,0 l 0,-32.59843 -19.84252,0 -1.41732,-1.41732 -9.92126,0 0,8.50718 -2e-5,0 c 0,9.78632 0.97956,13.85942 4.1491,17.25244 1.46909,1.57266 2.2509,3.27397 2.2509,4.89824 0,2.69624 2.26368,9.34214 3.18206,9.34214 0.82702,0 2.41271,-5.75384 2.45075,-8.89282 0.0241,-1.9856 -0.90928,-3.00028 1.32616,-5.47084 l 0.81427,-1.54185 0.72951,0.34185 c 1.92173,2.0434 2.03815,2.65251 2.01983,10.56838 -0.0366,15.79887 3.32725,24.80497 11.00411,29.46176 l 3.52496,2.13824 0.0253,4.95427 c 0.0182,3.56035 0.4977,5.75494 1.70431,7.8 0.92346,1.56515 1.93679,2.84573 2.25183,2.84573 0.31504,0 -0.31504,0 0,0 0.31504,0 1.32837,-1.28058 2.25183,-2.84573 1.20661,-2.04506 1.68611,-4.23965 1.70431,-7.8 l 0.0253,-4.95427 3.52496,-2.13824 c 7.67687,-4.65679 11.04071,-13.66289 11.00411,-29.46176 -0.0183,-7.91587 0.0981,-8.52498 2.01984,-10.56838 l 0.72951,-0.34185 0.81427,1.54185 c 2.23544,2.47056 1.30206,3.48524 1.32616,5.47084 0.038,3.13898 1.62373,8.89282 2.45075,8.89282 0.91838,0 3.18206,-6.6459 3.18206,-9.34214 0,-1.62427 0.78181,-3.32558 2.2509,-4.89824 3.16954,-3.39302 4.1491,-7.46612 4.1491,-17.25244 l -2e-5,0 0,-8.50718 z"
       sodipodi:nodetypes="ccccccccccccsssscccscccsccscccscccssssccc" /><path
       id="path4180-9-3-0"
       style="fill:none;stroke:#000000;stroke-width:1;stroke-opacity:1"
       d="m 283.46457,588.18901 c 0,35.43307 0,0 -0.0853,35.00472 -0.0366,15.79887 3.32725,24.80497 11.00411,29.46176 l 3.25442,2.14769 c 0,0 0,-32.59842 0,-32.59842 0,0 8.50393,0 8.50393,0 l 0,32.59842 3.25445,-2.14769 c 7.67686,-4.65679 11.04071,-13.66289 11.00411,-29.46176 l -0.0853,-35.00472 -8.50396,0 c 0,0 -1.63073,1.41732 -1.63073,1.41732 l -16.63395,0 -1.57784,-1.41732 -8.50391,0 -3e-5,0 z"
       sodipodi:nodetypes="cccccccccccccccc" /><path
       id="path4180-9-2-3"
       style="fill:none;stroke:#000000;stroke-width:1;stroke-opacity:1"
       d="m 517.32283,588.18901 -9.92125,0 -1.41732,1.41732 -19.84255,0 c 0,0 0,32.59843 0,32.59843 0,0 -8.50392,0 -8.50392,0 l 0,-32.59843 -19.84252,0 -1.41732,-1.41732 -9.92126,0 0,8.50718 -2e-5,0 c 0,9.78632 0.97956,13.85942 4.1491,17.25244 1.46909,1.57266 2.2509,3.27397 2.2509,4.89824 0,2.69624 2.26368,9.34214 3.18206,9.34214 0.82702,0 2.4127,-5.75384 2.45074,-8.89282 0.0241,-1.9856 -0.90928,-3.00028 1.32616,-5.47084 l 0.81428,-1.54185 0.72951,0.34185 c 1.92173,2.0434 2.03815,2.65251 2.01983,10.56838 -0.0366,15.79887 3.32725,24.80497 11.0041,29.46176 l 3.52496,2.13824 0.0253,4.95427 c 0.0182,3.56035 0.4977,5.75494 1.70432,7.8 0.92348,1.56515 1.9368,2.84573 2.25184,2.84573 0.31504,0 -0.31504,0 0,0 0.31504,0 1.32838,-1.28058 2.25184,-2.84573 1.2066,-2.04506 1.68611,-4.23965 1.70431,-7.8 l 0.0253,-4.95427 3.52496,-2.13824 c 7.67687,-4.65679 11.04071,-13.66289 11.00411,-29.46176 -0.0183,-7.91587 0.0981,-8.52498 2.01984,-10.56838 l 0.72951,-0.34185 0.81427,1.54185 c 2.23544,2.47056 1.30206,3.48524 1.32616,5.47084 0.038,3.13898 1.62373,8.89282 2.45075,8.89282 0.91838,0 3.18206,-6.6459 3.18206,-9.34214 0,-1.62427 0.78181,-3.32558 2.2509,-4.89824 3.16954,-3.39302 4.1491,-7.46612 4.1491,-17.25244 l -2e-5,0 0,-8.50718 z"
       sodipodi:nodetypes="ccccccccccccsssscccscccsccscccscccssssccc" /><path
       id="path4180-9-3-9-9"
       style="fill:none;stroke:#000000;stroke-width:1;stroke-opacity:1"
       d="m 403.93701,588.18901 c 0,35.43307 0,0 -0.0853,35.00472 -0.0366,15.79887 3.32724,24.80497 11.00411,29.46176 l 3.25441,2.14769 c 0,0 0,-32.59842 0,-32.59842 0,0 8.50394,0 8.50394,0 l 0,32.59842 3.25445,-2.14769 c 7.67685,-4.65679 11.04071,-13.66289 11.00411,-29.46176 l -0.0853,-35.00472 -8.50396,0 c 0,0 -1.63073,1.41732 -1.63073,1.41732 l -16.63395,0 -1.57784,-1.41732 -8.50392,0 -2e-5,0 z"
       sodipodi:nodetypes="cccccccccccccccc" /><path
       id="path4180-9-0-0-1"
       style="fill:none;stroke:#000000;stroke-width:1;stroke-opacity:1"
       d="m -403.93702,361.41736 -9.92124,0 -1.41732,1.41732 -19.84254,0 c 0,0 0,32.59843 0,32.59843 0,0 -8.50394,0 -8.50394,0 l 0,-32.59843 -19.84252,0 -1.41732,-1.41732 -9.92125,0 0,8.50718 -3e-5,0 c 0,9.78632 0.97956,13.85942 4.14911,17.25244 1.46909,1.57266 2.25089,3.27397 2.25089,4.89824 0,2.69624 2.26368,9.34214 3.18207,9.34214 0.82701,0 2.41271,-5.75384 2.45075,-8.89282 0.0241,-1.9856 -0.90928,-3.00028 1.32616,-5.47084 l 0.81426,-1.54185 0.72952,0.34185 c 1.92172,2.0434 2.03815,2.65251 2.01983,10.56838 -0.0366,15.79887 3.32725,24.80497 11.00411,29.46176 l 3.52496,2.13824 0.0253,4.95427 c 0.0182,3.56035 0.49772,5.75494 1.70433,7.8 0.92345,1.56515 1.93679,2.84573 2.25183,2.84573 0.31504,0 -0.31504,0 0,0 0.31504,0 1.32837,-1.28058 2.25182,-2.84573 1.2066,-2.04506 1.68612,-4.23965 1.70432,-7.8 l 0.0253,-4.95427 3.52496,-2.13824 c 7.67685,-4.65679 11.0407,-13.66289 11.0041,-29.46176 -0.0183,-7.91587 0.0981,-8.52498 2.01983,-10.56838 l 0.72951,-0.34185 0.81427,1.54185 c 2.23544,2.47056 1.30206,3.48524 1.32616,5.47084 0.038,3.13898 1.62373,8.89282 2.45076,8.89282 0.91837,0 3.18205,-6.6459 3.18205,-9.34214 0,-1.62427 0.78181,-3.32558 2.25091,-4.89824 3.16953,-3.39302 4.14909,-7.46612 4.14909,-17.25244 l -10e-6,0 0,-8.50718 z"
       sodipodi:nodetypes="ccccccccccccsssscccscccsccscccscccssssccc" /><path
       id="path4180-9-3-8-3-9"
       style="fill:none;stroke:#000000;stroke-width:1;stroke-opacity:1"
       d="m -517.32284,361.41736 c 0,35.43307 0,0 -0.0853,35.00472 -0.0366,15.79887 3.32724,24.80497 11.00411,29.46176 l 3.25441,2.14769 c 0,0 0,-32.59842 0,-32.59842 0,0 8.50394,0 8.50394,0 l 0,32.59842 3.25445,-2.14769 c 7.67685,-4.65679 11.04071,-13.66289 11.00411,-29.46176 l -0.0853,-35.00472 -8.50396,0 c 0,0 -1.63073,1.41732 -1.63073,1.41732 l -16.63395,0 -1.57784,-1.41732 -8.50392,0 -2e-5,0 z"
       sodipodi:nodetypes="cccccccccccccccc" /></g></svg>